<?xml version="1.0" encoding="UTF-8"?>
<svg version="1.1" xmlns="http://www.w3.org/2000/svg" width="512" height="512">
<path d="M0 0 C3.83084349 2.61193874 6.65161815 5.67823629 8.75 9.875 C8.85080734 12.23507568 8.89108928 14.56584264 8.88701439 16.92633343 C8.88966622 17.66436324 8.89231804 18.40239305 8.89505023 19.16278741 C8.90277266 21.66140922 8.90330352 24.15998214 8.90390015 26.65861511 C8.90791283 28.4578911 8.91235073 30.25716619 8.9171797 32.05644017 C8.92917269 37.02089428 8.93479995 41.98533866 8.93936086 46.94980443 C8.94530665 52.29624455 8.95691903 57.64267297 8.96765137 62.98910522 C8.9921988 75.91092005 9.00680591 88.83273876 9.01971143 101.75456974 C9.02342165 105.40238142 9.02739502 109.05019271 9.0314641 112.69800401 C9.05669876 135.33524939 9.0787587 157.97249535 9.09119225 180.6097517 C9.0941221 185.85580129 9.09708374 191.10185085 9.10009766 196.34790039 C9.10084371 197.65183187 9.10158976 198.95576335 9.10235842 200.2992079 C9.11501666 221.43023464 9.14824464 242.56117732 9.18989949 263.69216474 C9.23228614 285.37155034 9.2558835 307.05089286 9.26111281 328.7303198 C9.26453063 340.90873783 9.27632949 353.08702451 9.30921555 365.26540184 C9.33717228 375.63554757 9.34823463 386.00553503 9.33702008 396.37571552 C9.33182225 401.66874456 9.33479328 406.96144195 9.35948563 412.25442314 C9.38189644 417.09868732 9.38130194 421.94238003 9.36228175 426.78665368 C9.35947025 428.54041585 9.3651438 430.2942161 9.38009469 432.04791679 C9.39916961 434.43079535 9.38743542 436.81162944 9.36803246 439.19446087 C9.38088168 439.87659904 9.3937309 440.5587372 9.40696949 441.26154622 C9.30920721 446.71948627 7.24172457 449.92347945 3.75 453.875 C-0.8438732 458.01044893 -6.3926705 457.29615212 -12.24423218 457.26268005 C-13.36654224 457.26806559 -14.4888523 457.27345113 -15.64517176 457.27899987 C-19.41378656 457.2933314 -23.18205268 457.28616268 -26.95068359 457.27905273 C-29.64939999 457.2847536 -32.34809116 457.29161589 -35.04679871 457.29985046 C-41.62115754 457.31705055 -48.19542086 457.31787591 -54.76979636 457.31263756 C-60.11383025 457.30859655 -65.4578359 457.31003859 -70.80186844 457.31538582 C-71.94265719 457.31650845 -71.94265719 457.31650845 -73.10649217 457.31765376 C-74.65149939 457.31918524 -76.1965066 457.32072359 -77.7415138 457.32226873 C-92.23216033 457.33599837 -106.72275288 457.33055303 -121.21339817 457.31908352 C-134.46801756 457.3091526 -147.72249732 457.3220885 -160.97709517 457.34601771 C-174.58830117 457.37040548 -188.19944213 457.38001726 -201.81066954 457.37336498 C-209.4517667 457.36987179 -217.09275649 457.37211131 -224.73383713 457.38961601 C-231.23920325 457.40433407 -237.74438642 457.40497884 -244.24974893 457.3875451 C-247.56822738 457.37902874 -250.88611042 457.37906565 -254.20461464 457.39219666 C-257.80398643 457.4053525 -261.40246736 457.39390547 -265.00180054 457.37620544 C-266.04801083 457.38581045 -267.09422112 457.39541546 -268.17213476 457.40531152 C-274.41053945 457.34211345 -278.17680366 456.59059296 -283.25 452.875 C-287.20477436 447.90618093 -287.89731807 443.83935079 -287.62890625 437.52734375 C-287.02617955 433.30825682 -285.92880901 431.24068311 -283.25 427.875 C-277.42379728 423.68004564 -272.90237558 423.3082946 -265.84132385 423.39398193 C-264.2887696 423.38885538 -264.2887696 423.38885538 -262.70485061 423.38362527 C-259.24378675 423.37704752 -255.78350194 423.39902167 -252.32250977 423.42089844 C-249.83875039 423.42202693 -247.35498968 423.42139302 -244.87123108 423.41912842 C-239.52755823 423.41821815 -234.18412693 423.42954814 -228.84051704 423.45207977 C-221.1146673 423.484635 -213.38891195 423.49501037 -205.66300105 423.50003174 C-193.12724979 423.50877889 -180.59160285 423.53537866 -168.0559082 423.57324219 C-155.88110881 423.60997733 -143.70633779 423.63828172 -131.53149414 423.65527344 C-130.78061032 423.65632433 -130.0297265 423.65737523 -129.25608862 423.65845796 C-125.48899729 423.66367824 -121.72190575 423.66873304 -117.95481408 423.67370558 C-86.71980021 423.71514954 -55.48491597 423.78588015 -24.25 423.875 C-24.25151888 423.00126688 -24.25303776 422.12753377 -24.25460267 421.22732389 C-24.34406751 369.47087783 -24.41272221 317.71443995 -24.45426132 265.95793208 C-24.45926429 259.74685693 -24.46444157 253.53578194 -24.46972656 247.32470703 C-24.4707758 246.08816638 -24.47182505 244.85162573 -24.47290608 243.57761414 C-24.49032291 223.54187772 -24.52186764 203.5061871 -24.55861118 183.47047786 C-24.59598505 162.92004624 -24.61822833 142.36963863 -24.62635398 121.81917441 C-24.63184912 109.13305528 -24.64922028 96.44706558 -24.68166587 83.76098628 C-24.70276987 75.0678813 -24.70920938 66.37484346 -24.70400551 57.6817147 C-24.70143733 52.66227208 -24.70544156 47.643056 -24.7268219 42.62365341 C-24.74624435 38.03046903 -24.74729808 33.4376642 -24.73359558 28.84446259 C-24.73190131 27.18083298 -24.73701198 25.51717997 -24.74953273 23.85359661 C-24.76554721 21.59489112 -24.75695903 19.33756209 -24.74219131 17.0788784 C-24.7437102 15.82352299 -24.74522908 14.56816758 -24.74679399 13.27477109 C-23.98751048 8.07867332 -21.51952022 5.02066459 -17.6875 1.5625 C-12.30660892 -2.16273229 -6.04005985 -2.09078995 0 0 Z " fill="#A0A0A0" transform="translate(503.25,55.125)"/>
<path d="M0 0 C0.67893673 -0.00265183 1.35787347 -0.00530365 2.05738404 -0.00803584 C4.35498782 -0.01575571 6.6525384 -0.01628903 8.9501543 -0.01688576 C10.60506237 -0.02089862 12.25996945 -0.02533654 13.91487533 -0.03016531 C18.4802743 -0.04215643 23.04566269 -0.04778513 27.61107433 -0.05234647 C32.52806316 -0.05829297 37.44503927 -0.06990519 42.36201954 -0.08063698 C54.24563412 -0.10518293 66.12925292 -0.11979139 78.01288506 -0.13269705 C81.36778007 -0.13640739 84.72267466 -0.14038075 88.07756925 -0.14444971 C108.89828407 -0.16968471 129.71899952 -0.19174407 150.53972626 -0.20417786 C155.36467141 -0.20710769 160.18961655 -0.21006934 165.01456165 -0.21308327 C166.21382162 -0.21382932 167.41308158 -0.21457537 168.64868275 -0.21534403 C188.08224989 -0.22800153 207.51572562 -0.26122858 226.94925001 -0.3028851 C246.88841655 -0.3452761 266.82753627 -0.36886962 286.76674777 -0.37409842 C297.96707212 -0.37751577 309.16725362 -0.38930903 320.36753368 -0.42220116 C329.90508301 -0.45016389 339.44246023 -0.46121761 348.98004737 -0.4500057 C353.84778152 -0.44480936 358.71515504 -0.44776899 363.5828371 -0.47247124 C368.03852874 -0.49489432 372.49359921 -0.49427816 376.94930122 -0.47526737 C378.56174603 -0.47245758 380.17423235 -0.4781201 381.78661021 -0.4930803 C395.33725946 -0.61112669 395.33725946 -0.61112669 399.88150215 2.52218246 C404.21761454 6.86005257 405.92474625 9.83022634 405.93277454 16.01201439 C405.76639318 21.65511571 405.06408187 24.74463614 401.49527454 29.13701439 C394.83817456 34.45079201 387.41662074 33.68512356 379.30315113 33.61803246 C377.73793237 33.61977758 376.17271475 33.62328141 374.60750335 33.62838912 C370.31337369 33.63732456 366.01964381 33.62134527 361.72556508 33.60127687 C357.09237992 33.58399559 352.45921712 33.58984906 347.8260088 33.59288597 C339.80098668 33.5949829 331.77609469 33.58243782 323.75110531 33.55993462 C312.1483539 33.52742005 300.54566538 33.51700815 288.94287335 33.51198265 C270.11793821 33.50322915 251.29307242 33.47661206 232.46817493 33.4387722 C214.18204565 33.40205355 195.89593521 33.37374106 177.6097765 33.35674095 C176.48253123 33.35569006 175.35528597 33.35463916 174.19388176 33.35355642 C168.53879738 33.34833626 162.88371287 33.34328143 157.22862828 33.33830881 C110.31746233 33.29684507 63.40637202 33.22639511 16.49527454 33.13701439 C16.49803992 34.37353312 16.5008053 35.61005184 16.50365448 36.88404083 C16.56862454 66.23486449 16.61809434 95.58567181 16.64847053 124.93654955 C16.65222266 128.54894421 16.65610563 132.16133871 16.66006947 135.77373314 C16.6608564 136.49289744 16.66164333 137.21206173 16.66245411 137.95301889 C16.6755089 149.5984365 16.69916314 161.24380969 16.72673293 172.88920094 C16.75478509 184.83797826 16.7714504 196.78673232 16.77754003 208.73554122 C16.78128741 215.44720834 16.79030239 222.15878282 16.81246471 228.87041664 C16.83280198 235.18552216 16.83911387 241.50048526 16.83459759 247.81562042 C16.83542402 250.13519057 16.84140596 252.45476539 16.85289097 254.77430725 C16.86779158 257.9384457 16.86423671 261.10204466 16.85603809 264.2661953 C16.86477662 265.18643679 16.87351514 266.10667828 16.88251847 267.05480587 C16.84661299 272.17296869 16.3573744 275.71385306 13.49527454 280.13701439 C9.34966368 284.19050057 5.51782688 287.07239507 -0.45003796 287.16826439 C-6.66496122 286.69564665 -10.62941085 284.21506571 -14.81722546 279.57451439 C-17.14069021 276.21839863 -17.62985609 273.69176415 -17.63615322 269.71129036 C-17.63999437 268.80046786 -17.64383551 267.88964536 -17.64779305 266.95122218 C-17.64692657 265.94919804 -17.64606009 264.9471739 -17.64516735 263.91478539 C-17.64813847 262.85135391 -17.6511096 261.78792243 -17.65417075 260.69226575 C-17.66287704 257.11101524 -17.66436763 253.52979809 -17.66585827 249.94853783 C-17.67048508 247.38805634 -17.67550955 244.82757555 -17.68090343 242.26709557 C-17.69404272 235.29801694 -17.70051195 228.32894933 -17.70491409 221.35986042 C-17.7076763 217.00838855 -17.71191363 212.6569189 -17.71641827 208.30544853 C-17.72861162 196.25789466 -17.73891056 184.21034258 -17.74229336 172.16278267 C-17.74251292 171.39160243 -17.74273249 170.62042219 -17.74295871 169.82587285 C-17.74317699 169.05284394 -17.74339527 168.27981503 -17.74362016 167.48336101 C-17.74406362 165.91690302 -17.74451019 164.35044503 -17.74495983 162.78398705 C-17.74518126 162.00696927 -17.74540269 161.22995149 -17.74563083 160.42938772 C-17.7495783 147.84072037 -17.76703044 135.25211093 -17.79031935 122.66346595 C-17.81403584 109.73938303 -17.82649536 96.81532917 -17.82766128 83.89122415 C-17.82857791 76.63463898 -17.8343272 69.37812925 -17.85248089 62.12156487 C-17.86949638 55.29588803 -17.87113225 48.47035659 -17.86234188 41.64466476 C-17.86156982 39.13845944 -17.86593631 36.63224652 -17.87580013 34.12606049 C-17.88847103 30.70626131 -17.88266878 27.28697334 -17.87221813 23.86717796 C-17.88027454 22.87407671 -17.88833094 21.88097545 -17.89663148 20.85778022 C-17.85172022 14.57923227 -17.29308403 9.30141114 -12.96956921 4.39482689 C-8.13622105 0.80999066 -6.01192783 0.01151681 0 0 Z " fill="#A0A0A0" transform="translate(106.5047254562378,-0.13701438903808594)"/>
<path d="M0 0 C1.72527298 -0.00514177 3.45054071 -0.01242498 5.17579651 -0.02168274 C9.84938806 -0.04017089 14.52240791 -0.02727513 19.19597554 -0.00759244 C24.09122313 0.00881412 28.98643509 -0.00002151 33.88169861 -0.00511169 C42.1005871 -0.00962998 50.31924781 0.00622181 58.53808594 0.03417969 C68.03639029 0.06624103 77.53428409 0.06621085 87.03261763 0.04896492 C96.17631742 0.03309539 105.31986688 0.03983545 114.4635601 0.05690193 C118.3522079 0.06376942 122.24073509 0.06274311 126.12938118 0.05535698 C130.70878308 0.04768968 135.28771829 0.05983471 139.86704063 0.08720589 C141.5464095 0.09408574 143.22582199 0.09419195 144.90518951 0.08699036 C147.20005291 0.07828408 149.49347981 0.09426933 151.78822327 0.11643982 C153.0714853 0.11924674 154.35474733 0.12205366 155.6768961 0.12494564 C161.01077124 0.90356648 164.07049144 3.29252993 167.39379883 7.43530273 C169.28552553 10.8889572 170.24781652 13.93404048 171.15209961 17.76391602 C171.31931519 18.45759781 171.48653076 19.1512796 171.65881348 19.86598206 C172.20811705 22.15993076 172.73932433 24.45761557 173.26928711 26.75610352 C173.65060671 28.37711302 174.03262043 29.99795939 174.4152832 31.61865234 C175.23357646 35.09617773 176.042949 38.57564721 176.84741211 42.05639648 C177.96450102 46.87918838 179.1133522 51.69390493 180.26931763 56.50750732 C181.21858142 60.47312526 182.15307574 64.44212867 183.08416748 68.41204834 C183.53773854 70.33628062 183.99620846 72.25936531 184.45977783 74.18121338 C185.11214607 76.89423966 185.74377955 79.61135297 186.37084961 82.33032227 C186.56618286 83.12378555 186.76151611 83.91724884 186.96276855 84.73475647 C188.42642535 91.23576907 188.94661817 98.25483597 185.72631836 104.28735352 C179.36604683 110.9143914 179.36604683 110.9143914 174.14428711 111.63110352 C167.85785982 111.68254727 162.90634597 111.05301531 158.14428711 106.63110352 C153.87529251 99.50677431 152.28921045 91.88388249 150.47241211 83.84985352 C150.14271065 82.42618629 149.81210891 81.00272729 149.48065186 79.57946777 C148.61686598 75.8596072 147.76522304 72.13707175 146.91619873 68.41381836 C146.04521013 64.60432546 145.16260047 60.7975282 144.28100586 56.99047852 C142.55747144 49.53992331 140.84677429 42.08649963 139.14428711 34.63110352 C136.50428711 34.30110352 133.86428711 33.97110352 131.14428711 33.63110352 C131.31516846 34.66025879 131.31516846 34.66025879 131.48950195 35.71020508 C133.07551529 45.60503455 134.27305508 55.53642236 135.43139648 65.48901367 C135.77031682 68.38991705 136.11733372 71.28978257 136.46459961 74.18969727 C136.68384442 76.0607331 136.90261112 77.93182504 137.12084961 79.80297852 C137.2239444 80.65631775 137.32703918 81.50965698 137.43325806 82.38885498 C139.29009795 98.61299101 139.29009795 98.61299101 135.14428711 104.63110352 C131.67996488 108.73055149 128.52106133 110.94069145 123.14428711 111.69360352 C117.76671589 111.8972994 113.68563491 110.9119016 109.57441711 107.22218323 C105.2738672 102.57000656 104.07124477 98.81951915 103.43725586 92.59594727 C103.32866745 91.73106186 103.22007904 90.86617645 103.10820007 89.9750824 C102.88063996 88.1359254 102.66454128 86.2953187 102.45916748 84.45355225 C102.14655992 81.65147601 101.80343937 78.85474858 101.45141602 76.05737305 C100.86870276 71.38288978 100.31784452 66.7054312 99.78173828 62.02539062 C99.45095048 59.14274023 99.11333923 56.26094051 98.77514648 53.37915039 C98.56055629 51.52698286 98.3463486 49.67477096 98.13256836 47.82250977 C98.03261063 46.97048477 97.93265289 46.11845978 97.82966614 45.24061584 C97.38757829 41.34897738 97.01838643 37.5559202 97.14428711 33.63110352 C94.17428711 33.63110352 91.20428711 33.63110352 88.14428711 33.63110352 C88.15316956 34.42766357 88.162052 35.22422363 88.17120361 36.04492188 C88.25158115 43.57706156 88.3123684 51.10899128 88.3515358 58.64144897 C88.37234967 62.51335042 88.40055221 66.38489544 88.44604492 70.2565918 C88.4897264 73.9978482 88.51347078 77.73876326 88.52379608 81.48025513 C88.53114775 82.90273405 88.54550349 84.32519574 88.56720734 85.74752808 C88.68479468 93.77785145 88.66656476 99.83633491 84.14428711 106.63110352 C80.05882658 110.42474543 76.10853394 111.4515126 70.67553711 111.79516602 C65.23729601 111.44268743 61.50032365 109.02282523 57.76928711 105.19360352 C54.76952279 100.46320594 53.8951439 96.78890597 53.91723633 91.18847656 C53.91738739 89.90752609 53.91753845 88.62657562 53.91769409 87.30680847 C53.92790581 85.91881147 53.93833777 84.53081607 53.94897461 83.14282227 C53.95270761 81.71507465 53.95555323 80.28732446 53.95755005 78.85957336 C53.96516393 75.11291353 53.98479292 71.36641025 54.00695801 67.61981201 C54.02746497 63.79221718 54.03656211 59.9645969 54.04663086 56.13696289 C54.06804111 48.63493861 54.1021497 41.13304305 54.14428711 33.63110352 C51.17428711 33.63110352 48.20428711 33.63110352 45.14428711 33.63110352 C45.10400391 34.49026367 45.0637207 35.34942383 45.0222168 36.23461914 C44.37787771 48.12588174 43.15260505 59.93332471 41.7800293 71.76098633 C41.52134034 74.02107642 41.27143885 76.28218843 41.0300293 78.54418945 C40.67614884 81.85693025 40.29597888 85.16572776 39.90991211 88.47485352 C39.80761292 89.47705933 39.70531372 90.47926514 39.59991455 91.51184082 C38.69830338 98.85346499 36.59281154 104.57669616 30.95678711 109.56860352 C26.02956174 111.42999977 21.0162535 112.46078269 15.85913086 110.97094727 C10.56961258 108.5288706 7.35847545 105.42248496 5.00756836 100.01782227 C3.93050385 95.79241536 4.23465539 92.09242199 4.70678711 87.81860352 C4.84189697 86.46774658 4.84189697 86.46774658 4.97973633 85.08959961 C6.76576631 67.90903693 8.99980593 50.76979707 11.14428711 33.63110352 C8.50428711 33.63110352 5.86428711 33.63110352 3.14428711 33.63110352 C2.9193457 34.72132813 2.6944043 35.81155273 2.46264648 36.93481445 C-0.09341663 49.24327791 -2.80593671 61.51250684 -5.63745117 73.76049805 C-6.12098974 75.8613104 -6.5997428 77.96322933 -7.07397461 80.06616211 C-7.7716058 83.15812068 -8.4839043 86.24637607 -9.19946289 89.33422852 C-9.4068811 90.26656311 -9.61429932 91.19889771 -9.82800293 92.15948486 C-11.39724367 98.82349058 -13.26760946 104.28948613 -18.48071289 109.00610352 C-23.56506115 111.45412305 -28.60326969 112.57787636 -34.13696289 110.96704102 C-39.14250627 108.66972073 -42.36660038 105.60932854 -44.85571289 100.63110352 C-45.80213544 90.27887978 -43.66773175 80.680884 -41.27758789 70.70922852 C-40.90502988 69.11292345 -40.5334879 67.51638095 -40.16290283 65.9196167 C-39.38834536 62.59615757 -38.60412405 59.27518665 -37.81225586 55.95581055 C-36.80328877 51.72447076 -35.81518526 47.48859642 -34.83381271 43.25078201 C-34.07035453 39.96154728 -33.29777844 36.67450777 -32.52231598 33.38808441 C-32.15482781 31.82748864 -31.78965741 30.26634501 -31.42696381 28.70462799 C-26.19202237 6.24538337 -26.19202237 6.24538337 -19.37057304 1.65312767 C-13.38548655 -0.77917576 -6.36496602 -0.04806326 0 0 Z " fill="#A0A0A0" transform="translate(44.855712890625,295.368896484375)"/>
<path d="M0 0 C3.61797809 2.52417076 6.82916039 5.39552326 8.31712341 9.69378662 C8.78311697 12.4381053 8.80687536 15.05232682 8.80102539 17.83691406 C8.80090454 19.05459473 8.80078369 20.27227539 8.80065918 21.52685547 C8.79554321 22.80189941 8.79042725 24.07694336 8.78515625 25.390625 C8.78414917 26.56608887 8.78314209 27.74155273 8.78210449 28.95263672 C8.77687264 33.3434344 8.76291138 37.73421818 8.75 42.125 C8.7190625 56.85125 8.7190625 56.85125 8.6875 71.875 C47.2975 71.875 85.9075 71.875 125.6875 71.875 C125.52933747 51.74075099 125.52933747 51.74075099 125.32714844 31.60693359 C125.31546382 29.07910843 125.30527146 26.55127573 125.296875 24.0234375 C125.27641113 22.71544189 125.25594727 21.40744629 125.23486328 20.05981445 C125.23045347 8.58327668 125.23045347 8.58327668 129.6875 3.875 C134.9135477 -0.72889916 137.9949573 -1.4882859 144.859375 -1.3984375 C149.24011717 -0.97488508 151.22381339 0.11818821 154.6875 2.875 C158.34301708 8.17050848 159.27377951 11.91183356 159.20507812 18.26953125 C159.2120874 19.07860931 159.21909668 19.88768738 159.22631836 20.72128296 C159.24382258 23.37704507 159.23230304 26.03172838 159.21875 28.6875 C159.2214471 30.54402876 159.22533134 32.40055614 159.23034668 34.25708008 C159.23623146 38.14059958 159.22771175 42.02375009 159.20898438 45.90722656 C159.1861954 50.87379836 159.19932397 55.83950542 159.22327423 60.80604553 C159.23775985 64.63747621 159.23311357 68.46870342 159.22276306 72.30014038 C159.22010341 74.13089095 159.22333863 75.96166026 159.23268127 77.79238892 C159.24289265 80.35557671 159.22728288 82.91738327 159.20507812 85.48046875 C159.21317505 86.22976654 159.22127197 86.97906433 159.22961426 87.75106812 C159.14624505 92.97154373 158.07605625 96.82111248 154.6875 100.875 C148.23466915 106.46409904 140.20517285 105.43892591 132.11694336 105.39257812 C130.52960062 105.39800302 128.94226291 105.40512774 127.35493469 105.41381836 C123.05743647 105.43200962 118.76032357 105.42500206 114.46281886 105.41230202 C109.95994854 105.4021543 105.45711055 105.41157245 100.95423889 105.41784668 C93.39448134 105.42511718 85.83488027 105.4155503 78.27514648 105.39648438 C69.54028383 105.37470887 60.80579455 105.38177426 52.07094091 105.40379 C44.56415392 105.42195164 37.05747922 105.42449883 29.55067736 105.41403532 C25.07027699 105.4078056 20.59005205 105.40695054 16.10966301 105.42018127 C11.89797322 105.43175061 7.68676421 105.42369455 3.47512627 105.40060425 C1.93120623 105.39532324 0.38724562 105.39682057 -1.15665817 105.40565491 C-3.26762512 105.41661886 -5.37706044 105.4028398 -7.4879303 105.38293457 C-8.66795152 105.38142647 -9.84797274 105.37991837 -11.06375217 105.37836456 C-16.39071624 104.55299889 -19.43094806 102.04246067 -22.625 97.8125 C-25.26487614 93.21716005 -25.47034726 89.48013824 -25.48950195 84.31762695 C-25.49607315 83.54975357 -25.50264435 82.78188019 -25.50941467 81.99073792 C-25.52913173 79.44825133 -25.54080817 76.90582385 -25.55078125 74.36328125 C-25.55485678 73.49341269 -25.5589323 72.62354412 -25.56313133 71.7273159 C-25.58398767 67.12102878 -25.59828993 62.51477139 -25.60766602 57.90844727 C-25.61871519 53.16166218 -25.65309894 48.41534784 -25.69283772 43.66872883 C-25.71904641 40.00973163 -25.72736173 36.35084573 -25.73094749 32.69176292 C-25.73580434 30.9427492 -25.74739254 29.19374014 -25.76598549 27.4448185 C-25.79046284 24.9892874 -25.78939646 22.5349627 -25.7824707 20.0793457 C-25.79528076 19.36476196 -25.80809082 18.65017822 -25.82128906 17.91394043 C-25.76627543 12.52815015 -24.25778561 8.38994396 -21.3125 3.875 C-15.2305694 -1.91025106 -7.83999917 -2.66264123 0 0 Z " fill="#A0A0A0" transform="translate(48.3125,407.125)"/>
<path d="M0 0 C0.69661733 -0.00297112 1.39323467 -0.00594224 2.11096162 -0.0090034 C4.45079213 -0.01769152 6.79057149 -0.01919874 9.13041687 -0.02069092 C10.80583302 -0.02531901 12.48124812 -0.03034366 14.15666199 -0.03573608 C18.71252663 -0.04886291 23.26837653 -0.05530559 27.82425714 -0.05974674 C30.67014467 -0.062677 33.51602817 -0.06678172 36.36191368 -0.07125092 C45.26476406 -0.08492657 54.16760523 -0.0945929 63.07046539 -0.09845281 C73.34987537 -0.10293392 83.6291524 -0.12048399 93.90852195 -0.1494534 C101.85256228 -0.17106476 109.7965652 -0.1811568 117.74063462 -0.18249393 C122.48600923 -0.18354234 127.23125888 -0.18945795 131.97660255 -0.20731354 C136.44092724 -0.22378479 140.9050329 -0.22595434 145.36937714 -0.21717453 C147.00683618 -0.21640365 148.64430695 -0.22075363 150.28173637 -0.23063278 C152.51962794 -0.2433416 154.75674253 -0.23748187 156.99462891 -0.22705078 C158.87200729 -0.22925062 158.87200729 -0.22925062 160.78731251 -0.2314949 C165.18978367 0.25003778 168.57746084 1.63721309 171.83232117 4.67559814 C176.41127808 10.66346488 176.92228191 14.65069254 176.18778992 22.14044189 C174.47945742 27.48996309 171.05734922 30.50276394 166.18778992 33.14044189 C162.61389511 34.34105799 159.16998647 34.27172271 155.42063904 34.28088379 C154.74091262 34.28385491 154.0611862 34.28682603 153.36086202 34.28988719 C151.08408329 34.29855603 148.80735727 34.3000809 146.53056335 34.30157471 C144.89765308 34.30620419 143.26474388 34.31122903 141.63183594 34.31661987 C137.19572712 34.32973389 132.75963343 34.33618696 128.32350826 34.34063053 C125.55080144 34.34356305 122.77809873 34.34766821 120.00539398 34.3521347 C111.32679601 34.36580741 102.64820748 34.37547501 93.96959949 34.3793366 C83.95793039 34.38381603 73.94639791 34.40135955 63.93477035 34.43033719 C56.19195074 34.45196853 48.44916954 34.46204166 40.70632005 34.46337771 C36.08385607 34.46442476 31.46152055 34.47031112 26.83908844 34.48819733 C22.48883043 34.50470297 18.13879711 34.50682144 13.78851891 34.49805832 C12.19543798 34.49728926 10.60234484 34.50161332 9.00929451 34.51151657 C-9.03722666 34.61708766 -9.03722666 34.61708766 -14.35034561 29.72386551 C-18.80478136 24.68353549 -19.1616091 20.32412345 -19.09346008 13.86700439 C-18.56683829 8.76169865 -15.92058361 6.14068142 -12.24971008 2.82794189 C-8.13493687 -0.02074725 -4.89375648 0.01164159 0 0 Z " fill="#9F9F9F" transform="translate(159.8122100830078,119.85955810546875)"/>
<path d="M0 0 C0.70393001 -0.00367669 1.40786003 -0.00735338 2.13312125 -0.01114148 C4.50369212 -0.02219852 6.87421919 -0.02602557 9.24481201 -0.02983093 C10.93978516 -0.03609408 12.63475692 -0.04274075 14.32972717 -0.04974365 C18.94349604 -0.06716767 23.55725453 -0.07770933 28.17104816 -0.08594918 C31.05260969 -0.0910966 33.93416799 -0.09717246 36.81572723 -0.10346031 C45.82856935 -0.1225167 54.84140324 -0.13674662 63.85426164 -0.14507228 C74.26333085 -0.15484597 84.67218747 -0.18116704 95.08118176 -0.22157317 C103.12286475 -0.25172004 111.16448675 -0.26653981 119.20622516 -0.26985329 C124.01090336 -0.27220551 128.81535457 -0.28118802 133.61997223 -0.30631447 C138.14096152 -0.3295751 142.66157406 -0.33383656 147.18260765 -0.32355309 C148.84103586 -0.32305712 150.49948249 -0.32939559 152.15785408 -0.34310913 C154.42445395 -0.36080191 156.68969792 -0.35373612 158.95629883 -0.34057617 C160.22393192 -0.34296453 161.49156502 -0.34535288 162.79761124 -0.34781361 C168.04519975 0.4084745 171.09870345 2.86059382 174.5446167 6.77217102 C178.03246078 11.68098861 177.80163276 16.25674775 177.2321167 22.14717102 C175.71397528 27.1588668 172.71673815 29.85077 168.15798283 32.33051968 C165.05191908 33.64762635 162.2194612 33.65109692 158.86968994 33.65510559 C158.16219337 33.66134555 157.4546968 33.66758552 156.72576094 33.67401457 C154.37271522 33.68987446 152.02071559 33.67736886 149.66766357 33.66474915 C147.97357075 33.67017341 146.27948265 33.67729779 144.58540344 33.68598938 C139.99653316 33.70418948 135.40802351 33.69716894 130.81914711 33.68447304 C126.01111523 33.67432818 121.2031137 33.68374284 116.39508057 33.6900177 C108.32166006 33.69728978 100.24838604 33.68771794 92.17498779 33.6686554 C82.84825828 33.6468875 73.52187856 33.65393918 64.19515753 33.67596102 C56.1796563 33.69412754 48.16426023 33.69666721 40.14874506 33.68620634 C35.36482671 33.6799783 30.58107264 33.6791168 25.79716492 33.69235229 C21.29903267 33.70392841 16.8013503 33.69585301 12.30326653 33.67277527 C10.65494978 33.66749757 9.00659502 33.66898588 7.35829353 33.67782593 C5.10320343 33.6888029 2.84954314 33.67499419 0.59454346 33.65510559 C-0.66567375 33.65359749 -1.92589096 33.65208939 -3.22429657 33.65053558 C-8.89822076 32.84455775 -12.5863163 30.63170392 -16.2053833 26.08467102 C-18.5693492 21.33627199 -18.5401041 16.31091012 -17.7678833 11.14717102 C-13.84997237 3.16624135 -8.56388794 0.02890522 0 0 Z " fill="#9F9F9F" transform="translate(158.76788330078125,240.8528289794922)"/>
<path d="M0 0 C5.29390075 2.73822452 8.0889348 6.76680439 9.9375 12.3125 C10.58587591 18.92593426 8.68624404 23.76482012 4.66599274 28.95357704 C3.2508567 30.51995818 1.78826238 32.01420475 0.28613281 33.49731445 C-0.26730804 34.05937088 -0.8207489 34.62142731 -1.39096069 35.20051575 C-3.20377634 37.03583661 -5.03073322 38.85623857 -6.859375 40.67578125 C-8.1353783 41.95702614 -9.4108622 43.23878848 -10.68585205 44.52104187 C-13.35232402 47.19788899 -16.02609636 49.86716893 -18.70507812 52.53149414 C-22.12769511 55.93690949 -25.5295196 59.36227688 -28.92591476 62.79382038 C-31.5525627 65.44248344 -34.19086442 68.07929277 -36.83267975 70.71282005 C-38.09151383 71.97083725 -39.3465406 73.23267682 -40.59755707 74.4984684 C-42.35108476 76.26952151 -44.1199719 78.02371886 -45.89355469 79.7746582 C-46.40085114 80.29364685 -46.90814758 80.8126355 -47.43081665 81.34735107 C-51.75407312 85.55969483 -56.4186929 87.83289778 -62.49609375 88.6328125 C-73.21335452 87.58824517 -80.71321401 78.01039501 -87.92114258 70.76953125 C-89.38176939 69.30571583 -90.8553416 67.85583371 -92.33007812 66.40625 C-103.28385323 55.53207846 -103.28385323 55.53207846 -104.59375 48.43359375 C-104.52538652 42.56287968 -104.1630088 38.85630705 -100.0625 34.3125 C-95.87070014 30.61972393 -93.43415508 29.1456882 -87.875 29 C-86.95332031 28.96261719 -86.03164063 28.92523438 -85.08203125 28.88671875 C-77.99316943 29.88631246 -73.35989434 34.5959107 -68.625 39.5625 C-68.08423828 40.11679688 -67.54347656 40.67109375 -66.98632812 41.2421875 C-65.67131791 42.59210949 -64.36587464 43.95134028 -63.0625 45.3125 C-59.63212282 43.83642298 -57.43917715 41.91731689 -54.83227539 39.26171875 C-54.00784439 38.42745361 -53.18341339 37.59318848 -52.33399963 36.73364258 C-51.45163132 35.83154053 -50.569263 34.92943848 -49.66015625 34 C-48.26261298 32.58726245 -46.86506095 31.17453344 -45.46699429 29.76231384 C-42.02487171 26.28193384 -38.59409219 22.79038313 -35.16430664 19.29785156 C-33.2377636 17.33682203 -31.30721261 15.37989365 -29.37242126 13.42700195 C-27.55162712 11.58833499 -25.73722921 9.74330725 -23.9299469 7.89135742 C-22.68857216 6.63995972 -22.68857216 6.63995972 -21.42211914 5.36328125 C-20.69916153 4.62762939 -19.97620392 3.89197754 -19.2313385 3.1340332 C-13.8624361 -1.37512411 -6.6029415 -2.2009805 0 0 Z " fill="#A0A0A0" transform="translate(451.0625,89.6875)"/>
<path d="M0 0 C5.29390075 2.73822452 8.0889348 6.76680439 9.9375 12.3125 C10.58598504 18.92704745 8.68331869 23.76061963 4.66884804 28.95357704 C3.2579771 30.51970614 1.79970314 32.01405573 0.30200195 33.49731445 C-0.24983261 34.05937088 -0.80166718 34.62142731 -1.370224 35.20051575 C-3.17809969 37.03595186 -5.00020414 38.85639291 -6.82421875 40.67578125 C-8.09775266 41.9571004 -9.37084208 43.23886149 -10.64350891 44.52104187 C-13.30562992 47.19803643 -15.97530313 49.86721413 -18.65014648 52.53149414 C-22.06548327 55.93523317 -25.45752177 59.36118549 -28.84378338 62.79382038 C-31.4645415 65.4441322 -34.09911987 68.08036457 -36.73780251 70.71282005 C-37.99391461 71.96995413 -39.24534969 73.23178059 -40.49182701 74.4984684 C-53.72687504 87.9216546 -53.72687504 87.9216546 -61.0625 88.3125 C-67.80001046 88.16335657 -72.12131853 86.16605323 -76.87060547 81.46206665 C-77.49080566 80.80685028 -78.11100586 80.15163391 -78.75 79.4765625 C-79.41918457 78.8008017 -80.08836914 78.12504089 -80.77783203 77.42880249 C-82.89219557 75.28315791 -84.97657494 73.1107608 -87.0625 70.9375 C-88.49173978 69.485255 -89.92271516 68.03471596 -91.35546875 66.5859375 C-92.71771788 65.19685243 -94.07845002 63.8062777 -95.4375 62.4140625 C-96.39209106 61.43731064 -96.39209106 61.43731064 -97.3659668 60.44082642 C-98.24828979 59.51999771 -98.24828979 59.51999771 -99.1484375 58.58056641 C-99.6645459 58.04476959 -100.1806543 57.50897278 -100.71240234 56.9569397 C-104.33866929 52.54009082 -104.48984827 48.55840316 -104.37890625 43.00390625 C-103.7794643 37.90494941 -101.15591652 35.27574789 -97.4375 32 C-94.00527208 29.56131174 -92.05946543 29.10966185 -87.875 29 C-86.95332031 28.96261719 -86.03164063 28.92523438 -85.08203125 28.88671875 C-77.99316943 29.88631246 -73.35989434 34.5959107 -68.625 39.5625 C-68.08423828 40.11679688 -67.54347656 40.67109375 -66.98632812 41.2421875 C-65.67131791 42.59210949 -64.36587464 43.95134028 -63.0625 45.3125 C-59.63212282 43.83642298 -57.43917715 41.91731689 -54.83227539 39.26171875 C-54.00784439 38.42745361 -53.18341339 37.59318848 -52.33399963 36.73364258 C-51.45163132 35.83154053 -50.569263 34.92943848 -49.66015625 34 C-48.26261298 32.58726245 -46.86506095 31.17453344 -45.46699429 29.76231384 C-42.02487171 26.28193384 -38.59409219 22.79038313 -35.16430664 19.29785156 C-33.2377636 17.33682203 -31.30721261 15.37989365 -29.37242126 13.42700195 C-27.55162712 11.58833499 -25.73722921 9.74330725 -23.9299469 7.89135742 C-22.68857216 6.63995972 -22.68857216 6.63995972 -21.42211914 5.36328125 C-20.69916153 4.62762939 -19.97620392 3.89197754 -19.2313385 3.1340332 C-13.8624361 -1.37512411 -6.6029415 -2.2009805 0 0 Z " fill="#A0A0A0" transform="translate(451.0625,212.6875)"/>
<path d="M0 0 C5.24733852 2.72589014 8.03516157 6.8164222 9.8671875 12.3125 C10.51542739 18.92454692 8.62416059 23.77974089 4.58425903 28.95643234 C3.15200907 30.52790673 1.67207448 32.02619392 0.15234375 33.51318359 C-0.40752228 34.07684631 -0.96738831 34.64050903 -1.54421997 35.22125244 C-3.37665879 37.0610337 -5.22297521 38.88612644 -7.0703125 40.7109375 C-8.35611771 41.99435538 -9.64118105 43.27851691 -10.92553711 44.56338501 C-13.60925514 47.24398631 -16.29952237 49.917769 -18.99511719 52.58642578 C-22.44872114 56.00594879 -25.88890967 59.43859331 -29.32475281 62.87595177 C-31.97328791 65.52394313 -34.62700224 68.16669114 -37.28250122 70.8076973 C-38.55314265 72.07198085 -39.82258209 73.33747364 -41.09078979 74.60419846 C-42.86154912 76.37061998 -44.6387383 78.1303002 -46.41796875 79.88818359 C-46.9396463 80.41076752 -47.46132385 80.93335144 -47.99880981 81.47177124 C-52.60028476 85.99277192 -55.56445554 87.60552345 -62.0078125 87.6875 C-63.01585937 87.71585937 -64.02390625 87.74421875 -65.0625 87.7734375 C-71.66858891 86.78168369 -76.24611076 81.49669034 -80.7734375 76.9375 C-81.38169373 76.33115723 -81.98994995 75.72481445 -82.61663818 75.10009766 C-83.89304247 73.82504718 -85.16695342 72.54749629 -86.43847656 71.26757812 C-88.38386455 69.31144214 -90.3397433 67.36625346 -92.296875 65.421875 C-93.53970458 64.17772441 -94.78191394 62.93295387 -96.0234375 61.6875 C-96.60675842 61.10822754 -97.19007935 60.52895508 -97.79107666 59.93212891 C-102.19443508 55.47746381 -104.41744144 52.38999388 -104.5078125 45.9375 C-104.40765308 40.92285171 -103.57539054 38.12724864 -100.1328125 34.3125 C-95.94101264 30.61972393 -93.50446758 29.1456882 -87.9453125 29 C-87.02363281 28.96261719 -86.10195313 28.92523438 -85.15234375 28.88671875 C-78.06348193 29.88631246 -73.43020684 34.5959107 -68.6953125 39.5625 C-68.15455078 40.11679687 -67.61378906 40.67109375 -67.05664062 41.2421875 C-65.74163041 42.59210949 -64.43618714 43.95134028 -63.1328125 45.3125 C-59.70194827 43.83536929 -57.49984405 41.912585 -54.88671875 39.26171875 C-54.05906006 38.42745361 -53.23140137 37.59318848 -52.37866211 36.73364258 C-51.49315674 35.83154053 -50.60765137 34.92943848 -49.6953125 34 C-48.29420721 32.58732448 -46.89309631 31.17465447 -45.49165344 29.76231384 C-43.0344423 27.2832516 -40.58383204 24.79768149 -38.1328125 22.3125 C-35.2083755 19.34730262 -32.28282719 16.3832748 -29.34936523 13.42700195 C-27.52386968 11.58643159 -25.70291452 9.74134472 -23.88696289 7.89135742 C-23.0593042 7.05709229 -22.23164551 6.22282715 -21.37890625 5.36328125 C-20.65372803 4.62762939 -19.9285498 3.89197754 -19.18139648 3.1340332 C-13.80481216 -1.64664796 -6.7856102 -2.18730292 0 0 Z " fill="#9F9F9F" transform="translate(451.1328125,335.6875)"/>
<path d="M0 0 C0.66204437 -0.0065712 1.32408875 -0.0131424 2.00619507 -0.01991272 C4.20180372 -0.03965509 6.39734381 -0.05131267 8.59301758 -0.0612793 C9.71903098 -0.06739259 9.71903098 -0.06739259 10.86779213 -0.07362938 C14.84398753 -0.09449796 18.82014838 -0.10879406 22.79638672 -0.11816406 C26.89427239 -0.12920712 30.99161184 -0.16357973 35.08930492 -0.20333576 C38.24728875 -0.2295491 41.40514365 -0.23786023 44.5632267 -0.24144554 C46.07303859 -0.24630239 47.58284506 -0.25789068 49.09255028 -0.27648354 C63.84574526 -0.44682653 63.84574526 -0.44682653 69.55004883 4.17700195 C73.52136047 9.16659863 74.18850342 13.25426569 73.93676758 19.59106445 C73.18647782 24.60815357 70.61067918 27.24263712 66.92504883 30.48950195 C63.06934667 33.2290798 60.90626371 33.3108899 56.17602539 33.33813477 C55.19517975 33.34558212 55.19517975 33.34558212 54.19451904 33.35317993 C52.02655999 33.36780943 49.85867418 33.37460601 47.69067383 33.38012695 C46.18332924 33.38587926 44.67598468 33.39163698 43.16864014 33.3973999 C40.00443175 33.40791316 36.84024879 33.4137532 33.67602539 33.41723633 C29.62970558 33.42271145 25.58372391 33.44671675 21.53750992 33.47520828 C18.4216007 33.49387537 15.30577211 33.49904249 12.18981171 33.5005722 C10.69872953 33.50359181 9.20764855 33.51159695 7.7166214 33.52475739 C5.62470693 33.54189826 3.53360745 33.53991829 1.44165039 33.53344727 C0.25299377 33.5370929 -0.93566284 33.54073853 -2.16033936 33.54449463 C-7.0544142 32.99776244 -10.3244443 31.36503698 -13.69995117 27.80200195 C-16.98140799 22.87981673 -18.05612875 19.13774814 -17.44995117 13.17700195 C-14.39367748 4.35510923 -9.34331027 0.07663367 0 0 Z " fill="#A0A0A0" transform="translate(262.449951171875,361.822998046875)"/>
</svg>
