<?xml version="1.0" encoding="UTF-8"?>
<svg version="1.1" xmlns="http://www.w3.org/2000/svg" width="717" height="717">
<path d="M0 0 C236.61 0 473.22 0 717 0 C717 236.61 717 473.22 717 717 C480.39 717 243.78 717 0 717 C0 480.39 0 243.78 0 0 Z " fill="#396793" transform="translate(0,0)"/>
<path d="M0 0 C1.03439713 -0.00315216 2.06879425 -0.00630432 3.13453674 -0.009552 C4.2502153 -0.00752777 5.36589386 -0.00550354 6.51538086 -0.00341797 C7.66058701 -0.00437469 8.80579315 -0.00533142 9.98570251 -0.00631714 C12.40746109 -0.00699794 14.82922149 -0.00515062 17.25097656 -0.00097656 C20.96871005 0.00437795 24.68632299 -0.00092749 28.40405273 -0.00732422 C30.75366238 -0.00666352 33.10327194 -0.00538252 35.45288086 -0.00341797 C37.12943504 -0.00645432 37.12943504 -0.00645432 38.83985901 -0.009552 C39.87110397 -0.00639984 40.90234894 -0.00324768 41.96484375 0 C42.87512833 0.00079559 43.7854129 0.00159119 44.72328186 0.00241089 C46.91772461 0.12939453 46.91772461 0.12939453 48.91772461 1.12939453 C51.30031289 1.43817324 53.67782345 1.71052682 56.06616211 1.96533203 C64.40383113 2.93741532 72.40932307 4.6640152 80.54272461 6.75439453 C81.57854172 7.01766541 81.57854172 7.01766541 82.63528442 7.28625488 C124.55099671 17.99633025 161.03147717 38.26407899 193.37475586 66.77001953 C194.83095537 68.05294974 196.29595056 69.3258764 197.76147461 70.59814453 C202.92530183 75.1398239 207.5121944 79.85914249 211.91772461 85.12939453 C212.72725586 86.05107422 213.53678711 86.97275391 214.37084961 87.92236328 C238.16063324 115.13787576 257.93723645 148.9830295 266.91772461 184.12939453 C267.40499023 185.840625 267.40499023 185.840625 267.90209961 187.58642578 C270.66345811 197.38924844 272.58530555 207.28727265 274.38696289 217.30444336 C274.69718415 218.95557958 275.02900934 220.60342354 275.41297913 222.23898315 C276.93817013 229.01893943 277.19434161 235.47734617 277.14819336 242.41064453 C277.14750603 244.1135968 277.14750603 244.1135968 277.14680481 245.85095215 C277.14380253 248.2308864 277.13597762 250.61081904 277.12353516 252.99072266 C277.10513908 256.64639164 277.10302673 260.30180882 277.10327148 263.95751953 C277.09836074 266.27523007 277.09253437 268.59293889 277.08569336 270.91064453 C277.08458054 272.00638794 277.08346771 273.10213135 277.08232117 274.2310791 C277.07594131 275.23973022 277.06956146 276.24838135 277.06298828 277.28759766 C277.05917648 278.1767688 277.05536469 279.06593994 277.05143738 279.98205566 C276.91772461 282.12939453 276.91772461 282.12939453 275.91772461 284.12939453 C275.62338245 286.14955582 275.33367893 288.17051897 275.06933594 290.19482422 C268.13565545 342.5293859 245.017082 389.23385217 210.29321289 428.5703125 C209.00304624 430.03268457 207.72366092 431.50454845 206.44506836 432.97705078 C201.905153 438.13993909 197.18651393 442.72508705 191.91772461 447.12939453 C190.99604492 447.93892578 190.07436523 448.74845703 189.12475586 449.58251953 C158.14014002 476.66697394 121.45941839 494.52211843 81.91772461 505.12939453 C80.6944043 505.45810547 79.47108398 505.78681641 78.21069336 506.12548828 C70.7399891 507.97638164 63.15824846 509.06880313 55.54174805 510.12841797 C54.71320313 510.24475586 53.8846582 510.36109375 53.03100586 510.48095703 C52.28633057 510.58230957 51.54165527 510.68366211 50.77441406 510.78808594 C48.83260473 511.05606534 48.83260473 511.05606534 46.91772461 512.12939453 C45.33812441 512.23468443 43.75419936 512.27811839 42.17114258 512.29052734 C40.68721512 512.30493866 40.68721512 512.30493866 39.17330933 512.31964111 C38.09638824 512.32389099 37.01946716 512.32814087 35.90991211 512.33251953 C34.79649445 512.3382196 33.68307678 512.34391968 32.53591919 512.34979248 C30.16694085 512.3592607 27.79794922 512.36578366 25.42895508 512.36962891 C21.85595431 512.37922472 18.28355627 512.4101842 14.71069336 512.44189453 C2.35516367 512.50062831 -9.0580818 512.03574732 -21.08227539 509.12939453 C-23.65197895 508.58873178 -26.2223019 508.05100515 -28.79321289 507.51611328 C-62.28553131 500.17536061 -95.13997576 488.658431 -123.08227539 468.12939453 C-123.68023926 467.69691406 -124.27820313 467.26443359 -124.89428711 466.81884766 C-134.13444388 460.12461234 -142.96977474 453.05532803 -151.52319336 445.50488281 C-152.98556543 444.21471616 -154.45742931 442.93533084 -155.92993164 441.65673828 C-161.09281995 437.11682292 -165.67796791 432.39818386 -170.08227539 427.12939453 C-170.89180664 426.20771484 -171.70133789 425.28603516 -172.53540039 424.33642578 C-199.6198548 393.35180994 -217.47499929 356.67108831 -228.08227539 317.12939453 C-228.41098633 315.90607422 -228.73969727 314.68275391 -229.07836914 313.42236328 C-230.92926249 305.95165902 -232.02168399 298.36991838 -233.08129883 290.75341797 C-233.19763672 289.92487305 -233.31397461 289.09632813 -233.43383789 288.24267578 C-233.53519043 287.49800049 -233.63654297 286.7533252 -233.7409668 285.98608398 C-234.0089462 284.04427466 -234.0089462 284.04427466 -235.08227539 282.12939453 C-235.18756529 280.54979433 -235.23099925 278.96586928 -235.2434082 277.3828125 C-235.25781952 275.89888504 -235.25781952 275.89888504 -235.27252197 274.38497925 C-235.27677185 273.30805817 -235.28102173 272.23113708 -235.28540039 271.12158203 C-235.2939505 269.45145554 -235.2939505 269.45145554 -235.30267334 267.74758911 C-235.31214156 265.37861077 -235.31866452 263.00961914 -235.32250977 260.640625 C-235.33210558 257.06762423 -235.36306506 253.49522619 -235.39477539 249.92236328 C-235.45298168 237.56227103 -234.95276074 226.16367915 -232.08227539 214.12939453 C-231.63328367 211.84962536 -231.19172031 209.56837905 -230.75805664 207.28564453 C-221.10171256 159.3482864 -199.41427624 117.48660314 -166.29321289 81.56298828 C-164.60693943 79.70689576 -163.01039608 77.84424856 -161.45727539 75.87939453 C-158.99497767 73.02831296 -156.41330032 70.6569967 -153.54711914 68.22314453 C-151.70583508 66.6590744 -149.89115207 65.07806643 -148.08618164 63.47314453 C-121.44965265 39.95105262 -89.90037435 22.10703695 -56.08227539 11.12939453 C-55.39810547 10.90203613 -54.71393555 10.67467773 -54.0090332 10.44042969 C-39.99283521 5.86993034 -25.42172701 3.84636703 -10.89111328 1.62255859 C-1.65800475 0.00144784 -1.65800475 0.00144784 0 0 Z " fill="#396793" transform="translate(337.082275390625,101.87060546875)"/>
<path d="M0 0 C1.03439713 -0.00315216 2.06879425 -0.00630432 3.13453674 -0.009552 C4.2502153 -0.00752777 5.36589386 -0.00550354 6.51538086 -0.00341797 C7.66058701 -0.00437469 8.80579315 -0.00533142 9.98570251 -0.00631714 C12.40746109 -0.00699794 14.82922149 -0.00515062 17.25097656 -0.00097656 C20.96871005 0.00437795 24.68632299 -0.00092749 28.40405273 -0.00732422 C30.75366238 -0.00666352 33.10327194 -0.00538252 35.45288086 -0.00341797 C37.12943504 -0.00645432 37.12943504 -0.00645432 38.83985901 -0.009552 C39.87110397 -0.00639984 40.90234894 -0.00324768 41.96484375 0 C42.87512833 0.00079559 43.7854129 0.00159119 44.72328186 0.00241089 C46.91772461 0.12939453 46.91772461 0.12939453 48.91772461 1.12939453 C51.30031289 1.43817324 53.67782345 1.71052682 56.06616211 1.96533203 C64.40383113 2.93741532 72.40932307 4.6640152 80.54272461 6.75439453 C81.57854172 7.01766541 81.57854172 7.01766541 82.63528442 7.28625488 C124.55099671 17.99633025 161.03147717 38.26407899 193.37475586 66.77001953 C194.83095537 68.05294974 196.29595056 69.3258764 197.76147461 70.59814453 C202.92530183 75.1398239 207.5121944 79.85914249 211.91772461 85.12939453 C212.72725586 86.05107422 213.53678711 86.97275391 214.37084961 87.92236328 C238.16063324 115.13787576 257.93723645 148.9830295 266.91772461 184.12939453 C267.40499023 185.840625 267.40499023 185.840625 267.90209961 187.58642578 C270.66345811 197.38924844 272.58530555 207.28727265 274.38696289 217.30444336 C274.69718415 218.95557958 275.02900934 220.60342354 275.41297913 222.23898315 C276.93817013 229.01893943 277.19434161 235.47734617 277.14819336 242.41064453 C277.14750603 244.1135968 277.14750603 244.1135968 277.14680481 245.85095215 C277.14380253 248.2308864 277.13597762 250.61081904 277.12353516 252.99072266 C277.10513908 256.64639164 277.10302673 260.30180882 277.10327148 263.95751953 C277.09836074 266.27523007 277.09253437 268.59293889 277.08569336 270.91064453 C277.08458054 272.00638794 277.08346771 273.10213135 277.08232117 274.2310791 C277.07594131 275.23973022 277.06956146 276.24838135 277.06298828 277.28759766 C277.05917648 278.1767688 277.05536469 279.06593994 277.05143738 279.98205566 C276.91772461 282.12939453 276.91772461 282.12939453 275.91772461 284.12939453 C275.62338245 286.14955582 275.33367893 288.17051897 275.06933594 290.19482422 C268.13565545 342.5293859 245.017082 389.23385217 210.29321289 428.5703125 C209.00304624 430.03268457 207.72366092 431.50454845 206.44506836 432.97705078 C201.905153 438.13993909 197.18651393 442.72508705 191.91772461 447.12939453 C190.99604492 447.93892578 190.07436523 448.74845703 189.12475586 449.58251953 C158.14014002 476.66697394 121.45941839 494.52211843 81.91772461 505.12939453 C80.6944043 505.45810547 79.47108398 505.78681641 78.21069336 506.12548828 C70.7399891 507.97638164 63.15824846 509.06880313 55.54174805 510.12841797 C54.71320313 510.24475586 53.8846582 510.36109375 53.03100586 510.48095703 C52.28633057 510.58230957 51.54165527 510.68366211 50.77441406 510.78808594 C48.83260473 511.05606534 48.83260473 511.05606534 46.91772461 512.12939453 C45.33812441 512.23468443 43.75419936 512.27811839 42.17114258 512.29052734 C40.68721512 512.30493866 40.68721512 512.30493866 39.17330933 512.31964111 C38.09638824 512.32389099 37.01946716 512.32814087 35.90991211 512.33251953 C34.79649445 512.3382196 33.68307678 512.34391968 32.53591919 512.34979248 C30.16694085 512.3592607 27.79794922 512.36578366 25.42895508 512.36962891 C21.85595431 512.37922472 18.28355627 512.4101842 14.71069336 512.44189453 C2.35516367 512.50062831 -9.0580818 512.03574732 -21.08227539 509.12939453 C-23.65197895 508.58873178 -26.2223019 508.05100515 -28.79321289 507.51611328 C-62.28553131 500.17536061 -95.13997576 488.658431 -123.08227539 468.12939453 C-123.68023926 467.69691406 -124.27820313 467.26443359 -124.89428711 466.81884766 C-134.13444388 460.12461234 -142.96977474 453.05532803 -151.52319336 445.50488281 C-152.98556543 444.21471616 -154.45742931 442.93533084 -155.92993164 441.65673828 C-161.09281995 437.11682292 -165.67796791 432.39818386 -170.08227539 427.12939453 C-170.89180664 426.20771484 -171.70133789 425.28603516 -172.53540039 424.33642578 C-199.6198548 393.35180994 -217.47499929 356.67108831 -228.08227539 317.12939453 C-228.41098633 315.90607422 -228.73969727 314.68275391 -229.07836914 313.42236328 C-230.92926249 305.95165902 -232.02168399 298.36991838 -233.08129883 290.75341797 C-233.19763672 289.92487305 -233.31397461 289.09632813 -233.43383789 288.24267578 C-233.53519043 287.49800049 -233.63654297 286.7533252 -233.7409668 285.98608398 C-234.0089462 284.04427466 -234.0089462 284.04427466 -235.08227539 282.12939453 C-235.18756529 280.54979433 -235.23099925 278.96586928 -235.2434082 277.3828125 C-235.25781952 275.89888504 -235.25781952 275.89888504 -235.27252197 274.38497925 C-235.27677185 273.30805817 -235.28102173 272.23113708 -235.28540039 271.12158203 C-235.2939505 269.45145554 -235.2939505 269.45145554 -235.30267334 267.74758911 C-235.31214156 265.37861077 -235.31866452 263.00961914 -235.32250977 260.640625 C-235.33210558 257.06762423 -235.36306506 253.49522619 -235.39477539 249.92236328 C-235.45298168 237.56227103 -234.95276074 226.16367915 -232.08227539 214.12939453 C-231.63328367 211.84962536 -231.19172031 209.56837905 -230.75805664 207.28564453 C-221.10171256 159.3482864 -199.41427624 117.48660314 -166.29321289 81.56298828 C-164.60693943 79.70689576 -163.01039608 77.84424856 -161.45727539 75.87939453 C-158.99497767 73.02831296 -156.41330032 70.6569967 -153.54711914 68.22314453 C-151.70583508 66.6590744 -149.89115207 65.07806643 -148.08618164 63.47314453 C-121.44965265 39.95105262 -89.90037435 22.10703695 -56.08227539 11.12939453 C-55.39810547 10.90203613 -54.71393555 10.67467773 -54.0090332 10.44042969 C-39.99283521 5.86993034 -25.42172701 3.84636703 -10.89111328 1.62255859 C-1.65800475 0.00144784 -1.65800475 0.00144784 0 0 Z M-76.08227539 59.12939453 C-77.12061523 59.65170654 -77.12061523 59.65170654 -78.17993164 60.18457031 C-95.9965838 69.20046563 -111.97580895 80.22587366 -126.59399414 93.82861328 C-128.75406827 95.82591888 -130.95775484 97.73482791 -133.20727539 99.62939453 C-147.26443176 111.95425486 -158.45632949 128.19740825 -168.08227539 144.12939453 C-168.44240723 144.70882812 -168.80253906 145.28826172 -169.17358398 145.88525391 C-185.78867155 172.74472557 -195.44050769 204.77464348 -198.08227539 236.12939453 C-198.15752441 237.01820313 -198.23277344 237.90701172 -198.31030273 238.82275391 C-202.66544661 295.00699409 -184.99956048 351.64416283 -149.08227539 395.12939453 C-146.56182086 398.00776114 -143.9967955 400.83223486 -141.39086914 403.63330078 C-139.35173851 405.83804609 -137.39706752 408.08771267 -135.45727539 410.37939453 C-131.97778831 414.36748413 -128.13780197 417.74052985 -124.08227539 421.12939453 C-123.18508789 421.90283203 -122.28790039 422.67626953 -121.36352539 423.47314453 C-88.06037014 451.86846638 -45.8756943 470.62319463 -2.20532227 474.56201172 C-0.08541482 474.75411005 2.03329293 474.95680004 4.15209961 475.16064453 C16.52473168 476.32474064 28.16698826 476.08560356 40.54272461 474.81689453 C41.20791107 474.74903748 41.87309753 474.68118042 42.55844116 474.61126709 C89.09976852 469.82118445 133.1418162 451.05003949 167.65600586 419.20361328 C169.70097128 417.32817867 171.79391936 415.5390692 173.91772461 413.75439453 C210.08496697 381.99074854 233.32332978 331.35050352 238.91772461 284.12939453 C239.02600586 283.25089844 239.13428711 282.37240234 239.24584961 281.46728516 C244.21367595 239.68431716 236.98332909 196.70126861 217.91772461 159.12939453 C217.5695166 158.43716797 217.22130859 157.74494141 216.86254883 157.03173828 C208.00020235 139.51851978 197.19876225 123.73696132 183.86303711 109.33251953 C182.19972498 107.44876845 180.83635251 105.60971197 179.48022461 103.50439453 C176.85917823 99.68388624 173.42396302 97.14965668 169.76928711 94.35205078 C167.23602626 92.37749541 164.80720685 90.32026631 162.38989258 88.20654297 C154.67792321 81.49658736 146.51617973 75.64871289 137.91772461 70.12939453 C137.21470215 69.67564453 136.51167969 69.22189453 135.78735352 68.75439453 C73.16881772 28.94093849 -10.16731123 25.68127232 -76.08227539 59.12939453 Z " fill="#FDFEFE" transform="translate(337.082275390625,101.87060546875)"/>
<path d="M0 0 C2.18873278 1.72689008 3.99225119 3.53486946 5.8203125 5.63671875 C7.65518864 7.62614539 9.47597271 9.29927456 11.53076172 11.04614258 C16.47804605 15.34945515 21.07538524 19.96798044 25.6875 24.625 C26.58944092 25.53072754 27.49138184 26.43645508 28.4206543 27.36962891 C31.76605444 30.72921306 35.10688392 34.09331262 38.4473877 37.45776367 C41.732918 40.76634351 45.02233791 44.07102481 48.3125 47.375 C49.16481201 48.23561035 50.01712402 49.0962207 50.89526367 49.98291016 C55.22892688 54.3341498 59.63339343 58.51644926 64.29150391 62.51858521 C66.37497431 64.32513536 68.33973713 66.22590161 70.28125 68.18359375 C70.97734375 68.88291016 71.6734375 69.58222656 72.390625 70.30273438 C73.08671875 71.00720703 73.7828125 71.71167969 74.5 72.4375 C75.22703125 73.16904297 75.9540625 73.90058594 76.703125 74.65429688 C78.47109499 76.43389824 80.23666378 78.21580918 82 80 C85.55480003 78.49158187 87.79559622 76.42366339 90.484375 73.67578125 C91.33773437 72.81146484 92.19109375 71.94714844 93.0703125 71.05664062 C93.95460938 70.15107422 94.83890625 69.24550781 95.75 68.3125 C97.49229404 66.53530838 99.23705193 64.76052859 100.984375 62.98828125 C101.75491211 62.19977783 102.52544922 61.41127441 103.31933594 60.59887695 C105.40896012 58.57300724 107.51765462 56.67082029 109.72167969 54.77612305 C114.53017719 50.60356884 118.99126833 46.11597391 123.46875 41.59375 C124.34849487 40.71021851 125.22823975 39.82668701 126.13464355 38.91638184 C128.92554506 36.11334867 131.71329232 33.30720084 134.5 30.5 C138.17398738 26.7989945 141.85165602 23.10168178 145.53125 19.40625 C146.36168823 18.56751343 147.19212646 17.72877686 148.04772949 16.86462402 C152.3449536 12.54953204 156.71035438 8.39175669 161.33874512 4.43249512 C162.76259272 3.20471558 164.13692691 1.91991943 165.5 0.625 C169.66364027 -2.08136618 173.57588641 -2.45730357 178.33984375 -1.55859375 C183.37505754 -0.09243333 186.81185328 1.68662503 190 6 C192.91053315 11.54648771 193.57893488 16.50226318 192.0546875 22.58984375 C190.51346639 26.1118194 188.23780994 28.32022141 185.36328125 30.8203125 C183.37385461 32.65518864 181.70072544 34.47597271 179.95385742 36.53076172 C175.65054485 41.47804605 171.03201956 46.07538524 166.375 50.6875 C165.46927246 51.58944092 164.56354492 52.49138184 163.63037109 53.4206543 C160.27078694 56.76605444 156.90668738 60.10688392 153.54223633 63.4473877 C150.23365649 66.732918 146.92897519 70.02233791 143.625 73.3125 C142.76438965 74.16481201 141.9037793 75.01712402 141.01708984 75.89526367 C136.6658502 80.22892688 132.48355074 84.63339343 128.48141479 89.29150391 C126.67486464 91.37497431 124.77409839 93.33973713 122.81640625 95.28125 C121.76743164 96.32539063 121.76743164 96.32539063 120.69726562 97.390625 C119.64055664 98.43476563 119.64055664 98.43476563 118.5625 99.5 C117.83095703 100.22703125 117.09941406 100.9540625 116.34570312 101.703125 C114.56610176 103.47109499 112.78419082 105.23666378 111 107 C112.50841813 110.55480003 114.57633661 112.79559622 117.32421875 115.484375 C118.18853516 116.33773437 119.05285156 117.19109375 119.94335938 118.0703125 C120.84892578 118.95460938 121.75449219 119.83890625 122.6875 120.75 C124.46469162 122.49229404 126.23947141 124.23705193 128.01171875 125.984375 C128.80022217 126.75491211 129.58872559 127.52544922 130.40112305 128.31933594 C132.4227732 130.40460777 134.32006949 132.50819016 136.21020508 134.70800781 C140.45430824 139.59887196 145.02589594 144.13274229 149.625 148.6875 C150.53072754 149.58944092 151.43645508 150.49138184 152.36962891 151.4206543 C155.24399569 154.28288564 158.1214694 157.14195802 161 160 C164.79475338 163.76774333 168.58581381 167.53915545 172.375 171.3125 C173.23561035 172.16481201 174.0962207 173.01712402 174.98291016 173.89526367 C192.38610376 191.22815866 192.38610376 191.22815866 193.0625 198.78125 C192.91035259 204.18248298 191.05432627 208.57355858 187.875 212.875 C182.63107339 216.75094575 177.55775144 218.53529838 171 217.75 C165.78397787 216.45003164 162.89887717 213.53213215 159.3984375 209.58203125 C157.47250902 207.50867827 155.58777955 205.75053826 153.44189453 203.92651367 C148.5808993 199.70008254 144.06151999 195.16928973 139.53125 190.59375 C138.65150513 189.71021851 137.77176025 188.82668701 136.86535645 187.91638184 C133.60343055 184.6402768 130.34607436 181.3596502 127.08905029 178.07867432 C123.8851274 174.85169462 120.67730884 171.6286192 117.46875 168.40625 C116.63831177 167.56751343 115.80787354 166.72877686 114.95227051 165.86462402 C110.67216462 161.56672144 106.31594545 157.44308413 101.71618652 153.48910522 C99.63061025 151.67948694 97.66280889 149.77666564 95.71875 147.81640625 C94.67460937 146.76743164 94.67460937 146.76743164 93.609375 145.69726562 C92.56523437 144.64055664 92.56523437 144.64055664 91.5 143.5625 C90.77296875 142.83095703 90.0459375 142.09941406 89.296875 141.34570312 C87.52890501 139.56610176 85.76333622 137.78419082 84 136 C80.44519997 137.50841813 78.20440378 139.57633661 75.515625 142.32421875 C74.66226563 143.18853516 73.80890625 144.05285156 72.9296875 144.94335938 C72.04539062 145.84892578 71.16109375 146.75449219 70.25 147.6875 C68.50770596 149.46469162 66.76294807 151.23947141 65.015625 153.01171875 C64.24508789 153.80022217 63.47455078 154.58872559 62.68066406 155.40112305 C60.59539223 157.4227732 58.49180984 159.32006949 56.29199219 161.21020508 C51.40112804 165.45430824 46.86725771 170.02589594 42.3125 174.625 C41.41055908 175.53072754 40.50861816 176.43645508 39.5793457 177.36962891 C36.71711436 180.24399569 33.85804198 183.1214694 31 186 C27.23225667 189.79475338 23.46084455 193.58581381 19.6875 197.375 C18.83518799 198.23561035 17.98287598 199.0962207 17.10473633 199.98291016 C-0.52501817 217.68416727 -0.52501817 217.68416727 -10 218 C-15.90230668 216.86416091 -20.34926022 214.93923617 -24 210 C-26.88036944 204.51099408 -27.62495476 199.51068803 -26.12109375 193.4765625 C-24.38506185 189.6415652 -21.70209539 187.16332796 -18.58203125 184.3984375 C-16.50867827 182.47250902 -14.75053826 180.58777955 -12.92651367 178.44189453 C-8.70008254 173.5808993 -4.16928973 169.06151999 0.40625 164.53125 C1.28978149 163.65150513 2.17331299 162.77176025 3.08361816 161.86535645 C6.3597232 158.60343055 9.6403498 155.34607436 12.92132568 152.08905029 C16.14830538 148.8851274 19.3713808 145.67730884 22.59375 142.46875 C23.85185486 141.22309265 23.85185486 141.22309265 25.13537598 139.95227051 C29.43327856 135.67216462 33.55691587 131.31594545 37.51089478 126.71618652 C39.32051306 124.63061025 41.22333436 122.66280889 43.18359375 120.71875 C43.88291016 120.02265625 44.58222656 119.3265625 45.30273438 118.609375 C46.00720703 117.91328125 46.71167969 117.2171875 47.4375 116.5 C48.16904297 115.77296875 48.90058594 115.0459375 49.65429688 114.296875 C51.43389824 112.52890501 53.21580918 110.76333622 55 109 C53.49158187 105.44519997 51.42366339 103.20440378 48.67578125 100.515625 C47.81146484 99.66226563 46.94714844 98.80890625 46.05664062 97.9296875 C45.15107422 97.04539062 44.24550781 96.16109375 43.3125 95.25 C41.53530838 93.50770596 39.76052859 91.76294807 37.98828125 90.015625 C37.19977783 89.24508789 36.41127441 88.47455078 35.59887695 87.68066406 C33.57300724 85.59103988 31.67082029 83.48234538 29.77612305 81.27832031 C25.60356884 76.46982281 21.11597391 72.00873167 16.59375 67.53125 C15.71021851 66.65150513 14.82668701 65.77176025 13.91638184 64.86535645 C11.11334867 62.07445494 8.30720084 59.28670768 5.5 56.5 C1.7989945 52.82601262 -1.89831822 49.14834398 -5.59375 45.46875 C-6.85185486 44.22309265 -6.85185486 44.22309265 -8.13537598 42.95227051 C-12.43292257 38.67251914 -16.57304041 34.32813292 -20.50646973 29.71008301 C-21.97865876 27.9764071 -21.97865876 27.9764071 -23.64147949 26.41052246 C-26.52816575 23.41333856 -26.76260693 19.00094173 -27 15 C-26.3003486 10.32338273 -24.67431818 6.91231284 -21.875 3.125 C-15.07839953 -1.89857426 -7.93667395 -3.47309881 0 0 Z " fill="#FEFEFE" transform="translate(275,250)"/>
</svg>
