<?xml version="1.0" encoding="UTF-8"?>
<svg version="1.1" xmlns="http://www.w3.org/2000/svg" width="512" height="512">
<path d="M0 0 C11.67881096 6.11908477 17.23210688 15.4232658 22.875 26.75 C23.61488331 28.19454188 24.35710273 29.63788944 25.1015625 31.08007812 C26.57531465 33.93792496 28.0404514 36.79990596 29.49902344 39.66552734 C32.06487539 44.68717074 34.76968538 49.62876522 37.5 54.5625 C42.80175312 64.21220775 47.9599757 73.93586929 53.11376953 83.66503906 C57.52599014 91.99210976 61.96518192 100.30129938 66.5 108.5625 C71.7981354 118.21425641 76.9599371 127.93579643 82.11376953 137.66503906 C86.52599014 145.99210976 90.96518192 154.30129938 95.5 162.5625 C100.7981354 172.21425641 105.9599371 181.93579643 111.11376953 191.66503906 C115.52599014 199.99210976 119.96518192 208.30129938 124.5 216.5625 C129.7981354 226.21425641 134.9599371 235.93579643 140.11376953 245.66503906 C144.52599014 253.99210976 148.96518192 262.30129938 153.5 270.5625 C158.7981354 280.21425641 163.9599371 289.93579643 169.11376953 299.66503906 C173.97944738 308.84790796 178.89591841 317.99886696 183.89794922 327.10839844 C188.76431343 335.99509002 193.49681737 344.9521072 198.23342896 353.90838623 C202.9159775 362.76019168 207.63274914 371.58472697 212.63330078 380.26269531 C217.82046086 389.38179299 219.35148891 398.91263564 216.84765625 409.2578125 C213.37348216 417.81650746 206.78292379 424.56811806 198.5 428.5625 C193.95948077 430.33479681 190.18795332 430.81428662 185.32405472 430.81976891 C184.62114091 430.82327498 183.91822711 430.82678105 183.19401288 430.83039337 C180.83883709 430.83969664 178.48390915 430.83478688 176.12872314 430.82992554 C174.42300234 430.83366234 172.71728325 430.83826398 171.01156688 430.84365618 C166.32415793 430.85589791 161.63682029 430.85562433 156.94939899 430.85326743 C151.89404002 430.85285956 146.83870401 430.86389559 141.78335571 430.87338257 C131.87870168 430.89000012 121.97407144 430.89549246 112.06940463 430.89660732 C104.01852328 430.89755747 95.9676498 430.90166607 87.91677094 430.90800858 C65.09313571 430.92562326 42.2695193 430.93484712 19.44587722 430.93334763 C17.59998245 430.93322776 17.59998245 430.93322776 15.71679688 430.93310547 C13.86864927 430.93298283 13.86864927 430.93298283 11.98316535 430.93285771 C-7.98483018 430.9320448 -27.95275029 430.95118299 -47.920724 430.9793822 C-68.4216526 431.0081057 -88.9225444 431.02192278 -109.42349362 431.02019465 C-120.93402113 431.01953055 -132.44446956 431.02503156 -143.95497894 431.04655075 C-153.75547406 431.06475551 -163.55585427 431.06911566 -173.35635898 431.0555319 C-178.35607786 431.04899866 -183.35557624 431.04889802 -188.3552742 431.0662384 C-192.93487305 431.08195829 -197.51407637 431.0791165 -202.09366551 431.06167014 C-203.74775988 431.05859786 -205.40188369 431.06224123 -207.05594334 431.07339029 C-220.28904145 431.15665835 -229.49298804 429.33526177 -239.36328125 419.9453125 C-244.75942678 413.92767307 -246.65943175 407.41316163 -246.8125 399.4375 C-246.86857422 397.54644531 -246.86857422 397.54644531 -246.92578125 395.6171875 C-246.6738888 390.72796696 -244.69717994 386.86850948 -242.5 382.5625 C-242.05309814 381.67111328 -241.60619629 380.77972656 -241.14575195 379.86132812 C-239.61929851 376.85391072 -238.06407478 373.86301704 -236.5 370.875 C-235.92604492 369.77486572 -235.35208984 368.67473145 -234.76074219 367.54125977 C-230.69019254 359.76659945 -226.52382034 352.04895015 -222.29833984 344.35766602 C-217.83295262 336.21494358 -213.47328345 328.01811023 -209.125 319.8125 C-202.20071945 306.74914282 -195.22088524 293.71733471 -188.19726562 280.70703125 C-185.31596281 275.36882926 -182.43896959 270.02830754 -179.5625 264.6875 C-178.98733643 263.61967285 -178.41217285 262.5518457 -177.81958008 261.45166016 C-173.21827617 252.90519149 -168.6334086 244.34996519 -164.05252075 235.7925415 C-159.54688043 227.37610705 -155.02904005 218.96636413 -150.5 210.5625 C-143.14236747 196.90884064 -135.81965617 183.23654152 -128.5 169.5625 C-120.6064462 154.81634528 -112.70433341 140.07495616 -104.76928711 125.35107422 C-100.50076203 117.42801053 -96.24731591 109.49695002 -92 101.5625 C-86.60651819 91.48688688 -81.1965947 81.42028446 -75.77392578 71.36035156 C-72.42323593 65.14181825 -69.08155291 58.91855648 -65.75115967 52.68913269 C-64.16413767 49.72081845 -62.57554617 46.75337441 -60.98242188 43.78833008 C-58.00957338 38.25470725 -55.05079229 32.71511976 -52.1328125 27.15234375 C-51.08875512 25.18478255 -50.0444957 23.21732855 -49 21.25 C-48.54415527 20.36731445 -48.08831055 19.48462891 -47.61865234 18.57519531 C-43.68552665 11.22014974 -38.99877627 5.22074704 -31.25 1.6875 C-30.41984375 1.29820313 -29.5896875 0.90890625 -28.734375 0.5078125 C-20.57630191 -2.94367996 -8.42701875 -2.9663106 0 0 Z " fill="#F9D170" transform="translate(270.5,41.4375)"/>
<path d="M0 0 C5.74640496 3.37601291 9.46618412 8.18772493 11.625 14.4375 C11.86190701 16.9790535 11.86190701 16.9790535 11.84214783 19.71417236 C11.83738229 21.27011675 11.83738229 21.27011675 11.83252048 22.85749435 C11.81809878 23.98121067 11.80367708 25.10492699 11.78881836 26.26269531 C11.7808042 27.45315083 11.77279005 28.64360634 11.76453304 29.87013626 C11.65078423 43.60922729 11.36192585 57.3461535 11.05214429 71.08199596 C10.969327 74.77729965 10.88957194 78.47266986 10.80931091 82.16802979 C10.67435604 88.35995134 10.53702277 94.55181653 10.39819336 100.74365234 C10.23928822 107.83222539 10.08427865 114.92087561 9.93132645 122.00957942 C9.78200042 128.92568068 9.62981819 135.84171646 9.47642326 142.75772858 C9.41214154 145.65817639 9.34880595 148.55864234 9.28631783 151.45912933 C9.11710675 159.27699346 8.92656544 167.09393049 8.7113533 174.91069031 C8.62730086 178.34352928 8.57670736 181.77556934 8.53121948 185.20910645 C8.48523864 187.26995992 8.43835026 189.33079342 8.39038086 191.39160156 C8.387511 192.30177914 8.38464113 193.21195671 8.3816843 194.14971542 C8.17032211 201.29470367 5.81571816 206.26659997 0.73828125 211.3125 C-4.54615052 214.61383698 -9.20113283 215.63497503 -15.375 214.4375 C-20.9778171 212.30588721 -24.31199594 208.91379601 -27.3425293 203.81738281 C-29.30919418 199.28414818 -29.11648876 194.68802339 -29.125 189.8125 C-29.16011148 187.92801685 -29.19524203 186.04353404 -29.23071289 184.15905762 C-29.26743769 181.96186191 -29.29199893 179.76476923 -29.31445312 177.56738281 C-29.37883722 171.60417499 -29.49455245 165.64210464 -29.609375 159.6796875 C-29.74448093 152.6170975 -29.87848256 145.55452106 -30.00097656 138.49169922 C-30.21361304 126.30336395 -30.464443 114.12083933 -30.875 101.9375 C-31.37007698 87.10684409 -31.6607838 72.2736688 -31.9375 57.4375 C-31.95973633 56.27210693 -31.98197266 55.10671387 -32.00488281 53.90600586 C-32.14671934 46.41671955 -32.2692365 38.92737796 -32.375 31.4375 C-32.38933075 30.54606293 -32.4036615 29.65462585 -32.41842651 28.73617554 C-32.45437743 26.35926823 -32.47940678 23.98255188 -32.5 21.60546875 C-32.51417969 20.31664795 -32.52835938 19.02782715 -32.54296875 17.69995117 C-32.20408849 11.11789179 -29.66972237 7.41242493 -24.9375 3.0625 C-18.06014168 -2.65001573 -8.16124024 -3.6639094 0 0 Z " fill="#433F4F" transform="translate(266.375,128.5625)"/>
<path d="M0 0 C6.73344227 3.4207327 11.72610355 9.11581064 14.125 16.3125 C15.0676552 24.40586825 13.80245332 30.59676098 9.125 37.3125 C4.8135505 42.16672106 -0.43757447 45.64066548 -6.96484375 46.62890625 C-13.98016782 47.01111196 -20.56038966 45.12338907 -25.95703125 40.546875 C-31.32016604 34.81114348 -33.92898266 29.15063559 -34.3125 21.3125 C-34.09295623 14.81600022 -31.68754828 10.41124011 -27.5 5.5625 C-19.22656796 -1.52901318 -10.45843491 -4.35183198 0 0 Z " fill="#443F4F" transform="translate(265.875,378.6875)"/>
</svg>
