<?xml version="1.0" standalone="no"?>
<!DOCTYPE svg PUBLIC "-//W3C//DTD SVG 20010904//EN"
 "http://www.w3.org/TR/2001/REC-SVG-20010904/DTD/svg10.dtd">
<svg version="1.0" xmlns="http://www.w3.org/2000/svg"
 width="512.000000pt" height="512.000000pt" viewBox="0 0 512.000000 512.000000"
 preserveAspectRatio="xMidYMid meet">

<g transform="translate(0.000000,512.000000) scale(0.100000,-0.100000)"
fill="#000000" stroke="none">
<path d="M442 5100 c-106 -28 -187 -75 -267 -155 -81 -81 -127 -161 -155 -271
-20 -76 -20 -118 -20 -2114 0 -1996 0 -2038 20 -2114 28 -110 74 -190 155
-271 81 -81 161 -127 271 -155 76 -20 118 -20 2114 -20 1996 0 2038 0 2114 20
110 28 190 74 271 155 81 81 127 161 155 271 20 76 20 118 20 2114 0 1996 0
2038 -20 2114 -28 109 -74 190 -155 271 -81 82 -160 127 -271 155 -76 20 -117
20 -2118 19 -1977 0 -2043 -1 -2114 -19z m4203 -325 c50 -25 105 -80 130 -130
20 -39 20 -72 20 -2085 0 -2013 0 -2046 -20 -2085 -25 -50 -80 -105 -130 -130
-39 -20 -72 -20 -2085 -20 -2013 0 -2046 0 -2085 20 -50 25 -105 80 -130 130
-20 39 -20 74 -23 2060 -2 1403 1 2033 8 2063 21 86 97 166 181 190 22 7 750
10 2064 9 1997 -2 2031 -2 2070 -22z"/>
<path d="M2442 4260 c-90 -12 -237 -60 -319 -106 -198 -110 -350 -293 -422
-510 -32 -96 -56 -258 -45 -309 18 -84 92 -141 172 -132 90 10 136 69 146 188
4 45 16 110 26 143 55 176 209 329 390 387 91 30 249 30 340 1 275 -89 460
-380 406 -639 -28 -137 -110 -271 -225 -368 -63 -53 -97 -72 -224 -129 -58
-26 -94 -51 -141 -98 -116 -116 -146 -207 -146 -435 0 -133 3 -159 20 -192 41
-81 146 -110 223 -62 63 39 71 65 77 246 6 205 5 203 173 284 269 130 461 352
543 627 21 73 26 109 26 204 1 248 -88 466 -262 640 -197 197 -481 294 -758
260z"/>
<path d="M2460 1468 c-25 -14 -58 -44 -75 -67 -27 -39 -30 -50 -30 -120 0 -68
3 -82 27 -117 15 -21 44 -50 65 -64 31 -21 48 -25 113 -25 65 0 82 4 113 25
21 14 50 43 65 64 24 35 27 49 27 116 0 67 -3 81 -27 116 -44 62 -90 88 -167
92 -55 3 -74 -1 -111 -20z"/>
</g>
</svg>
