<?xml version="1.0" encoding="UTF-8"?>
<svg version="1.1" xmlns="http://www.w3.org/2000/svg" width="512" height="512">
<path d="M0 0 C5.69744495 4.21861345 10.66282876 9.00982881 15.66257447 14.02380109 C16.58468132 14.94067126 17.50678817 15.85754143 18.45683765 16.80219555 C20.9989492 19.33021698 23.53486236 21.86437524 26.06971627 24.39967108 C28.81122384 27.13952255 31.55843139 29.87364926 34.30483216 32.60859418 C40.29959306 38.58057159 46.28694292 44.55994222 52.27285331 50.54078889 C56.01323188 54.27790414 59.75523928 58.01338543 63.49759072 61.7485249 C73.86814876 72.09952946 84.23713409 82.452102 94.59937543 92.81143308 C95.59263606 93.80441235 95.59263606 93.80441235 96.60596256 94.81745182 C97.94819027 96.15931329 99.2904167 97.50117602 100.63264187 98.84304002 C101.63199762 99.84212155 101.63199762 99.84212155 102.65154237 100.86138654 C103.31859512 101.52825875 103.98564788 102.19513096 104.67291436 102.88221142 C115.48769546 113.69344897 126.31417469 124.49288893 137.14585074 135.28719702 C148.27826697 146.38151567 159.40128404 157.48518413 170.51481915 168.59841728 C176.7502311 174.83324517 182.98952172 181.06407559 189.23910302 187.28470349 C194.55860503 192.57967286 199.86938508 197.88320197 205.16911557 203.19796357 C207.87131637 205.90732415 210.57734136 208.61254032 213.29448479 211.3069222 C216.2443815 214.23234377 219.17440459 217.17691301 222.10300416 220.1236546 C222.95844636 220.96589684 223.81388856 221.80813907 224.69525325 222.6759038 C233.9063793 232.01768634 237.51422426 240.8338097 237.50261658 253.85503888 C237.30787814 264.51351042 233.93656647 270.92488543 226.55950135 278.62847638 C217.89802016 286.67536402 208.81467974 288.4336391 197.1415326 288.14019513 C184.28175679 287.12260654 175.59692418 278.54241741 166.90325135 269.77914166 C166.10829035 268.98588951 165.31332934 268.19263736 164.49427861 267.37534726 C161.84718806 264.73153569 159.2072821 262.08066799 156.56731385 259.42974591 C154.66510847 257.52697607 152.7625099 255.62460715 150.85941285 253.72272992 C146.77088656 249.63524923 142.68602034 245.54414054 138.60366029 241.45050168 C132.70134518 235.53189026 126.79347508 229.61884925 120.88426119 223.7071266 C111.29568823 214.11418301 101.71158445 204.5167873 92.13030213 194.91656232 C82.82633911 185.59422412 73.52026506 176.2740016 64.21135682 166.95660138 C63.63696846 166.38168758 63.0625801 165.80677377 62.47078604 165.21443833 C59.58905983 162.33010194 56.70729221 159.44580694 53.825504 156.5615325 C29.94134964 132.65666531 6.06445334 108.74456072 -17.80768615 84.82769513 C-20.85767472 86.19073829 -22.95318765 87.72646482 -25.30450755 90.08959413 C-25.9827002 90.76627147 -26.66089285 91.44294881 -27.35963678 92.14013153 C-28.46521707 93.25854306 -28.46521707 93.25854306 -29.59313232 94.39954877 C-30.38240908 95.18993895 -31.17168585 95.98032913 -31.98488009 96.79467052 C-34.63720071 99.45307912 -37.28230229 102.11855788 -39.9275592 104.78399396 C-41.82439559 106.68794055 -43.72163743 108.59147428 -45.61943847 110.49445844 C-49.71047773 114.59809715 -53.79805514 118.70515791 -57.88352805 122.81433797 C-63.79822044 128.76298874 -69.72033561 134.70420683 -75.64467803 140.64324542 C-85.26649061 150.28895659 -94.88529599 159.93765943 -104.50080138 169.58965802 C-105.07635785 170.16739473 -105.65191432 170.74513144 -106.24491189 171.34037533 C-114.40674693 179.53340928 -122.5655799 187.72942627 -130.72319875 195.92665794 C-131.29723926 196.50348507 -131.87127977 197.08031221 -132.46271545 197.67461896 C-133.03605307 198.25074364 -133.60939069 198.82686832 -134.20010217 199.42045132 C-143.7698425 209.03630755 -153.34733331 218.64440102 -162.93117774 228.24620003 C-168.83942606 234.1661385 -174.74108482 240.09249767 -180.63436744 246.02733531 C-184.67656676 250.09701271 -188.72601209 254.1593853 -192.78116604 258.21615414 C-195.11856909 260.55496116 -197.45146565 262.89796999 -199.77783996 265.24775434 C-202.3051449 267.7994989 -204.84457572 270.33854565 -207.38732177 272.87489057 C-208.47617165 273.98326385 -208.47617165 273.98326385 -209.58701849 275.11402851 C-217.84833956 283.2949058 -226.70575993 288.08722573 -238.49518615 288.20269513 C-249.76911299 288.1187541 -257.43515521 285.13364171 -265.64362365 277.19878888 C-273.92295872 268.12738746 -275.39717871 259.14592574 -275.1084674 247.24957013 C-274.34716647 232.34937572 -262.32085567 223.19293508 -252.40267211 213.26878095 C-251.49957287 212.36129946 -250.59647364 211.45381796 -249.66600776 210.51883703 C-247.18810941 208.02912722 -244.70719304 205.54244506 -242.2256853 203.05633342 C-239.53884452 200.36347824 -236.85479886 197.66783911 -234.17029601 194.97265363 C-227.70656481 188.48454912 -221.23801811 182.00125647 -214.76856276 175.51886031 C-212.93960978 173.68618739 -211.11078323 171.85338839 -209.2820006 170.02054548 C-197.90471116 158.6180355 -186.52582797 147.21711856 -175.14215976 135.8209765 C-172.51364044 133.18952799 -169.88513742 130.5580632 -167.25666076 127.92657208 C-166.27684089 126.94563314 -166.27684089 126.94563314 -165.27722668 125.94487724 C-154.68087595 115.33585522 -144.09486059 104.7165813 -133.51299936 94.09310886 C-122.63095678 83.16862766 -111.73949153 72.25361194 -100.83882117 61.34771734 C-94.72560585 55.23109255 -88.61660279 49.1103866 -82.51819831 42.97899175 C-77.32934326 37.76211017 -72.13203459 32.55384033 -66.92355729 27.35654619 C-64.26883609 24.70700267 -61.61827977 22.05362532 -58.97858268 19.38910604 C-56.11244555 16.49624353 -53.22714746 13.6232671 -50.33968383 10.7516911 C-49.51505175 9.91317693 -48.69041967 9.07466277 -47.84079874 8.21073908 C-35.68494756 -3.78123493 -15.55630874 -10.08844178 0 0 Z " fill="#556C83" transform="translate(274.807686150074,114.17230486869812)"/>
</svg>
