<?xml version="1.0" encoding="UTF-8"?>
<svg version="1.1" xmlns="http://www.w3.org/2000/svg" width="512" height="512">
<path d="M0 0 C0.74698179 -0.00265183 1.49396358 -0.00530365 2.26358119 -0.00803584 C4.78067094 -0.0157295 7.29771192 -0.01628804 9.81481266 -0.01688576 C11.63216259 -0.02090035 13.44951163 -0.02533857 15.26685959 -0.03016531 C20.27221919 -0.04213726 25.27756915 -0.04778072 30.28294027 -0.05234647 C35.6771768 -0.05830028 41.07140178 -0.06991075 46.46563053 -0.08063698 C59.4993609 -0.10516713 72.5330951 -0.11978959 85.56684145 -0.13269705 C89.24805315 -0.13640871 92.92926446 -0.14038197 96.61047578 -0.14444971 C119.46869421 -0.16968734 142.32691323 -0.19174121 165.18514252 -0.20417786 C170.48064965 -0.20710757 175.77615677 -0.21006923 181.07166386 -0.21308327 C182.38784354 -0.21382932 183.70402323 -0.21457537 185.06008715 -0.21534403 C206.37770006 -0.22799552 227.69521259 -0.26121535 249.01278996 -0.3028851 C270.89793009 -0.34531362 292.78302751 -0.36887401 314.66820866 -0.37409842 C326.95633484 -0.37751162 339.24433065 -0.38925614 351.53241634 -0.42220116 C361.99859391 -0.45021543 372.46461439 -0.4611949 382.93082654 -0.4500057 C388.26916785 -0.44482253 393.60718024 -0.44768392 398.94547367 -0.47247124 C403.83808051 -0.494999 408.73012283 -0.49419628 413.6227398 -0.47526737 C415.387316 -0.47247231 417.15193077 -0.47803823 418.91644507 -0.4930803 C434.69485853 -0.61930104 446.57050812 2.60746298 458.31311893 13.71904564 C465.86785086 21.72160962 469.79695422 31.64924155 469.77825832 42.49577045 C469.78091015 43.24275225 469.78356198 43.98973404 469.78629416 44.75935164 C469.79398782 47.2764414 469.79454636 49.79348238 469.79514408 52.31058311 C469.79915867 54.12793305 469.80359689 55.94528209 469.80842364 57.76263005 C469.82039558 62.76798965 469.82603904 67.77333961 469.83060479 72.77871072 C469.8365586 78.17294725 469.84816907 83.56717224 469.8588953 88.96140099 C469.88342545 101.99513136 469.89804792 115.02886555 469.91095537 128.06261191 C469.91466703 131.7438236 469.91864029 135.42503492 469.92270803 139.10624623 C469.94794567 161.96446466 469.96999954 184.82268368 469.98243618 207.68091297 C469.9853659 212.97642011 469.98832756 218.27192722 469.99134159 223.56743431 C469.99208764 224.883614 469.99283369 226.19979369 469.99360235 227.55585761 C470.00625384 248.87347051 470.03947367 270.19098305 470.08114342 291.50856041 C470.12357194 313.39370054 470.14713234 335.27879796 470.15235674 357.16397911 C470.15576994 369.45210529 470.16751446 381.7401011 470.20045948 394.0281868 C470.22847375 404.49436437 470.23945322 414.96038484 470.22826402 425.42659699 C470.22308086 430.7649383 470.22594225 436.10295069 470.25072956 441.44124413 C470.27325733 446.33385097 470.2724546 451.22589328 470.25352569 456.11851025 C470.25073064 457.88308645 470.25629655 459.64770122 470.27133863 461.41221552 C470.39755937 477.19062899 467.17079535 489.06627858 456.05921268 500.80888939 C448.05664871 508.36362132 438.12901678 512.29272467 427.28248787 512.27402878 C426.53550608 512.2766806 425.78852429 512.27933243 425.01890668 512.28206462 C422.50181692 512.28975827 419.98477595 512.29031682 417.46767521 512.29091454 C415.65032528 512.29492913 413.83297624 512.29936734 412.01562828 512.30419409 C407.01026868 512.31616603 402.00491872 512.3218095 396.9995476 512.32637525 C391.60531107 512.33232905 386.21108609 512.34393953 380.81685734 512.35466576 C367.78312697 512.37919591 354.74939277 512.39381837 341.71564642 512.40672582 C338.03443472 512.41043749 334.35322341 512.41441075 330.67201209 512.41847849 C307.81379366 512.44371612 284.95557464 512.46576999 262.09734535 512.47820663 C256.80183822 512.48113635 251.5063311 512.48409801 246.21082401 512.48711205 C244.23655448 512.48823112 244.23655448 512.48823112 242.22240072 512.4893728 C220.90478781 512.5020243 199.58727528 512.53524413 178.26969791 512.57691388 C156.38455778 512.61934239 134.49946036 512.64290279 112.61427921 512.6481272 C100.32615303 512.6515404 88.03815722 512.66328492 75.75007153 512.69622993 C65.28389396 512.72424421 54.81787348 512.73522368 44.35166133 512.72403447 C39.01332002 512.71885131 33.67530763 512.7217127 28.3370142 512.74650002 C23.44440736 512.76902778 18.55236504 512.76822506 13.65974807 512.74929614 C11.89517187 512.74650109 10.1305571 512.75206701 8.3660428 512.76710908 C-7.41237067 512.89332982 -19.28802025 509.6665658 -31.03063107 498.55498314 C-38.58536299 490.55241916 -42.51446635 480.62478723 -42.49577045 469.77825832 C-42.49842228 469.03127653 -42.50107411 468.28429474 -42.50380629 467.51467714 C-42.51149995 464.99758738 -42.51205849 462.4805464 -42.51265621 459.96344566 C-42.5166708 458.14609573 -42.52110902 456.32874669 -42.52593577 454.51139873 C-42.53790771 449.50603913 -42.54355117 444.50068917 -42.54811692 439.49531806 C-42.55407073 434.10108153 -42.5656812 428.70685654 -42.57640743 423.31262779 C-42.60093758 410.27889742 -42.61556005 397.24516323 -42.6284675 384.21141687 C-42.63217916 380.53020518 -42.63615242 376.84899386 -42.64022017 373.16778255 C-42.6654578 350.30956412 -42.68751167 327.45134509 -42.69994831 304.59311581 C-42.70287803 299.29760867 -42.70583969 294.00210156 -42.70885372 288.70659447 C-42.7099728 286.73232494 -42.7099728 286.73232494 -42.71111448 284.71817117 C-42.72376597 263.40055827 -42.7569858 242.08304573 -42.79865555 220.76546837 C-42.84108407 198.88032824 -42.86464447 176.99523081 -42.86986887 155.11004966 C-42.87328207 142.82192348 -42.88502659 130.53392768 -42.91797161 118.24584198 C-42.94598589 107.77966441 -42.95696535 97.31364394 -42.94577615 86.84743179 C-42.94059299 81.50909048 -42.94345438 76.17107809 -42.96824169 70.83278465 C-42.99076946 65.94017781 -42.98996673 61.0481355 -42.97103782 56.15551852 C-42.96824277 54.39094232 -42.97380868 52.62632755 -42.98885076 50.86181325 C-43.1150715 35.08339979 -39.88830748 23.2077502 -28.77672482 11.46513939 C-20.77416084 3.91040746 -10.84652891 -0.0186959 0 0 Z M-8.79625607 35.38701439 C-11.99025655 41.00845524 -12.60733301 46.43395157 -12.58580685 52.81645775 C-12.5860989 53.54899773 -12.58639095 54.2815377 -12.58669186 55.03627586 C-12.58530974 57.4332614 -12.56980194 59.82992759 -12.55406857 62.22685814 C-12.55033445 63.89837029 -12.54748936 65.56988464 -12.54549313 67.24139977 C-12.53788805 71.62260128 -12.51826668 76.0036684 -12.49608517 80.38481712 C-12.47555913 84.8627446 -12.466477 89.34069397 -12.45641232 93.81865501 C-12.43501761 102.59150287 -12.40091976 111.36424187 -12.35875607 120.13701439 C11.65214074 120.82082523 35.66153769 121.3288745 59.68027973 121.63956738 C70.83860243 121.78780658 81.99074704 121.98981476 93.14515018 122.32475853 C158.06891997 126.49765097 158.06891997 126.49765097 213.98792362 98.39360619 C215.14341535 97.23223098 216.29762211 96.06957583 217.45050907 94.90561485 C230.10399084 83.09675868 239.7368474 79.65288562 256.97889042 79.90996361 C258.98109712 79.90290658 260.98329234 79.89145375 262.9854517 79.87598228 C268.37558339 79.84660284 273.7637847 79.8780687 279.15375876 79.92114592 C284.80321567 79.95572307 290.45245366 79.93339709 296.10195255 79.91731834 C306.77965927 79.89546685 317.45659617 79.92418392 328.13419634 79.97144139 C340.29881258 80.02279024 352.46319916 80.01719963 364.62789524 80.00702071 C389.63259756 79.98736332 414.63674713 80.0385786 439.64124393 80.13701439 C439.71598296 75.31730517 439.77012116 70.49794104 439.80603886 65.67778587 C439.8210285 64.0416583 439.84142726 62.40557024 439.86756229 60.76958275 C440.60049342 46.25048771 440.60049342 46.25048771 434.39124393 33.69951439 C428.86425685 30.55918082 423.4924935 29.88680873 417.21451855 29.8825388 C416.13770719 29.87772908 416.13770719 29.87772908 415.03914207 29.8728222 C412.6391034 29.86453584 410.23931516 29.87044164 407.8392725 29.87631798 C406.09897792 29.87329667 404.35868468 29.86940729 402.61839378 29.86472541 C397.84009771 29.854434 393.06187659 29.85663015 388.28357434 29.860906 C383.12873126 29.86337114 377.97390632 29.8543617 372.81906986 29.84686852 C362.72170934 29.83411361 352.62437541 29.83232881 342.52700819 29.83466878 C334.32025013 29.83645121 326.11350014 29.83470391 317.90674305 29.83044434 C316.73908754 29.82984915 315.57143203 29.82925396 314.36839303 29.82864073 C311.99636134 29.82742899 309.62432966 29.82621486 307.25229798 29.82499836 C285.00302337 29.81411978 262.75376392 29.81628682 240.50448845 29.8223832 C220.14790265 29.82755269 199.7913647 29.81629664 179.43478836 29.79728498 C158.53493941 29.77791551 137.63511311 29.76964902 116.73525512 29.77340823 C105.00066642 29.77532162 93.26611844 29.77281928 81.53153706 29.7586937 C71.54184042 29.74679029 61.55220958 29.74536335 51.56251206 29.75748386 C46.46573501 29.76337982 41.36907838 29.76445212 36.2723093 29.75248146 C31.60527382 29.74164749 26.93845967 29.74469644 22.27143465 29.75874314 C20.58441563 29.76139692 18.8973794 29.75900221 17.21037723 29.75100728 C3.23830837 29.28049588 3.23830837 29.28049588 -8.79625607 35.38701439 Z M207.81610966 135.36841393 C195.26490635 147.14228673 185.61984813 150.62213095 168.4871912 150.36406517 C166.50468849 150.37112243 164.52219737 150.38257552 162.53974247 150.39804649 C157.20332092 150.42742237 151.86884957 150.39596354 146.53258729 150.35288286 C140.93918429 150.31830241 135.34600223 150.34063232 129.7525568 150.35671043 C119.18109503 150.37856071 108.61041087 150.34984682 98.03905672 150.30258739 C85.99535668 150.25123602 73.95188857 150.25682942 61.90810788 150.26700807 C37.15223125 150.28666472 12.39691296 150.23545344 -12.35875607 150.13701439 C-12.4274301 190.36773187 -12.48028888 230.59844171 -12.51195205 270.82920611 C-12.51570415 275.57935128 -12.51958712 280.32949634 -12.52355099 285.07964134 C-12.52433792 286.02530543 -12.52512485 286.97096952 -12.52593563 287.9452901 C-12.53898777 303.25519587 -12.56264058 318.56506784 -12.59021445 333.87495356 C-12.61827395 349.58555731 -12.63493348 365.29614336 -12.64102155 381.00677115 C-12.64513686 390.70022941 -12.65813248 400.3935921 -12.68250547 410.08702094 C-12.69836936 416.73513317 -12.70315494 423.38319603 -12.6992602 430.03132581 C-12.69733967 433.86633594 -12.70027355 437.70117911 -12.71637249 441.53615952 C-12.73371399 445.69760782 -12.72771129 449.85870155 -12.71951962 454.02017784 C-12.72825814 455.22739288 -12.73699666 456.43460791 -12.74599999 457.67840523 C-12.70561634 465.26515398 -12.47468076 472.7614293 -7.10875607 478.57451439 C-1.58176898 481.71484796 3.78999437 482.38722004 10.06796932 482.39148998 C10.78584356 482.39469646 11.5037178 482.39790294 12.2433458 482.40120658 C14.64338447 482.40949294 17.04317271 482.40358714 19.44321537 482.3977108 C21.18350994 482.40073211 22.92380319 482.40462148 24.66409409 482.40930337 C29.44239015 482.41959478 34.22061128 482.41739862 38.99891353 482.41312277 C44.15375661 482.41065763 49.30858155 482.41966708 54.46341801 482.42716026 C64.56077853 482.43991516 74.65811246 482.44169997 84.75547968 482.43936 C92.96223774 482.43757757 101.16898772 482.43932487 109.37574482 482.44358444 C110.54340033 482.44417963 111.71105584 482.44477482 112.91409484 482.44538805 C115.28612653 482.44659979 117.65815821 482.44781392 120.03018989 482.44903042 C142.2794645 482.459909 164.52872395 482.45774196 186.77799942 482.45164558 C207.13458522 482.44647609 227.49112317 482.45773214 247.84769951 482.47674379 C268.74754846 482.49611327 289.64737476 482.50437976 310.54723275 482.50062054 C322.28182145 482.49870715 334.01636943 482.5012095 345.75095081 482.51533508 C355.74064745 482.52723849 365.73027829 482.52866543 375.71997581 482.51654492 C380.81675286 482.51064896 385.91340948 482.50957666 391.01017857 482.52154732 C395.67721404 482.53238129 400.3440282 482.52933234 405.01105322 482.51528563 C406.69807224 482.51263186 408.38510847 482.51502657 410.07211064 482.5230215 C424.0441795 482.99353289 424.0441795 482.99353289 436.07874393 476.88701439 C440.44551279 469.2015012 439.9194995 461.35713302 439.88175297 452.74213219 C439.88262563 451.26353632 439.88437772 449.78494075 439.8869313 448.30634683 C439.89139698 444.25176065 439.88341186 440.1972804 439.87337518 436.14270771 C439.86473176 431.76719348 439.86766147 427.39168514 439.86917973 423.01616478 C439.87022801 415.43808199 439.86395729 407.86003366 439.85270405 400.28195953 C439.83644439 389.32536447 439.83124056 378.36878606 439.82872806 367.41218024 C439.8243517 349.63547163 439.81104416 331.85878139 439.79212284 314.08208275 C439.77376254 296.81450556 439.75960677 279.54693336 439.75110722 262.27934837 C439.75058177 261.21483002 439.75005632 260.15031166 439.74951495 259.05353517 C439.74690486 253.71311621 439.74437745 248.3726972 439.74189115 243.03227818 C439.72116046 198.7338442 439.6859365 154.43543024 439.64124393 110.13701439 C415.36955616 109.45328458 391.09935134 108.94519156 366.81990528 108.6344614 C355.54055169 108.48620633 344.26730758 108.28416383 332.99182987 107.94927025 C264.9638284 103.59933189 264.9638284 103.59933189 207.81610966 135.36841393 Z " fill="#A0A0A0" transform="translate(42.35875606536865,-0.13701438903808594)"/>
<path d="M0 0 C12.4305082 8.72869865 20.35580678 20.67436709 23.30859375 35.62109375 C23.49489249 38.39900288 23.60262544 41.07594703 23.59912109 43.8503418 C23.60583832 44.63042099 23.61255554 45.41050018 23.61947632 46.21421814 C23.63833478 48.7704827 23.64237467 51.32648288 23.64453125 53.8828125 C23.65096885 55.67869673 23.65769791 57.47457993 23.66470337 59.27046204 C23.67664672 63.02855863 23.68038736 66.78656352 23.67919922 70.54467773 C23.67899649 75.32785325 23.70626456 80.1104316 23.74074364 84.893466 C23.76313574 88.60242844 23.76703297 92.31125013 23.76597977 96.02027321 C23.76831856 97.78188949 23.77704333 99.54351069 23.7926445 101.30505943 C23.93346257 118.85057832 20.5025277 133.47338316 8.2734375 146.74609375 C-4.38222478 158.8230677 -18.71039688 162.14572185 -35.58984375 161.8984375 C-49.50408717 161.38261992 -62.17084125 154.63649061 -71.69140625 144.62109375 C-80.18435665 134.16555972 -84.99905945 122.95038758 -84.98193359 109.3918457 C-84.98865082 108.61176651 -84.99536804 107.83168732 -85.00228882 107.02796936 C-85.02114728 104.4717048 -85.02518717 101.91570462 -85.02734375 99.359375 C-85.03378135 97.56349077 -85.04051041 95.76760757 -85.04751587 93.97172546 C-85.05945922 90.21362887 -85.06319986 86.45562398 -85.06201172 82.69750977 C-85.06180899 77.91433425 -85.08907706 73.1317559 -85.12355614 68.3487215 C-85.14594824 64.63975906 -85.14984547 60.93093737 -85.14879227 57.22191429 C-85.15113106 55.46029801 -85.15985583 53.69867681 -85.175457 51.93712807 C-85.31627507 34.39160918 -81.8853402 19.76880434 -69.65625 6.49609375 C-50.76706665 -11.52936948 -21.8121867 -13.99469899 0 0 Z M-50.46484375 32.77734375 C-53.51916778 37.36855695 -53.94942566 41.39935092 -53.98193359 46.85473633 C-53.99200943 47.91920235 -53.99200943 47.91920235 -54.00228882 49.00517273 C-54.02122506 51.34206218 -54.02519092 53.67866368 -54.02734375 56.015625 C-54.03377533 57.64841325 -54.04050395 59.28120035 -54.04751587 60.91398621 C-54.05947812 64.33436757 -54.06319784 67.75464803 -54.06201172 71.17504883 C-54.06180873 75.54293397 -54.08909471 79.91016703 -54.12355614 84.27789783 C-54.14587215 87.650395 -54.14984781 91.02273649 -54.14879227 94.39529991 C-54.15114177 96.00474987 -54.15992847 97.61420455 -54.175457 99.22358131 C-54.30244993 112.52502714 -54.30244993 112.52502714 -47.7265625 123.86328125 C-47.07558594 124.40210938 -46.42460937 124.9409375 -45.75390625 125.49609375 C-45.10550781 126.05039062 -44.45710938 126.6046875 -43.7890625 127.17578125 C-37.80210544 131.3008727 -31.74205413 131.33717517 -24.69140625 130.62109375 C-18.04667711 128.84766942 -13.51772666 124.17442905 -9.69140625 118.62109375 C-7.64571351 114.4635914 -7.42833859 110.99565321 -7.40087891 106.38745117 C-7.39416168 105.67780716 -7.38744446 104.96816315 -7.38052368 104.23701477 C-7.36158744 101.90012532 -7.35762158 99.56352382 -7.35546875 97.2265625 C-7.34903717 95.59377425 -7.34230855 93.96098715 -7.33529663 92.32820129 C-7.32333438 88.90781993 -7.31961466 85.48753947 -7.32080078 82.06713867 C-7.32100377 77.69925353 -7.29371779 73.33202047 -7.25925636 68.96428967 C-7.23694035 65.5917925 -7.23296469 62.21945101 -7.23402023 58.84688759 C-7.23167073 57.23743763 -7.22288403 55.62798295 -7.2073555 54.01860619 C-7.06301426 40.69627546 -7.06301426 40.69627546 -13.69140625 29.37890625 C-14.35140625 28.84007812 -15.01140625 28.30125 -15.69140625 27.74609375 C-16.35140625 27.19179687 -17.01140625 26.6375 -17.69140625 26.06640625 C-29.41811333 17.59202809 -42.0595796 22.82250576 -50.46484375 32.77734375 Z " fill="#A0A0A0" transform="translate(286.69140625,209.37890625)"/>
<path d="M0 0 C6.80381144 3.95391306 11.04581393 9.63085422 13.5703125 17.078125 C14.85724619 25.44401786 14.69791212 33.82806883 14.66796875 42.26953125 C14.66610039 43.82608494 14.66467847 45.38263923 14.66368103 46.93919373 C14.65988872 51.00796167 14.65008703 55.07669311 14.63897705 59.14544678 C14.62869175 63.30854804 14.62416825 67.47165528 14.61914062 71.63476562 C14.60846136 79.78256871 14.59142509 87.9303423 14.5703125 96.078125 C15.25738281 96.26568359 15.94445312 96.45324219 16.65234375 96.64648438 C17.55339844 96.90236328 18.45445312 97.15824219 19.3828125 97.421875 C20.72279297 97.79602539 20.72279297 97.79602539 22.08984375 98.17773438 C26.69786304 99.85040909 28.93855763 103.1304927 31.5703125 107.078125 C32.27193463 112.2750238 32.19770789 116.75094244 29.9453125 121.515625 C24.03859659 127.88866059 24.03859659 127.88866059 19.50292969 128.23681641 C17.52539062 128.18391927 15.54785156 128.13102214 13.5703125 128.078125 C13.58602295 128.95549316 13.6017334 129.83286133 13.61791992 130.73681641 C13.66925626 134.01324452 13.70676247 137.28924098 13.73510742 140.56591797 C13.75013075 141.98004937 13.77055555 143.39413468 13.79663086 144.80810547 C13.83330204 146.84874897 13.85010286 148.88877292 13.86328125 150.9296875 C13.8789917 152.15510254 13.89470215 153.38051758 13.91088867 154.64306641 C13.40513024 159.74415683 11.80074016 162.96773906 8.0078125 166.390625 C3.05423845 169.82002242 -1.51700873 169.68776561 -7.4296875 169.078125 C-12.57822431 166.5038566 -15.6116955 163.53210099 -17.4296875 158.078125 C-17.51347378 155.7942733 -17.53698665 153.508024 -17.52734375 151.22265625 C-17.5259288 150.56101974 -17.52451385 149.89938324 -17.52305603 149.21769714 C-17.51746746 147.10862672 -17.50491715 144.99966323 -17.4921875 142.890625 C-17.48717102 141.45898591 -17.48260837 140.02734515 -17.47851562 138.59570312 C-17.4675018 135.08980912 -17.45024505 131.5839775 -17.4296875 128.078125 C-18.15552032 128.08700745 -18.88135315 128.09588989 -19.62918091 128.1050415 C-26.48494375 128.18534346 -33.34063587 128.24616851 -40.19674873 128.28537369 C-43.72121444 128.30620769 -47.24529003 128.33444702 -50.76953125 128.37988281 C-54.82555793 128.43184456 -58.88117779 128.45110467 -62.9375 128.46875 C-64.19708527 128.48939514 -65.45667053 128.51004028 -66.75442505 128.53131104 C-75.17565771 128.53346578 -78.71762667 127.68985986 -84.7421875 121.828125 C-86.93008589 118.26266096 -87.72733109 115.20804427 -87.4296875 111.078125 C-85.0004405 102.67593562 -80.30084854 95.03351735 -76.0546875 87.453125 C-75.34271804 86.17224038 -74.63097019 84.89123255 -73.91943359 83.61010742 C-68.83263484 74.47639661 -63.60815359 65.42586906 -58.30371094 56.41674805 C-54.87187846 50.58332196 -51.54643288 44.70642163 -48.3046875 38.765625 C-44.78522084 32.35282767 -41.06229002 26.09041947 -37.1796875 19.890625 C-36.69612793 19.11227295 -36.21256836 18.3339209 -35.71435547 17.53198242 C-27.66736174 4.84673348 -16.42329835 -6.23134793 0 0 Z M-17.4296875 48.078125 C-21.40499685 54.95802766 -25.37659769 61.84004536 -29.34303284 68.72506714 C-31.58925816 72.62318988 -33.84218191 76.51737461 -36.09765625 80.41015625 C-37.18770879 82.29935871 -38.277564 84.18867505 -39.3671875 86.078125 C-40.13724121 87.40203247 -40.13724121 87.40203247 -40.92285156 88.75268555 C-41.38788086 89.56133057 -41.85291016 90.36997559 -42.33203125 91.203125 C-42.73929443 91.90695312 -43.14655762 92.61078125 -43.56616211 93.3359375 C-44.57771985 95.05270924 -44.57771985 95.05270924 -44.4296875 97.078125 C-39.95053422 97.10698838 -35.47140459 97.12487687 -30.9921875 97.140625 C-29.71279297 97.14900391 -28.43339844 97.15738281 -27.11523438 97.16601562 C-25.90029297 97.16923828 -24.68535156 97.17246094 -23.43359375 97.17578125 C-22.30767822 97.18101807 -21.1817627 97.18625488 -20.02172852 97.19165039 C-17.49997879 97.37357948 -17.49997879 97.37357948 -16.4296875 96.078125 C-16.33656861 94.57393761 -16.31222722 93.06541144 -16.31616211 91.55834961 C-16.31627541 90.11696877 -16.31627541 90.11696877 -16.31639099 88.64646912 C-16.32155228 87.601689 -16.32671356 86.55690887 -16.33203125 85.48046875 C-16.33415367 83.88447594 -16.33415367 83.88447594 -16.33631897 82.25624084 C-16.34193686 78.84267417 -16.35449239 75.429172 -16.3671875 72.015625 C-16.37220019 69.70768324 -16.3767635 67.39974045 -16.38085938 65.09179688 C-16.3919121 59.42055074 -16.40866763 53.74934247 -16.4296875 48.078125 C-16.7596875 48.078125 -17.0896875 48.078125 -17.4296875 48.078125 Z " fill="#A0A0A0" transform="translate(416.4296875,201.921875)"/>
<path d="M0 0 C7.50480629 5.44098456 11.82106062 11.69160296 13.5 20.8125 C13.66677555 23.48031629 13.75511926 26.03547706 13.72705078 28.69726562 C13.72734283 29.4397052 13.72763489 30.18214478 13.72793579 30.94708252 C13.72655612 33.37109574 13.71106017 35.7947913 13.6953125 38.21875 C13.69157751 39.91125318 13.68873283 41.60375853 13.68673706 43.29626465 C13.67913888 47.7284147 13.65952358 52.16043151 13.6373291 56.5925293 C13.61678806 61.12416787 13.60771776 65.65582819 13.59765625 70.1875 C13.57627374 79.06255821 13.54218438 87.93751798 13.5 96.8125 C14.11053223 96.86075928 14.72106445 96.90901855 15.35009766 96.95874023 C16.15495605 97.03294189 16.95981445 97.10714355 17.7890625 97.18359375 C18.58521973 97.25247803 19.38137695 97.3213623 20.20166016 97.39233398 C24.07044781 98.09959801 25.92698495 99.93317363 28.5 102.8125 C31.11898198 107.30218339 32.1235275 111.71454508 31.2109375 116.85546875 C29.64204552 121.17423183 26.49719364 124.45741961 22.73828125 127.0078125 C19.64094825 128.12133885 16.76702765 127.86139978 13.5 127.8125 C13.48541748 128.72539795 13.47083496 129.6382959 13.45581055 130.57885742 C13.39459205 133.98048611 13.32041127 137.38132681 13.23754883 140.7824707 C13.20438741 142.25176422 13.17632822 143.72118244 13.15356445 145.19067383 C13.11985481 147.30864368 13.06753567 149.42547995 13.01171875 151.54296875 C12.98553467 152.81551514 12.95935059 154.08806152 12.93237305 155.39916992 C12.26483384 160.66899809 9.69802362 164.54952515 5.5 167.85546875 C1.05695868 169.98153344 -3.74674539 169.58984191 -8.5 168.8125 C-13.13581907 167.03950253 -15.10603109 164.67055875 -17.16796875 160.1796875 C-18.73505318 155.71163435 -18.87976152 151.63324492 -18.75 146.9375 C-18.74226563 145.82955078 -18.74226563 145.82955078 -18.734375 144.69921875 C-18.67774113 140.61450068 -18.40767344 136.58637346 -17.98730469 132.52294922 C-17.89632507 131.63662811 -17.80534546 130.75030701 -17.71160889 129.83712769 C-17.64177795 129.16900055 -17.57194702 128.50087341 -17.5 127.8125 C-18.2383609 127.82138245 -18.9767218 127.83026489 -19.73745728 127.8394165 C-26.71095089 127.91971259 -33.68437501 127.98054057 -40.65821266 128.01974869 C-44.24320901 128.04058423 -47.82782194 128.06882651 -51.41259766 128.11425781 C-54.8750419 128.15786192 -58.33711841 128.18166743 -61.79981613 128.19200897 C-63.75742482 128.20294821 -65.71488648 128.23415128 -67.67227173 128.26568604 C-78.71905673 128.26846545 -78.71905673 128.26846545 -83.5 123.8125 C-87.66520995 119.31845768 -87.97548643 115.63814815 -87.875 109.77563477 C-87.23465184 104.71580036 -84.90862169 100.87949322 -82.3125 96.5625 C-81.77077148 95.61777832 -81.22904297 94.67305664 -80.67089844 93.69970703 C-79.5310426 91.71462745 -78.38163981 89.73500179 -77.22314453 87.76074219 C-75.041538 84.02808698 -72.93086779 80.25793742 -70.81933594 76.48535156 C-68.65554394 72.62768879 -66.46696863 68.78430795 -64.27880859 64.94042969 C-62.71885646 62.19734614 -61.16338545 59.45177207 -59.60945129 56.70527649 C-55.27769745 49.0522349 -50.90637329 41.42281844 -46.5 33.8125 C-45.54480469 32.16048584 -45.54480469 32.16048584 -44.5703125 30.47509766 C-42.75133692 27.34802579 -40.91126663 24.2345323 -39.0625 21.125 C-38.53213135 20.21169922 -38.0017627 19.29839844 -37.45532227 18.35742188 C-28.9779374 4.27264801 -17.22891098 -5.84552337 0 0 Z M-18.5 47.8125 C-18.85602295 48.44937744 -19.2120459 49.08625488 -19.57885742 49.74243164 C-21.28119347 52.78692613 -22.98427016 55.83100545 -24.6875 58.875 C-25.31156738 59.99068359 -25.93563477 61.10636719 -26.57861328 62.25585938 C-29.81239875 68.03192901 -33.05606327 73.8018661 -36.32421875 79.55859375 C-36.92145752 80.61103271 -37.51869629 81.66347168 -38.1340332 82.74780273 C-39.28306861 84.77049822 -40.43391088 86.79216849 -41.58666992 88.81274414 C-42.10205322 89.72016357 -42.61743652 90.62758301 -43.1484375 91.5625 C-43.60395996 92.36171875 -44.05948242 93.1609375 -44.52880859 93.984375 C-45.57819254 95.61467171 -45.57819254 95.61467171 -45.5 96.8125 C-36.26 96.8125 -27.02 96.8125 -17.5 96.8125 C-17.5 80.6425 -17.5 64.4725 -17.5 47.8125 C-17.83 47.8125 -18.16 47.8125 -18.5 47.8125 Z " fill="#A0A0A0" transform="translate(151.5,202.1875)"/>
<path d="M0 0 C1.09307447 -0.00843994 2.18614894 -0.01687988 3.31234688 -0.02557558 C4.50766582 -0.01956553 5.70298476 -0.01355549 6.93452549 -0.00736332 C8.20863256 -0.01274886 9.48273962 -0.01813439 10.79545599 -0.02368313 C14.32993991 -0.03815363 17.86419097 -0.03388811 21.39868772 -0.02651632 C25.21131518 -0.02179089 29.0238918 -0.03428894 32.83650303 -0.04453373 C40.30488203 -0.06173931 47.77317696 -0.06255811 55.24157064 -0.05732083 C61.31120322 -0.0532812 67.38081093 -0.05472021 73.45044231 -0.06006908 C74.74569669 -0.06119172 74.74569669 -0.06119172 76.06711783 -0.06233703 C77.82125978 -0.06386849 79.57540172 -0.06540684 81.32954366 -0.066952 C97.78352618 -0.08068337 114.23746117 -0.07523485 130.69144262 -0.06376678 C145.74765874 -0.05383346 160.80375199 -0.06677565 175.85994916 -0.09070098 C191.31645885 -0.11507755 206.77291127 -0.12470342 222.2294398 -0.11804825 C230.90840259 -0.11455285 239.58727086 -0.11680921 248.26621914 -0.13429928 C255.65434542 -0.14900324 263.04231062 -0.14968042 270.43043368 -0.13222837 C274.20033371 -0.12370105 277.96994577 -0.12161071 281.73983097 -0.13687992 C285.82555305 -0.15322359 289.91057696 -0.13861432 293.99629307 -0.12088871 C295.7859254 -0.13529622 295.7859254 -0.13529622 297.61171192 -0.14999479 C303.8747597 -0.09389516 307.8074686 0.09380807 312.5289011 4.38031673 C316.58520508 9.60291531 316.30287654 15.03371816 315.5289011 21.38031673 C313.34084387 25.99954866 311.02652326 28.09362297 306.5289011 30.38031673 C303.91425949 30.75751489 303.91425949 30.75751489 301.0578022 30.76063347 C299.96472773 30.76907341 298.87165326 30.77751335 297.74545532 30.78620905 C296.55013638 30.780199 295.35481744 30.77418896 294.12327671 30.76799679 C292.21211611 30.77607509 292.21211611 30.77607509 290.26234621 30.7843166 C286.72786229 30.7987871 283.19361123 30.79452158 279.65911448 30.78714979 C275.84648702 30.78242436 272.0339104 30.79492241 268.22129917 30.8051672 C260.75292017 30.82237278 253.28462524 30.82319158 245.81623156 30.81795429 C239.74659898 30.81391467 233.67699127 30.81535368 227.60735989 30.82070255 C226.74385697 30.82145097 225.88035405 30.8221994 224.99068437 30.8229705 C223.23654242 30.82450196 221.48240048 30.8260403 219.72825854 30.82758547 C203.27427602 30.84131684 186.82034103 30.83586832 170.36635958 30.82440025 C155.31014346 30.81446693 140.25405021 30.82740912 125.19785304 30.85133445 C109.74134335 30.87571102 94.28489093 30.88533689 78.82836241 30.87868172 C70.14939961 30.87518632 61.47053134 30.87744268 52.79158306 30.89493275 C45.40345678 30.90963671 38.01549158 30.91031389 30.62736852 30.89286184 C26.85746849 30.88433452 23.08785643 30.88224418 19.31797123 30.89751339 C15.23224915 30.91385706 11.14722524 30.89924779 7.06150913 30.88152218 C5.86842091 30.89112719 4.67533269 30.90073219 3.44609028 30.91062826 C-2.8169575 30.85452863 -6.7496664 30.6668254 -11.4710989 26.38031673 C-15.52740288 21.15771816 -15.24507434 15.72691531 -14.4710989 9.38031673 C-11.42061947 2.94041572 -7.10753327 0.00775974 0 0 Z " fill="#A0A0A0" transform="translate(105.47109889984131,400.61968326568604)"/>
<path d="M0 0 C4.61581142 2.18643699 6.72864085 4.49599804 9 9 C9.82885269 14.54808604 9.7240695 19.47140883 7.3125 24.5625 C4.21064779 27.8320199 1.61649202 29.75850523 -2.90234375 30.43359375 C-9.05071801 30.44150672 -13.31314296 30.4465054 -18 26 C-21.88937897 20.55860924 -21.79042609 15.48149391 -21 9 C-16.63929544 -0.20593186 -9.3488659 -1.1401056 0 0 Z " fill="#9F9F9F" transform="translate(201,60)"/>
<path d="M0 0 C4.61581142 2.18643699 6.72864085 4.49599804 9 9 C9.82885269 14.54808604 9.7240695 19.47140883 7.3125 24.5625 C4.21064779 27.8320199 1.61649202 29.75850523 -2.90234375 30.43359375 C-9.05071801 30.44150672 -13.31314296 30.4465054 -18 26 C-21.88937897 20.55860924 -21.79042609 15.48149391 -21 9 C-16.63929544 -0.20593186 -9.3488659 -1.1401056 0 0 Z " fill="#9F9F9F" transform="translate(141,60)"/>
<path d="M0 0 C4.61581142 2.18643699 6.72864085 4.49599804 9 9 C9.82885269 14.54808604 9.7240695 19.47140883 7.3125 24.5625 C4.21064779 27.8320199 1.61649202 29.75850523 -2.90234375 30.43359375 C-9.05071801 30.44150672 -13.31314296 30.4465054 -18 26 C-21.88937897 20.55860924 -21.79042609 15.48149391 -21 9 C-16.63929544 -0.20593186 -9.3488659 -1.1401056 0 0 Z " fill="#9F9F9F" transform="translate(81,60)"/>
</svg>
