<?xml version="1.0" encoding="UTF-8"?>
<svg version="1.1" xmlns="http://www.w3.org/2000/svg" width="512" height="512">
<path d="M0 0 C0.96594086 0.00054382 1.93188171 0.00108765 2.92709351 0.00164795 C27.00051709 0.06377163 49.60532037 3.40415633 72.6875 10.375 C73.94022705 10.75132568 73.94022705 10.75132568 75.21826172 11.13525391 C101.96506509 19.37278198 126.80877293 32.99977734 148.6875 50.375 C149.56019531 51.055625 150.43289063 51.73625 151.33203125 52.4375 C201.403267 92.31854282 232.52415118 150.21532291 240.21801758 213.59448242 C240.73750499 218.37693313 240.88190062 223.12191611 240.92578125 227.9296875 C240.9355751 228.82070663 240.94536896 229.71172577 240.95545959 230.62974548 C241.20258714 258.95898913 238.9216722 285.10962859 230.6875 312.375 C230.43661621 313.21015137 230.18573242 314.04530273 229.92724609 314.90576172 C221.68971802 341.65256509 208.06272266 366.49627293 190.6875 388.375 C190.006875 389.24769531 189.32625 390.12039063 188.625 391.01953125 C148.74395718 441.090767 90.84717709 472.21165118 27.46801758 479.90551758 C22.68556687 480.42500499 17.94058389 480.56940062 13.1328125 480.61328125 C12.24179337 480.6230751 11.35077423 480.63286896 10.43275452 480.64295959 C-9.47546868 480.81662714 -28.77175224 480.64872546 -48.3125 476.375 C-49.29863281 476.16069336 -50.28476563 475.94638672 -51.30078125 475.72558594 C-86.33989099 467.83834203 -119.16126946 452.73159769 -147.3125 430.375 C-148.18519531 429.694375 -149.05789062 429.01375 -149.95703125 428.3125 C-196.52548078 391.22137768 -228.15998913 337.30478473 -237.3125 278.375 C-237.48910156 277.25053467 -237.66570312 276.12606934 -237.84765625 274.9675293 C-239.4500906 263.66249807 -239.71174147 252.46958054 -239.6875 241.0625 C-239.68695618 240.09655914 -239.68641235 239.13061829 -239.68585205 238.13540649 C-239.62372837 214.06198291 -236.28334367 191.45717963 -229.3125 168.375 C-228.93617432 167.12227295 -228.93617432 167.12227295 -228.55224609 165.84423828 C-220.31471802 139.09743491 -206.68772266 114.25372707 -189.3125 92.375 C-188.631875 91.50230469 -187.95125 90.62960938 -187.25 89.73046875 C-150.15887768 43.16201922 -96.24228473 11.52751087 -37.3125 2.375 C-36.18803467 2.19839844 -35.06356934 2.02179687 -33.9050293 1.83984375 C-22.59999807 0.2374094 -11.40708054 -0.02424147 0 0 Z M-26.3125 108.375 C-40.84676432 125.73360826 -34.95967302 150.16615308 -33.1953125 170.96875 C-32.97546656 173.61328693 -32.75605374 176.25785693 -32.53707886 178.90246582 C-32.07967385 184.41294269 -31.61653133 189.92291424 -31.14990234 195.43261719 C-30.61250642 201.77882183 -30.0846749 208.12576865 -29.56178963 214.47318411 C-29.05493161 220.62301185 -28.54103456 226.77223273 -28.02407455 232.92121887 C-27.80621865 235.52050473 -27.59014483 238.11994061 -27.37591934 240.7195282 C-27.07583117 244.34936554 -26.76772954 247.97843739 -26.45751953 251.60742188 C-26.3712027 252.67044525 -26.28488586 253.73346863 -26.19595337 254.82870483 C-25.22444853 265.98153086 -24.02357406 274.53928343 -15.24609375 282.171875 C-7.88899769 287.86244654 -1.51590408 288.0711418 7.6875 287.375 C14.77231878 285.68105302 19.5633973 280.1158284 23.6875 274.375 C25.6885306 270.22840918 26.23597377 266.14148309 26.67724609 261.61157227 C26.75836828 260.83133729 26.83949047 260.05110231 26.92307091 259.24722385 C28.02978078 248.37378636 28.93609245 237.48067034 29.8515625 226.58984375 C30.0504802 224.23490855 30.24940407 221.87997387 30.44833374 219.52503967 C30.86195715 214.61963151 31.27337236 209.71404337 31.68359375 204.80834961 C32.20607242 198.56598658 32.73738206 192.32440843 33.27076149 186.08296871 C33.68392013 181.22993921 34.09067104 176.37638734 34.49573898 171.52267647 C34.68874847 169.22271646 34.88406165 166.92294841 35.08186722 164.62339592 C38.89763619 134.85914638 38.89763619 134.85914638 27.671875 108.37890625 C24.37030951 105.04484503 20.7912405 102.62125796 16.6875 100.375 C16.09710938 100.0346875 15.50671875 99.694375 14.8984375 99.34375 C0.91707773 92.69182553 -15.82515816 98.18901856 -26.3125 108.375 Z M-23.3125 331.375 C-29.86621777 340.74592676 -31.19039787 347.93759821 -30.3125 359.375 C-28.12872185 368.62174063 -23.15351899 374.80638233 -15.1875 379.75 C-7.32708088 384.32912267 1.73612774 384.78051976 10.58203125 382.69140625 C20.46555786 379.03252774 26.0831627 372.73818257 30.6875 363.375 C33.46216577 355.2359804 32.55686703 345.22936893 28.9375 337.55078125 C24.601507 330.00344344 18.13247274 324.5721498 9.796875 321.73046875 C-2.5694774 319.64650936 -14.82094027 321.59935075 -23.3125 331.375 Z " fill="#FF6073" transform="translate(255.3125,15.625)"/>
</svg>
