<?xml version="1.0" encoding="UTF-8"?>
<svg version="1.1" xmlns="http://www.w3.org/2000/svg" width="717" height="717">
<path d="M0 0 C236.61 0 473.22 0 717 0 C717 236.61 717 473.22 717 717 C480.39 717 243.78 717 0 717 C0 480.39 0 243.78 0 0 Z " fill="#396793" transform="translate(0,0)"/>
<path d="M0 0 C3.19875265 2.36363243 6.36939438 4.76408386 9.53369141 7.17358398 C14.74502048 11.12132089 20.08232796 14.84186696 25.5 18.5 C31.45289178 22.52238571 37.28693905 26.64349448 43 31 C48.81804311 35.43545768 54.76024947 39.63995603 60.8125 43.75 C61.6176001 44.29865723 62.4227002 44.84731445 63.25219727 45.41259766 C67.54084072 48.33524592 67.54084072 48.33524592 71.84472656 51.23535156 C79.15383584 56.14099566 84.12041978 60.05929409 86 69 C86.74191513 75.47047298 85.93500883 80.69931163 82 86 C77.48190318 90.40626274 72.28404912 92.7149397 65.9453125 93.13671875 C53.69073737 92.72241817 42.82213344 81.24641909 33.52124023 74.10400391 C31.97857833 72.92120565 31.97857833 72.92120565 30 72 C33.10940812 79.55141971 38.14116634 85.17397933 43.46484375 91.22949219 C45.00656177 93.00756774 46.50718254 94.81356302 48 96.6328125 C53.27152028 103.01805843 58.51258077 108.69220671 65.13671875 113.7421875 C67.60757815 115.69055958 69.90023855 117.71318726 72.22265625 119.83203125 C97.09605619 142.07456604 129.83109027 155.60215499 162 163 C162.92296875 163.22171875 163.8459375 163.4434375 164.796875 163.671875 C172.02469339 165.27266699 179.41790924 166.03923023 186.77636719 166.77539062 C188.19463195 166.91864969 189.61210607 167.07014022 191.02832031 167.23242188 C241.40796235 172.84949099 296.52806666 153.80028203 336 123 C340.54351554 119.28838077 344.94863055 115.42514138 349.30761719 111.49951172 C351.05927867 109.94747697 352.85094025 108.45168122 354.6484375 106.953125 C357.62004426 104.41513615 360.07938028 101.70496763 362.5 98.625 C365.02564402 95.44990466 367.55706382 92.35167558 370.3125 89.375 C380.03063604 78.27175032 387.62196882 65.74100457 394.37158203 52.66772461 C398.14939733 45.61414737 400.95900276 43.12252516 408.30078125 40.03125 C414.71711498 38.33683954 419.30030806 39.74588516 425 43 C429.74912166 46.94076052 432.83799722 51.00697465 433.9375 57.125 C435.61615896 79.84285129 408.34899266 107.47369741 394.75 123.3125 C394.24210937 123.89990967 393.73421875 124.48731934 393.2109375 125.0925293 C392.72367188 125.65625244 392.23640625 126.21997559 391.734375 126.80078125 C391.26306152 127.34589355 390.79174805 127.89100586 390.30615234 128.45263672 C389.15172002 129.82026141 388.05174736 131.23345506 386.9609375 132.65234375 C384.8050817 135.23335837 382.5158798 137.17117333 379.875 139.25 C376.20822666 142.1814837 372.68192588 145.17263438 369.25 148.375 C323.89458832 189.50963993 260.29578352 209.14223814 200 208 C199.00484375 207.98598145 198.0096875 207.97196289 196.984375 207.95751953 C176.91490727 207.62867859 157.15907054 205.10438166 138 199 C136.07015728 198.4825784 134.14030299 197.96519934 132.21020508 197.44873047 C76.38431973 182.08860512 24.55412051 141.97030273 -6 93 C-7.66339999 99.53478569 -8.54488689 106.00981385 -9.21435547 112.70678711 C-10.7139943 126.88444481 -10.7139943 126.88444481 -15 132 C-20.37865141 135.87482439 -25.3615223 138 -32 138 C-34.83824897 137.30362665 -37.37183412 136.2660412 -40 135 C-40.9075 134.5875 -41.815 134.175 -42.75 133.75 C-47.08952007 130.37481772 -48.70531169 126.47344155 -49.75 121.25 C-50.53095518 111.61566407 -49.77501013 102.07252251 -48.828125 92.48046875 C-48.7058403 91.19913559 -48.5835556 89.91780243 -48.45756531 88.59764099 C-48.12969129 85.1664975 -47.79507724 81.73604914 -47.45804977 78.30579376 C-47.24923087 76.179669 -47.04146635 74.05344366 -46.83401489 71.92718506 C-46.28002352 66.2513528 -45.72538652 60.57558969 -45.1643219 54.90045166 C-44.4607451 47.77589243 -43.77689369 40.65022414 -43.13894653 33.51942444 C-42.82309743 30.00742315 -42.49216798 26.49696289 -42.15734863 22.98672485 C-42.01268333 21.43265728 -41.87487888 19.87793318 -41.74450684 18.32260132 C-41.05676018 10.16633472 -40.41121722 2.53924117 -35 -4 C-32.46484375 -5.9375 -32.46484375 -5.9375 -29.9375 -7 C-28.68259766 -7.556875 -28.68259766 -7.556875 -27.40234375 -8.125 C-16.92561625 -11.94091376 -8.50937846 -6.06427858 0 0 Z " fill="#FDFEFE" transform="translate(152,406)"/>
<path d="M0 0 C62.31918903 -1.81332557 123.26074338 22.01265174 169.7265625 63.10742188 C170.665 63.935 171.6034375 64.76257813 172.5703125 65.61523438 C188.80671912 80.08473792 203.19499387 96.62531872 214.7265625 115.10742188 C216.27268374 110.2579412 216.98277135 106.04551719 217.1640625 100.91992188 C217.65402347 92.24675304 218.5619293 83.35730604 223.7265625 76.10742188 C228.44995311 72.4824942 233.73458465 70.10742188 239.7265625 70.10742188 C245.08790049 71.33181048 251.46373699 73.09287806 254.87890625 77.64257812 C260.88064925 87.36070292 258.94684703 99.62698522 257.80859375 110.50976562 C257.71128464 111.48592331 257.61397552 112.46208099 257.51371765 113.46781921 C257.1943208 116.66076777 256.8672154 119.85286213 256.5390625 123.04492188 C256.07466355 127.60329824 255.61289146 132.16193614 255.15234375 136.72070312 C254.97416611 138.47746368 254.97416611 138.47746368 254.79238892 140.26971436 C253.94098633 148.74508273 253.18242167 157.22591201 252.45703125 165.71289062 C252.14712102 169.24460319 251.83542943 172.77615357 251.52304077 176.30764771 C251.32668884 178.57581068 251.1374831 180.84460457 250.95571899 183.11398315 C250.70019308 186.29341989 250.4190799 189.46968901 250.1328125 192.64648438 C250.06511154 193.57563156 249.99741058 194.50477875 249.92765808 195.46208191 C249.3158765 201.87201564 247.50158247 206.84834816 243.7265625 212.10742188 C241.26171875 214.04492188 241.26171875 214.04492188 238.7890625 215.10742188 C237.97566406 215.47867188 237.16226562 215.84992188 236.32421875 216.23242188 C229.48291889 218.53685972 225.66284815 217.89839259 219.17578125 215.00195312 C213.72533064 212.00821751 208.96331179 208.23163262 204.06640625 204.41992188 C199.58451339 200.94848094 194.92869517 197.77097686 190.2265625 194.60742188 C184.27296148 190.58615617 178.43957668 186.46385565 172.7265625 182.10742188 C166.99055742 177.7348283 161.13531616 173.59023429 155.1640625 169.54492188 C149.16722624 165.47819961 143.2096499 161.37230866 137.3515625 157.10742188 C136.75142334 156.67486084 136.15128418 156.2422998 135.53295898 155.79663086 C129.98331731 151.72201925 125.09368205 147.71043956 122.7265625 141.10742188 C121.96420176 134.79966997 122.53824518 129.71446267 125.7265625 124.10742188 C130.55190346 118.52018497 134.85729857 115.98299065 142.0546875 114.92773438 C149.94648338 115.45846919 155.72782028 119.13180688 161.7265625 123.98242188 C167.18862537 128.24917858 172.50337041 131.99582583 178.7265625 135.10742188 C174.71989909 128.33087862 170.42076978 122.38400802 165.0390625 116.63867188 C162.67492901 114.05090413 160.51800548 111.36189938 158.3515625 108.60742188 C136.3866848 81.59707141 102.71507098 63.31935741 70.41943359 52.04882812 C68.12364581 51.24623903 65.84082139 50.41618603 63.55859375 49.57617188 C51.29983542 45.33921431 38.55264261 43.70809561 25.7265625 42.10742188 C24.68838379 41.97674316 23.65020508 41.84606445 22.58056641 41.71142578 C8.64643529 40.04236066 -4.5873907 40.04971392 -18.51367188 41.76757812 C-21.18643982 42.09670879 -23.86126789 42.38509279 -26.5390625 42.66992188 C-70.02597401 47.68480596 -110.04976551 68.74655913 -141.984375 98.06445312 C-144.2734375 100.10742188 -144.2734375 100.10742188 -146.7890625 102.04101562 C-149.47030737 104.27117055 -151.48583343 106.62488966 -153.6484375 109.35742188 C-156.21693197 112.57120314 -158.79233767 115.71342157 -161.5859375 118.73242188 C-171.29635122 129.82684859 -178.89875866 142.32963971 -185.55712891 155.43969727 C-188.860481 161.64720644 -191.56337505 164.83726133 -198.2734375 167.10742188 C-198.95140381 167.37522461 -199.62937012 167.64302734 -200.32788086 167.91894531 C-204.48530045 169.49114904 -207.31468673 169.06214253 -211.4609375 167.54492188 C-217.88145647 164.60054278 -221.67893799 160.72339562 -224.2734375 154.10742188 C-226.48189246 144.48486812 -222.5301005 136.90946443 -217.8359375 128.60742188 C-217.40490723 127.83914062 -216.97387695 127.07085937 -216.52978516 126.27929688 C-206.83035933 109.34938997 -194.39047886 94.43720507 -181.66162109 79.73681641 C-180.32378376 78.16651631 -179.03164876 76.56592628 -177.73828125 74.95898438 C-175.3351358 72.17880026 -172.9066883 70.00024195 -170.0234375 67.73242188 C-166.58672242 64.99036197 -163.25177589 62.21618917 -160.0234375 59.23242188 C-115.97516075 19.85357376 -58.05227737 1.90505684 0 0 Z " fill="#FDFEFE" transform="translate(355.2734375,101.892578125)"/>
</svg>
