<?xml version="1.0" encoding="UTF-8"?>
<svg version="1.1" xmlns="http://www.w3.org/2000/svg" width="512" height="512">
<path d="M0 0 C4.32179542 4.02904106 8.52521289 8.17044672 12.71317101 12.3378849 C13.66862905 13.28541288 14.62425664 14.23276992 15.58003807 15.17997169 C18.6772724 18.25135344 21.76939464 21.32785292 24.86087608 24.40502357 C25.93489697 25.47367238 27.00892055 26.54231847 28.08294678 27.61096191 C32.55226386 32.05871757 37.02016664 36.50788595 41.48437595 40.9607687 C47.83899274 47.2991419 54.20196796 53.62885114 60.57685107 59.94684297 C65.08532528 64.41646906 69.58403497 68.89577837 74.07576162 73.3822338 C76.74745819 76.05030163 79.42305514 78.71414043 82.10924911 81.36761856 C84.63622886 83.86424819 87.15074574 86.37281746 89.65674591 88.89049911 C91.00074635 90.23482088 92.35702917 91.56682938 93.71384239 92.89821815 C104.50420736 103.79807816 110.98277785 115.88008395 111.16116905 131.31469154 C111.145942 132.83473793 111.145942 132.83473793 111.13040733 134.38549232 C111.11904747 135.97321449 111.11904747 135.97321449 111.10745811 137.59301186 C110.94768594 145.15828254 110.1789349 151.69047577 106.69290733 158.51049232 C106.26880577 159.36127357 105.84470421 160.21205482 105.40775108 161.08861732 C99.47494512 171.86351841 91.43330431 179.62922078 80.69290733 185.51049232 C79.98779015 185.9101017 79.28267296 186.30971107 78.55618858 186.72142982 C74.18699532 188.93515441 69.8008347 190.01267729 65.00540733 190.94799232 C64.0444339 191.15095169 64.0444339 191.15095169 63.06404686 191.35801125 C58.52578697 192.23510447 54.41102724 192.50987315 49.78983116 192.30883217 C24.58287071 192.42535357 9.35996162 210.04154818 -7.35396767 226.89525795 C-9.75957295 229.34324897 -12.15552264 231.800656 -14.55154711 234.2580201 C-18.44216746 238.23349615 -22.42855372 242.10025956 -26.44441569 245.94863337 C-30.83849791 250.16649448 -35.1432457 254.46554915 -39.41928673 258.80290604 C-41.22500114 260.61599434 -43.05346111 262.40674986 -44.90531731 264.17268372 C-54.96969407 273.43834577 -54.96969407 273.43834577 -59.63264465 285.80145454 C-59.33495517 292.64960492 -57.8227911 299.06116672 -55.99931145 305.64387989 C-55.00388394 309.76613856 -54.81170618 313.77712697 -54.81099892 318.00267982 C-54.80770923 318.74426653 -54.80441954 319.48585323 -54.80103016 320.24991226 C-54.80174654 322.29590689 -54.83324744 324.33983915 -54.86959267 326.38549232 C-54.87674294 327.12431648 -54.8838932 327.86314064 -54.89126015 328.62435341 C-55.0092692 340.43996989 -55.64596516 351.96698505 -58.30709267 363.51049232 C-58.6051078 364.82050209 -58.6051078 364.82050209 -58.90914345 366.1569767 C-64.82526385 391.34591179 -75.45466858 415.01308648 -91.30709267 435.51049232 C-92.45371376 436.99355873 -92.45371376 436.99355873 -93.62349892 438.50658607 C-109.60386793 458.54457922 -109.60386793 458.54457922 -122.18209267 460.44799232 C-128.32433724 460.81539652 -134.19387588 459.81881475 -139.22369576 456.08940983 C-144.33142506 451.47377857 -149.2534096 446.70021837 -154.10982704 441.82128334 C-154.94980232 440.98145409 -155.7897776 440.14162483 -156.65520668 439.27634621 C-159.40613157 436.52472967 -162.15350635 433.7695977 -164.90084267 431.01439857 C-166.81705162 429.09576377 -168.73401704 427.17788546 -170.65096474 425.25998878 C-175.16470651 420.74315256 -179.67589552 416.22377584 -184.18614817 411.70345587 C-189.32571613 406.55266788 -194.46816124 401.40475643 -199.61083698 396.25707161 C-210.17943539 385.67805156 -220.74445763 375.09546678 -231.30709267 364.51049232 C-235.15384061 366.09364091 -237.56914394 368.53638075 -240.47976112 371.46956825 C-240.98797834 371.97889888 -241.49619556 372.48822952 -242.0198133 373.01299441 C-243.7209466 374.72019778 -245.41481488 376.43443156 -247.10885048 378.14867592 C-248.32751158 379.37444999 -249.54664471 380.59975491 -250.76621437 381.82462502 C-253.39190119 384.46341419 -256.01454544 387.10517806 -258.63498116 389.74918175 C-262.78137905 393.93216919 -266.93646551 398.10645159 -271.09316444 402.2791996 C-282.91205484 414.14638739 -294.71920991 426.02521015 -306.51754189 437.91283607 C-313.03360934 444.47806495 -319.55689486 451.03603616 -326.08794665 457.58635962 C-330.21861631 461.73009072 -334.34011948 465.88266176 -338.45501089 470.04205871 C-341.02202373 472.63259657 -343.59742303 475.21466946 -346.1752243 477.79446793 C-347.3654826 478.98900734 -348.5523134 480.18697374 -349.73535538 481.38866043 C-362.8309295 494.68250102 -362.8309295 494.68250102 -372.05318642 496.07689857 C-381.42529407 496.066981 -387.48277895 495.12101179 -394.33443642 488.57299232 C-399.73694499 482.73960883 -401.59987239 478.24735707 -401.68209267 470.19799232 C-401.71045204 468.94373451 -401.73881142 467.6894767 -401.76803017 466.39721107 C-400.48940484 455.61558226 -392.50808542 449.16552147 -385.19478798 441.94408607 C-383.94212272 440.69255027 -382.6903399 439.4401307 -381.43937111 438.18689919 C-378.05398431 434.80036815 -374.6564367 431.42628328 -371.25652218 428.05434608 C-367.70059299 424.52347874 -364.15604239 420.98122573 -360.61025429 417.44017982 C-353.89997223 410.74231345 -347.17956213 404.05470608 -340.45542693 397.37075043 C-332.79823692 389.75832181 -325.15244724 382.1344865 -317.50758028 374.50968552 C-301.78671075 358.83058844 -286.05162392 343.16582643 -270.30709267 327.51049232 C-271.7254426 324.27970101 -273.42832649 322.15406886 -275.93743324 319.6867466 C-276.6916758 318.93987083 -277.44591835 318.19299507 -278.22301674 317.42348671 C-279.05110847 316.61358284 -279.87920021 315.80367897 -280.73238564 314.96923256 C-282.03991798 313.6781282 -282.03991798 313.6781282 -283.37386513 312.36094093 C-285.26856694 310.49060245 -287.16492151 308.62211128 -289.06392479 306.75615692 C-292.07204988 303.79905462 -295.06977371 300.83155853 -298.06542397 297.86182594 C-306.58466677 289.41861572 -315.11012522 280.98185174 -323.6630497 272.57274818 C-328.38818718 267.9268965 -333.10052171 263.26845167 -337.79911339 258.59575039 C-340.28259659 256.12704484 -342.77211296 253.66521066 -345.27766991 251.21889496 C-348.07856811 248.48415241 -350.85151925 245.72206881 -353.62301064 242.95751381 C-354.44705391 242.16177956 -355.27109718 241.3660453 -356.12011147 240.54619789 C-362.06373014 234.54992052 -366.08655277 228.1556006 -366.42429352 219.51052952 C-365.94360151 208.48776267 -360.64754445 202.03189229 -352.88521767 194.71752357 C-319.65105143 164.45664813 -277.21671656 149.49079313 -232.68209267 149.07299232 C-231.60736198 149.05453255 -231.60736198 149.05453255 -230.51091957 149.03569984 C-228.34589352 149.00467314 -226.18325586 149.00510767 -224.01803017 149.01439857 C-223.31960723 149.01445271 -222.62118429 149.01450684 -221.90159702 149.01456261 C-217.16395397 149.12919645 -212.96148124 149.77662167 -208.38866615 151.03969765 C-196.91825679 154.15942179 -196.91825679 154.15942179 -185.47156334 152.37660217 C-178.63096937 148.11599547 -173.32892084 142.1584042 -167.90084267 136.28002357 C-166.11046952 134.45137954 -164.31383242 132.62884955 -162.5113163 130.81217384 C-158.76680113 127.00838451 -155.07367698 123.16419535 -151.42135048 119.27245522 C-146.2837602 113.79847949 -141.04053407 108.43526897 -135.77500629 103.08469737 C-131.66837299 98.90189199 -127.59750383 94.6843198 -123.52584267 90.46752357 C-122.23096176 89.13244224 -122.23096176 89.13244224 -120.90992165 87.77038956 C-118.46963435 85.23935333 -116.05562182 82.68595741 -113.64888954 80.12304115 C-112.9301667 79.3823539 -112.21144386 78.64166664 -111.47094154 77.87853432 C-106.95961972 73.0024052 -105.08089147 69.09725136 -104.30709267 62.51049232 C-103.99892616 60.59164223 -103.99892616 60.59164223 -103.68453407 58.63402748 C-103.51099403 57.3686515 -103.33745399 56.10327553 -103.15865517 54.79955482 C-102.95602849 53.37500469 -102.75288746 51.95052763 -102.54928017 50.52611732 C-102.23920704 48.33310804 -101.93267924 46.13982025 -101.63521767 43.94506264 C-99.03140066 24.85325964 -93.17193793 8.14828649 -77.68209267 -4.11450768 C-53.47493024 -21.76619009 -21.97821009 -20.03197791 0 0 Z M-47.05709267 37.38549232 C-52.13393271 42.1802857 -51.77571032 51.63758524 -52.45553017 58.29564857 C-52.65804221 60.14402313 -52.86118625 61.99232852 -53.06490517 63.84057045 C-53.37640153 66.71208546 -53.68320974 69.58384432 -53.97896767 72.45702553 C-54.26981772 75.25908836 -54.58001168 78.058487 -54.89303017 80.85814857 C-55.01670464 82.13191101 -55.01670464 82.13191101 -55.14287758 83.43140602 C-55.23622383 84.24262413 -55.32957008 85.05384224 -55.42574501 85.88964272 C-55.53660942 86.94146484 -55.53660942 86.94146484 -55.64971352 88.0145359 C-58.05393285 97.14294634 -63.95035474 102.7280582 -70.47237587 109.19335365 C-71.51661052 110.24301635 -72.55999405 111.29352635 -73.60259438 112.34481239 C-76.42196871 115.18233951 -79.25374922 118.00716691 -82.08856034 120.82926202 C-85.06082298 123.7913579 -88.02326897 126.76324625 -90.98731422 129.73356056 C-95.96425998 134.71777089 -100.9495515 139.69351657 -105.93966103 144.66454506 C-111.70143322 150.40453894 -117.44863807 156.15881663 -123.18851215 161.9207018 C-128.12651727 166.87688054 -133.07230189 171.82519461 -138.02462834 176.76706332 C-140.978338 179.7145504 -143.92931065 182.66464134 -146.87327957 185.6218605 C-149.64105008 188.4012178 -152.41848472 191.17054652 -155.20355797 193.93256187 C-156.22161916 194.94535163 -157.23632448 195.96152813 -158.24731827 196.98137283 C-165.91047449 204.70538868 -171.70131363 209.07563276 -182.79146767 209.70971107 C-188.15438166 209.68596251 -193.01376826 208.15277256 -198.11959267 206.63549232 C-231.2872936 196.93353362 -264.58816274 200.58401729 -294.99459267 216.94799232 C-297.11161313 218.11523451 -299.2116605 219.30460087 -301.30709267 220.51049232 C-301.62119431 223.53021262 -301.62119431 223.53021262 -299.76644325 225.41863441 C-299.0444474 226.13698463 -298.32245155 226.85533485 -297.57857704 227.59545326 C-296.76352699 228.41350441 -295.94847694 229.23155556 -295.10872841 230.07439613 C-294.21512611 230.95565163 -293.32152382 231.83690712 -292.40084267 232.74486732 C-291.03095192 234.11194832 -291.03095192 234.11194832 -289.63338661 235.50664711 C-287.69417802 237.4412462 -285.75015945 239.37082821 -283.80220985 241.29662514 C-281.32555014 243.74523958 -278.85742409 246.20222311 -276.39250374 248.66264915 C-274.02340783 251.02653764 -271.64967169 253.38573131 -269.27584267 255.74486732 C-268.39843422 256.61802589 -267.52102577 257.49118446 -266.61702919 258.39080238 C-262.92949975 262.03616893 -259.23677657 265.62567579 -255.30318642 269.00560951 C-250.42278621 273.20796449 -245.93106122 277.78101999 -241.40084267 282.35424232 C-239.98846334 283.77240883 -238.57608106 285.19057239 -237.16353035 286.60856819 C-234.21397243 289.57115678 -231.26902954 292.53833253 -228.32326698 295.50469398 C-225.8883216 297.95630263 -223.4523445 300.40686563 -221.01375771 302.85485268 C-219.19488653 304.68117662 -217.37826615 306.50974593 -215.56429482 308.34093666 C-211.2453147 312.67701339 -206.86001543 316.83668606 -202.21834755 320.82409096 C-198.85952854 323.78775479 -195.73453016 326.98072233 -192.58834267 330.16674232 C-191.5350779 331.22568703 -191.5350779 331.22568703 -190.46053505 332.30602455 C-187.493255 335.28946608 -184.53203904 338.27889943 -181.57027626 341.26781654 C-179.39090802 343.46539811 -177.2084432 345.6598717 -175.02584267 347.85424232 C-174.37039467 348.51798866 -173.71494667 349.181735 -173.03963661 349.86559486 C-169.18363694 353.7416766 -165.20604349 357.40363818 -161.06698036 360.97545815 C-159.06315803 362.72326045 -157.16828815 364.54940675 -155.30709267 366.44799232 C-154.31709267 367.44959389 -154.31709267 367.44959389 -153.30709267 368.47142982 C-151.97375933 369.83080482 -150.640426 371.19017982 -149.30709267 372.54955482 C-144.81471559 377.09457695 -140.15045649 381.34422667 -135.30709267 385.51049232 C-133.46983165 387.15193999 -131.6358276 388.79705107 -129.80709267 390.44799232 C-128.95115517 391.22014076 -128.09521767 391.9922892 -127.21334267 392.78783607 C-126.58428017 393.35631264 -125.95521767 393.9247892 -125.30709267 394.51049232 C-109.50716505 376.63440495 -103.72140204 343.64571605 -105.1342411 320.62475014 C-106.26649161 306.77547131 -108.06334003 292.77375224 -113.40865517 279.84642982 C-115.37549253 274.73265267 -114.58290822 269.64934331 -112.52946758 264.65441513 C-107.67091537 256.13300263 -99.04197592 249.08132231 -92.17257118 242.16723061 C-91.192251 241.1773395 -90.21209231 240.18728843 -89.23208046 239.19709206 C-86.05384339 235.98789218 -82.8704274 232.78385972 -79.68599892 229.58080482 C-79.14125758 229.03276617 -78.59651624 228.48472751 -78.03526759 227.92008162 C-72.88638758 222.74048065 -67.73547481 217.56290896 -62.57973766 212.3901329 C-56.02197046 205.81042085 -49.47450934 199.22080887 -42.94052178 192.61747944 C-38.32230761 187.9519438 -33.69257933 183.29803175 -29.05427307 178.65247142 C-26.29329156 175.88655399 -23.53751803 173.11589051 -20.79409409 170.33254814 C-18.21583615 167.71725679 -15.62351704 165.11674967 -13.02007484 162.52653503 C-11.6235746 161.12995575 -10.24192251 159.71857735 -8.86091042 158.30668068 C-0.53158613 150.07227789 7.36514605 147.17977229 18.86478233 146.13158607 C19.79083275 146.03338066 20.71688316 145.93517525 21.67099571 145.83399391 C24.59374602 145.52492504 27.51786564 145.23450038 30.44290733 144.94799232 C33.38207226 144.65687366 36.32042996 144.36128889 39.25766563 144.05127907 C41.07515717 143.85962415 42.89381742 143.67864811 44.71359825 143.51011086 C49.61338401 142.99557794 53.44243901 142.21132823 57.69290733 139.51049232 C59.10809252 137.18461391 59.10809252 137.18461391 58.69290733 134.51049232 C57.07304882 132.76847507 55.41475935 131.14822967 53.69290733 129.51049232 C52.33778204 128.15199891 50.98701846 126.78914818 49.63933372 125.42327309 C48.86702919 124.64374275 48.09472466 123.86421242 47.29901695 123.06105995 C46.46615166 122.22033943 45.63328636 121.37961891 44.77518272 120.51342201 C35.73013841 111.38660908 26.67240525 102.27249526 17.60719204 93.16571617 C12.12381175 87.65651002 6.64525349 82.14265969 1.17752647 76.6179142 C-3.60390049 71.786653 -8.39405213 66.96424539 -13.1948815 62.15226102 C-15.73228632 59.6083451 -18.26512239 57.06023135 -20.78751373 54.50142097 C-23.59811562 51.65055664 -26.42800766 48.81962755 -29.25997353 45.98998451 C-30.09081459 45.14116707 -30.92165565 44.29234962 -31.77767372 43.41781044 C-32.55279808 42.6495594 -33.32792244 41.88130836 -34.12653542 41.08977699 C-34.7929502 40.41875324 -35.45936499 39.74772949 -36.14597416 39.05637169 C-39.68985716 36.52138086 -42.93661082 36.07442992 -47.05709267 37.38549232 Z " fill="#556C83" transform="translate(401.307092666626,16.4895076751709)"/>
</svg>
