<?xml version="1.0" encoding="UTF-8"?>
<svg version="1.1" xmlns="http://www.w3.org/2000/svg" width="717" height="717">
<path d="M0 0 C236.61 0 473.22 0 717 0 C717 236.61 717 473.22 717 717 C480.39 717 243.78 717 0 717 C0 480.39 0 243.78 0 0 Z " fill="#396793" transform="translate(0,0)"/>
<path d="M0 0 C8.7062238 5.8922243 15.8424686 13.84499968 23.0925293 21.38891602 C25.03423126 23.27482788 27.01362387 25.03793934 29.06347656 26.80273438 C33.80558617 30.92290438 38.23689866 35.32349491 42.671875 39.76953125 C43.5317955 40.62849503 44.391716 41.4874588 45.2776947 42.37245178 C47.08487736 44.17895765 48.89081267 45.98671212 50.69555664 47.7956543 C53.44110268 50.5465556 56.19194421 53.29207971 58.94335938 56.03710938 C60.70735195 57.80176282 62.47103425 59.56672647 64.234375 61.33203125 C65.04810074 62.14373276 65.86182648 62.95543427 66.70021057 63.79173279 C70.91514161 68.02381875 74.97868835 72.32367091 78.85336304 76.87051392 C80.89605218 79.19737854 83.09268957 81.33745637 85.32080078 83.48486328 C95.11411233 92.92579181 102.02182033 101.85962169 102.82421875 115.9921875 C102.27144415 129.98743539 95.08987992 140.40150302 85.49462891 149.83398438 C84.71510361 150.61234146 83.93557831 151.39069855 83.13243103 152.19264221 C80.57046275 154.74746088 77.99814558 157.29159038 75.42578125 159.8359375 C73.63292744 161.62064618 71.84081438 163.40609925 70.04940796 165.19226074 C65.82041736 169.40591145 61.58517788 173.61317162 57.34642637 177.81699514 C49.31535838 185.78235741 41.29849175 193.76199307 33.28290939 201.74293518 C30.65845085 204.35350691 28.03017051 206.96018089 25.40127563 209.56628418 C23.77996283 211.17756565 22.15873252 212.78893013 20.53759766 214.40039062 C19.81320999 215.11646988 19.08882233 215.83254913 18.34248352 216.57032776 C17.65854019 217.25131027 16.97459686 217.93229279 16.26992798 218.63391113 C15.68555277 219.21346809 15.10117756 219.79302505 14.49909401 220.39014435 C12.64000984 222.3501468 10.87208462 224.35283102 9.10612202 226.39610195 C5.55597235 230.47444143 1.82185245 234.32215364 -2.00694275 238.13783264 C-3.07325459 239.20648446 -3.07325459 239.20648446 -4.16110808 240.29672521 C-6.52293173 242.66250961 -8.88828004 245.02473673 -11.25366211 247.38696289 C-12.95618539 249.09084239 -14.65849611 250.7949343 -16.36061096 252.4992218 C-20.49196111 256.63464841 -24.6256358 260.76774028 -28.76047748 264.89967567 C-32.12306615 268.25999935 -35.48466946 271.62130585 -38.84558296 274.98330498 C-39.32523761 275.46311285 -39.80489225 275.94292073 -40.29908188 276.43726824 C-41.27370552 277.41221162 -42.24832692 278.38715724 -43.22294611 279.36210506 C-52.3466549 288.48866049 -61.47341752 297.61215705 -70.60123969 306.73459827 C-78.42103676 314.54992805 -86.23820839 322.36787584 -94.0534668 330.18774414 C-103.1448735 339.28451102 -112.23791136 348.37964233 -121.33353144 357.47219652 C-122.3047443 358.44309086 -123.27595509 359.41398727 -124.24716377 360.38488579 C-124.72492835 360.86249609 -125.20269292 361.34010639 -125.69493521 361.83218973 C-129.04998129 365.18637498 -132.40387096 368.54171382 -135.75730705 371.89750862 C-140.2768181 376.41991481 -144.7987809 380.93985528 -149.3226223 385.45792961 C-150.97945909 387.11344762 -152.63545194 388.76981076 -154.29052353 390.42709351 C-156.55558246 392.69489866 -158.82372139 394.95957944 -161.09263611 397.223526 C-161.74158354 397.87470416 -162.39053098 398.52588231 -163.05914348 399.19679314 C-166.8320522 402.95377432 -170.71545823 406.52296961 -174.76050985 409.98584545 C-178.09862159 412.9250111 -181.18274685 416.11562452 -184.29174805 419.29321289 C-185.78566069 420.81010287 -187.27961501 422.3269518 -188.77360535 423.84376526 C-189.9433191 425.0342557 -189.9433191 425.0342557 -191.13666344 426.24879646 C-195.31313751 430.49449987 -199.50666781 434.72332289 -203.69726562 438.95507812 C-209.0083356 444.32002179 -214.3142312 449.6897785 -219.60131836 455.07836914 C-223.89399514 459.45255681 -228.20390464 463.80910212 -232.52555275 468.15466118 C-234.15960345 469.80405579 -235.78737568 471.4596971 -237.40842247 473.12187386 C-248.28667544 484.26808031 -257.91612065 493.4377153 -274.07421875 495.234375 C-274.83962982 495.33745972 -275.60504089 495.44054443 -276.39364624 495.54675293 C-278.92302853 495.88216494 -281.45504335 496.18738678 -283.98828125 496.4921875 C-285.81045078 496.72690413 -287.63238475 496.96345534 -289.45410156 497.20166016 C-293.51774163 497.72879542 -297.58287515 498.24182043 -301.64941406 498.74609375 C-308.7846445 499.63331742 -315.91426419 500.5621556 -323.04394913 501.49258041 C-328.77233209 502.23905637 -334.50164365 502.97837756 -340.2310257 503.7171402 C-341.65206978 503.90044578 -343.07308525 504.08397327 -344.49407196 504.26772308 C-349.21525093 504.87802635 -353.93742463 505.47995243 -358.66015625 506.078125 C-359.8657016 506.23406128 -361.07124695 506.38999756 -362.31332397 506.55065918 C-374.68550563 508.10376685 -385.08714339 508.12048579 -395.55078125 500.2421875 C-404.30054604 492.77172045 -408.41015819 485.12534275 -409.48828125 473.6796875 C-409.73302891 468.39199975 -409.3357925 463.70323926 -408.21484375 458.546875 C-407.38603542 454.5104708 -406.92607283 450.44847967 -406.43432617 446.359375 C-406.30828003 445.31523438 -406.30828003 445.31523438 -406.1796875 444.25 C-406.09090332 443.51426758 -406.00211914 442.77853516 -405.91064453 442.02050781 C-405.34189484 437.42381493 -404.72163148 432.83377429 -404.11328125 428.2421875 C-403.1983232 421.31173439 -402.34803615 414.38147961 -401.61328125 407.4296875 C-400.5800137 397.7789903 -399.14747712 388.19968677 -397.61328125 378.6171875 C-397.42548096 377.42536865 -397.42548096 377.42536865 -397.23388672 376.20947266 C-396.87073375 373.92686449 -396.49461572 371.64682168 -396.11328125 369.3671875 C-396.00701416 368.70066162 -395.90074707 368.03413574 -395.79125977 367.34741211 C-392.86770045 350.43604159 -379.6520078 340.51884613 -367.98597336 328.91471481 C-365.52773576 326.4693861 -363.07276297 324.02082002 -360.61856079 321.57144165 C-355.41128853 316.37552359 -350.20008067 311.18356404 -344.98828125 305.9921875 C-338.93654701 299.96413257 -332.88647996 293.93442355 -326.84062576 287.90047073 C-324.43262122 285.49890473 -322.02160451 283.10039175 -319.61044312 280.70199585 C-318.12344712 279.21863494 -316.63659278 277.735132 -315.14990234 276.25146484 C-314.48790329 275.59463211 -313.82590424 274.93779938 -313.1438446 274.26106262 C-310.09608938 271.2136497 -307.1534413 268.12671848 -304.34860325 264.85335064 C-300.79240846 260.77076667 -297.05349699 256.917286 -293.21961975 253.09654236 C-292.50874519 252.38410781 -291.79787063 251.67167326 -291.06545442 250.93764979 C-288.70363077 248.57186539 -286.33828246 246.20963827 -283.97290039 243.84741211 C-282.27037711 242.14353261 -280.56806639 240.4394407 -278.86595154 238.7351532 C-274.73460139 234.59972659 -270.6009267 230.46663472 -266.46608502 226.33469933 C-263.10349635 222.97437565 -259.74189304 219.61306915 -256.38097954 216.25107002 C-255.90132489 215.77126215 -255.42167025 215.29145427 -254.92748062 214.79710676 C-253.95285698 213.82216338 -252.97823558 212.84721776 -252.00361639 211.87226994 C-242.8799076 202.74571451 -233.75314498 193.62221795 -224.62532281 184.49977673 C-216.80552574 176.68444695 -208.98835411 168.86649916 -201.1730957 161.04663086 C-192.081689 151.94986398 -182.98865114 142.85473267 -173.89303106 133.76217848 C-172.9218182 132.79128414 -171.95060741 131.82038773 -170.97939873 130.84948921 C-170.50163415 130.37187891 -170.02386958 129.89426861 -169.53162729 129.40218527 C-166.17658121 126.04800002 -162.82269154 122.69266118 -159.46925545 119.33686638 C-154.9497444 114.81446019 -150.4277816 110.29451972 -145.9039402 105.77644539 C-144.24710341 104.12092738 -142.59111056 102.46456424 -140.93603897 100.80728149 C-138.67098004 98.53947634 -136.40284111 96.27479556 -134.13392639 94.010849 C-133.48497896 93.35967084 -132.83603152 92.70849269 -132.16741902 92.03758186 C-128.36155667 88.24778616 -124.43270189 84.66009336 -120.36927897 81.14821476 C-118.43155845 79.4587462 -116.58493715 77.70472619 -114.77513123 75.87910461 C-114.12636017 75.22737274 -113.47758911 74.57564087 -112.80915833 73.90415955 C-112.12891098 73.21560379 -111.44866364 72.52704803 -110.74780273 71.81762695 C-110.00685364 71.072005 -109.26590454 70.32638306 -108.50250244 69.5581665 C-106.90769731 67.95292884 -105.31399847 66.34659144 -103.72131157 64.73925209 C-101.1973134 62.19308158 -98.66923858 59.65102589 -96.13990784 57.1101532 C-88.95363968 49.89042388 -81.77160824 42.66652162 -74.59985352 35.43237305 C-70.20100414 30.99583841 -65.79484078 26.56668128 -61.3839283 22.14214134 C-59.70945894 20.45963358 -58.03776773 18.77435606 -56.36895561 17.08623695 C-54.0359726 14.72671926 -51.69379595 12.37670027 -49.34936523 10.02856445 C-48.66709366 9.333936 -47.98482208 8.63930756 -47.28187561 7.92362976 C-34.60965726 -4.69603547 -16.21671521 -8.58104213 0 0 Z " fill="#FEFEFE" transform="translate(511.61328125,106.3828125)"/>
<path d="M0 0 C2.78139134 1.34059035 4.80331915 2.56659347 6.953125 4.79296875 C7.49066406 5.34146484 8.02820313 5.88996094 8.58203125 6.45507812 C9.13246094 7.02677734 9.68289063 7.59847656 10.25 8.1875 C13.60418784 11.65079998 16.96760161 15.01680083 20.63671875 18.1484375 C25.97812968 22.75949224 30.9232306 27.77373732 35.90014648 32.76977539 C37.5592732 34.43426277 39.22368051 36.09333447 40.88867188 37.75195312 C45.93901952 42.79942437 50.89591778 47.87933937 55.53540039 53.31274414 C57.72267957 55.83254518 60.06185587 58.15689894 62.4375 60.5 C63.30246094 61.3559375 64.16742188 62.211875 65.05859375 63.09375 C65.69925781 63.7228125 66.33992188 64.351875 67 65 C65.35897576 69.20614348 62.25281469 72.0067397 59.10083008 75.11035156 C58.49730713 75.71256027 57.89378418 76.31476898 57.27197266 76.93522644 C55.27571448 78.92499478 53.27257593 80.90769065 51.26953125 82.890625 C49.87617444 84.27770736 48.48333423 85.66530883 47.09098816 87.05340576 C43.42030426 90.71078161 39.74410584 94.36255974 36.06628418 98.01275635 C30.19657989 103.83938287 24.33345196 109.67260581 18.47373009 115.50926971 C16.43393662 117.53891566 14.39071995 119.56506686 12.34712219 121.59088135 C11.08000916 122.8511572 9.81301015 124.11154771 8.54614258 125.37207031 C7.98535507 125.92612045 7.42456757 126.48017059 6.8467865 127.05101013 C4.01885127 129.87096104 1.32134883 132.75020243 -1.28219604 135.77922058 C-5.63315144 140.80417034 -10.32766008 145.46744789 -15.03100586 150.16040039 C-16.02417767 151.15493032 -17.0171373 152.14967218 -18.00990295 153.14460754 C-20.68530337 155.82453348 -23.36381708 158.50132668 -26.04307246 161.17739797 C-28.85953084 163.99130736 -31.67352897 166.80767545 -34.4879303 169.62364197 C-39.21273265 174.35025864 -43.93962802 179.07477446 -48.66772461 183.7980957 C-54.1176487 189.2425786 -59.56396124 194.69065432 -65.0084123 200.1406098 C-69.70063413 204.83738381 -74.39481964 209.53218853 -79.09062296 214.22538179 C-81.88749264 217.02070025 -84.68370093 219.81667133 -87.47813225 222.61442757 C-90.1065705 225.24577521 -92.7374826 227.87462508 -95.37024498 230.50164604 C-96.78493184 231.91440103 -98.19718782 233.32958894 -99.60934448 234.74487305 C-104.01041437 239.13149772 -108.47500033 243.35673745 -113.18697453 247.40681171 C-116.02197482 249.89805595 -118.65480613 252.5704937 -121.2890625 255.27075195 C-122.47574813 256.47707677 -123.66243436 257.683401 -124.84912109 258.88972473 C-125.46422546 259.5170582 -126.07932983 260.14439167 -126.71307373 260.79073524 C-130.01269684 264.15183128 -133.32819771 267.497234 -136.640625 270.84570312 C-140.83571757 275.08872904 -145.0260569 279.33618319 -149.20117188 283.59887695 C-152.59490396 287.06296703 -156.0031953 290.51212657 -159.42156982 293.95189476 C-160.71553515 295.25941049 -162.00408183 296.57231282 -163.28692627 297.89074135 C-165.08118608 299.73343388 -166.89347729 301.55644678 -168.7109375 303.3762207 C-169.23065125 303.91907715 -169.75036499 304.46193359 -170.28582764 305.02124023 C-175.92240414 310.58177912 -182.3667242 311.05822203 -190.0625 311.9375 C-191.47275797 312.10330378 -192.88290818 312.27002577 -194.29296875 312.4375 C-195.04884277 312.52644531 -195.8047168 312.61539062 -196.58349609 312.70703125 C-200.06546771 313.1291737 -203.54131668 313.59470198 -207.01806641 314.05761719 C-216.73182643 315.34924346 -226.45407562 316.55344951 -236.1875 317.6875 C-237.86271729 317.88460571 -237.86271729 317.88460571 -239.57177734 318.08569336 C-240.61414551 318.20565674 -241.65651367 318.32562012 -242.73046875 318.44921875 C-243.65239014 318.55580811 -244.57431152 318.66239746 -245.52416992 318.7722168 C-248 319 -248 319 -252 319 C-251.0418168 306.55891907 -249.63900214 294.17344799 -248.15134239 281.78638077 C-247.71454638 278.14619739 -247.2894775 274.50544649 -246.89111328 270.86083984 C-246.50125466 267.29685497 -246.08208929 263.73742304 -245.64265823 260.17922211 C-245.40432024 258.18973035 -245.19535624 256.19678912 -244.9871521 254.20391846 C-243.91896274 245.85854722 -242.13860667 241.64223063 -236 236 C-235.04203687 235.04000741 -234.08961654 234.07446608 -233.14144897 233.10479736 C-230.30007472 230.20331941 -227.42858395 227.33391306 -224.54728699 224.47212219 C-222.61848237 222.55623531 -220.69295397 220.63710727 -218.76818848 218.71716309 C-213.98997561 213.95222592 -209.20630184 209.19278345 -204.42279053 204.4331665 C-200.36964716 200.39984525 -196.31862108 196.36441926 -192.27030945 192.32624817 C-190.38527224 190.44763083 -188.49721902 188.57208252 -186.60900879 186.69665527 C-185.43905907 185.53034242 -184.26925196 184.36388649 -183.09960938 183.19726562 C-182.58408005 182.68690262 -182.06855072 182.17653961 -181.53739929 181.65071106 C-178.82609285 178.93979001 -176.25055171 176.16172544 -173.75144958 173.25343323 C-169.35925242 168.18662673 -164.62199496 163.4822215 -159.87719727 158.74780273 C-158.87417334 157.74342074 -157.87136161 156.7388268 -156.8687439 155.73403931 C-154.16648513 153.02725449 -151.46111233 150.32360295 -148.75499845 147.62067294 C-145.91051299 144.77873619 -143.06848746 141.93434106 -140.22605896 139.09034729 C-135.45417821 134.31665214 -130.68020422 129.54505799 -125.9050293 124.7746582 C-120.40057366 119.27564377 -114.89972947 113.77303641 -109.40074688 108.26854938 C-104.6618162 103.52506676 -99.92092211 98.7835531 -95.17840999 94.04365116 C-92.35359459 91.2203871 -89.52944083 88.39647009 -86.70706367 85.57076836 C-84.05236047 82.9131561 -81.39518394 80.25804085 -78.73615646 77.6047554 C-77.30715605 76.17768721 -75.88058702 74.74818561 -74.45411682 73.31858826 C-70.0310918 68.90993971 -65.54823642 64.6561585 -60.81202602 60.58631802 C-57.97931059 58.10644881 -55.3278068 55.45956549 -52.67578125 52.78930664 C-52.09915237 52.21282379 -51.5225235 51.63634094 -50.92842102 51.04238892 C-49.05406239 49.16734273 -47.18325455 47.28879766 -45.3125 45.41015625 C-44.00135899 44.09714694 -42.68999463 42.78436063 -41.37841797 41.4717865 C-37.95022763 38.03980344 -34.52505278 34.60482651 -31.1005249 31.16918945 C-27.59619796 27.65457813 -24.08898917 24.14284511 -20.58203125 20.63085938 C-13.71855143 13.75669956 -6.85825799 6.87936931 0 0 Z " fill="#396793" transform="translate(406,243)"/>
<path d="M0 0 C2.91834217 1.31483573 4.94920929 2.71633276 7.171875 5.01171875 C7.75453125 5.60533203 8.3371875 6.19894531 8.9375 6.81054688 C9.535625 7.42994141 10.13375 8.04933594 10.75 8.6875 C14.29211617 12.33540947 17.83165583 15.90582001 21.69921875 19.2109375 C26.86904311 23.66908311 31.65857427 28.50886555 36.47290039 33.3425293 C38.05959946 34.93458966 39.65157742 36.5212299 41.24414062 38.10742188 C46.17054654 43.0308972 50.98912844 47.998083 55.51782227 53.29516602 C57.71253686 55.81957583 60.05588498 58.15100985 62.4375 60.5 C63.30246094 61.3559375 64.16742187 62.211875 65.05859375 63.09375 C65.69925781 63.7228125 66.33992187 64.351875 67 65 C65.45872649 68.71268094 63.19156766 70.98115698 60.3125 73.75 C57.29503592 76.65952991 54.4296308 79.61940881 51.6953125 82.79296875 C47.83999637 87.24499707 43.73672834 91.41081474 39.5625 95.5625 C38.85029297 96.27857422 38.13808594 96.99464844 37.40429688 97.73242188 C32.76713842 102.36115679 27.98240145 106.74679148 23 111 C22.32138916 111.58338135 21.64277832 112.1667627 20.94360352 112.76782227 C19.29815342 114.18136745 17.64943542 115.59110724 16 117 C15.5875 116.58226318 15.175 116.16452637 14.75 115.73413086 C12.83611222 113.79914973 10.91808329 111.86832199 9 109.9375 C8.35160156 109.28072266 7.70320313 108.62394531 7.03515625 107.94726562 C3.89607833 104.79264771 0.73625452 101.72986845 -2.65234375 98.84375 C-8.294948 93.97622876 -13.49763667 88.65131798 -18.75463867 83.37573242 C-20.55862085 81.56639067 -22.36788665 79.76245681 -24.17773438 77.95898438 C-29.48953588 72.6499706 -34.72905745 67.34195557 -39.60180664 61.62084961 C-41.60337323 59.30054219 -43.75485168 57.14906911 -45.9375 55 C-46.70964844 54.236875 -47.48179687 53.47375 -48.27734375 52.6875 C-48.84582031 52.130625 -49.41429687 51.57375 -50 51 C-45.80648885 46.04693356 -41.50562761 41.22993329 -37.0625 36.5 C-36.41788818 35.81365479 -35.77327637 35.12730957 -35.10913086 34.42016602 C-17.41434641 15.67505518 -17.41434641 15.67505518 -7.65234375 7.4296875 C-4.95471212 5.09556651 -2.49013258 2.5523859 0 0 Z " fill="#396793" transform="translate(492,157)"/>
</svg>
