<?xml version="1.0" encoding="UTF-8"?>
<svg version="1.1" xmlns="http://www.w3.org/2000/svg" width="717" height="717">
<path d="M0 0 C236.61 0 473.22 0 717 0 C717 236.61 717 473.22 717 717 C480.39 717 243.78 717 0 717 C0 480.39 0 243.78 0 0 Z " fill="#396793" transform="translate(0,0)"/>
<path d="M0 0 C0.69619446 0.08772675 1.39238892 0.17545349 2.10968018 0.26583862 C10.42034647 1.35097834 18.48903741 2.88111298 26.5 5.375 C27.21510742 5.59671875 27.93021484 5.8184375 28.66699219 6.046875 C50.14644559 12.95504778 68.73923835 23.02811265 85.703125 37.921875 C87.84851518 39.80358594 90.02154954 41.59632853 92.25 43.375 C96.97475462 47.44806433 100.67726631 52.47752468 104.5 57.375 C105.24507813 58.30441406 105.99015625 59.23382813 106.7578125 60.19140625 C128.46965997 87.99316216 142.88186067 127.57211357 138.9375 163.125 C138.61838497 165.46708916 138.25949329 167.79572948 137.86328125 170.12597656 C137.49910835 172.38052006 137.23874103 174.62746237 137 176.8984375 C133.52498223 207.0796104 119.08970362 236.19264309 98.44140625 258.27734375 C96.35319134 260.47261416 96.35319134 260.47261416 94.125 263.4375 C90.0538175 267.99334708 85.30064671 271.61553251 80.5 275.375 C79.56929687 276.12136719 78.63859375 276.86773437 77.6796875 277.63671875 C56.46522068 294.19787609 30.55404745 304.80811365 3.88574219 308.06494141 C1.55995673 308.36720783 -0.7426052 308.74441059 -3.0546875 309.13671875 C-37.94622496 314.49561257 -75.69248727 301.6156393 -104.5 282.375 C-108.33383199 279.54748755 -111.91350624 276.50664688 -115.5 273.375 C-116.57749924 272.49732183 -117.65839471 271.62380093 -118.7421875 270.75390625 C-125.95355443 264.91971009 -131.89268336 258.8168731 -137.5 251.375 C-138.62341797 249.95574219 -138.62341797 249.95574219 -139.76953125 248.5078125 C-156.31788747 227.25149122 -166.45304621 202.15067658 -170.18701172 175.58007812 C-170.49073051 173.44030577 -170.823273 171.30664041 -171.16015625 169.171875 C-172.48629222 160.36261857 -172.4770764 152.21566241 -171.5 143.375 C-171.38262929 141.97288679 -171.26817486 140.57052718 -171.15625 139.16796875 C-168.3351974 106.43726514 -154.00894829 74.51275491 -131.5078125 50.55859375 C-129.44380761 48.37536937 -129.44380761 48.37536937 -127.55078125 45.859375 C-123.82402445 41.34467533 -119.07397419 37.99270251 -114.5 34.375 C-113.51773438 33.56546875 -112.53546875 32.7559375 -111.5234375 31.921875 C-80.63919491 7.05810502 -39.2480605 -4.94999217 0 0 Z " fill="#396793" transform="translate(324.5,153.625)"/>
<path d="M0 0 C2.98386064 0.01612633 5.96637475 0.00004643 8.95019531 -0.01904297 C19.19398738 -0.03097548 28.45337034 0.53387146 38.35644531 3.39111328 C40.36547508 3.85601543 42.37727444 4.30910315 44.39160156 4.75048828 C63.790258 9.18346817 81.8503262 14.8570257 99.35644531 24.39111328 C99.95650391 24.71192871 100.5565625 25.03274414 101.17480469 25.36328125 C113.61638661 32.04198213 124.89217826 40.11857806 135.70410156 49.18408203 C137.49826515 50.67701639 139.31987661 52.13747105 141.16503906 53.56689453 C146.93606339 58.0732561 151.61982937 62.75110738 156.11816406 68.52783203 C158.39908384 71.44565786 160.80297197 74.22050067 163.23144531 77.01611328 C169.33488879 84.34024545 174.40157969 92.25863062 179.35644531 100.39111328 C179.76282227 101.0565918 180.16919922 101.72207031 180.58789062 102.40771484 C190.02150737 118.04212343 196.89845422 134.69300018 201.35644531 152.39111328 C201.67524658 153.63441406 201.67524658 153.63441406 202.00048828 154.90283203 C212.0277418 194.80555435 210.57717803 234.374071 197.35644531 273.39111328 C197.03836914 274.35090088 197.03836914 274.35090088 196.71386719 275.33007812 C190.59824188 293.53547316 181.52893538 310.02864388 170.52636719 325.71557617 C168.0809974 328.74544266 168.0809974 328.74544266 167.57064819 332.39752197 C168.92050844 335.82215868 171.7334592 338.10863611 174.33300781 340.62548828 C174.93648041 341.22234436 175.539953 341.81920044 176.16171265 342.43414307 C178.09465557 344.34369545 180.03742732 346.24284255 181.98144531 348.14111328 C183.90235947 350.02671474 185.82103912 351.91450916 187.73690796 353.80523682 C188.92796286 354.97961502 190.1221021 356.15087719 191.31997681 357.31829834 C194.22328048 360.17072029 196.988465 363.08119628 199.63864136 366.17132568 C203.01238257 370.04515081 206.5432636 373.70750601 210.19042969 377.32275391 C210.83369705 377.964561 211.47696442 378.6063681 212.13972473 379.2676239 C213.52227003 380.64639443 214.90596817 382.02400979 216.29072571 383.40055847 C218.48835493 385.5852991 220.68273566 387.77325755 222.87634277 389.96203613 C227.5335637 394.60788893 232.19470626 399.24979464 236.85644531 403.89111328 C242.2630411 409.27402586 247.66797165 414.65858885 253.06867981 420.04740906 C255.21963162 422.19192838 257.37359703 424.33338812 259.52770996 426.47473145 C260.85944315 427.8028286 262.19103416 429.13106832 263.52246094 430.45947266 C264.11279617 431.04464157 264.70313141 431.62981049 265.31135559 432.23271179 C268.95230935 435.87320986 272.3873015 439.64340778 275.73993969 443.55130386 C278.38460863 446.5613069 281.23427224 449.35366435 284.09472656 452.15673828 C285.33899513 453.38837987 286.58313206 454.62015447 287.82714844 455.85205078 C289.75862202 457.75859416 291.69168994 459.66346943 293.62719727 461.56591797 C295.51658982 463.42514675 297.3997427 465.29051843 299.28222656 467.15673828 C300.15250237 468.00682465 300.15250237 468.00682465 301.0403595 468.87408447 C306.68976581 474.48800051 307.79987232 478.13792047 307.85644531 486.01611328 C307.84866563 493.7989045 306.98307986 499.58223955 301.35644531 505.39111328 C295.69363832 510.87626358 289.84527886 511.9589418 282.23144531 512.14111328 C281.47959961 512.16898926 280.72775391 512.19686523 279.953125 512.22558594 C270.47328079 512.06571997 264.33160301 504.66409085 258.07519531 498.27001953 C257.41741089 497.60703354 256.75962646 496.94404755 256.08190918 496.26097107 C254.00186237 494.1632923 251.9286886 492.05899892 249.85644531 489.95361328 C247.78334475 487.85268099 245.708709 485.75332401 243.63098145 483.65696716 C242.34578735 482.35974085 241.0632694 481.05985505 239.78405762 479.75672913 C236.89283831 476.83373307 233.9705279 474.02733563 230.83496094 471.36743164 C224.76013915 466.11811226 219.18860866 460.3327085 213.53219604 454.64202881 C211.38106194 452.47800287 209.22670742 450.3172285 207.0715332 448.15722656 C201.72227478 442.79467655 196.37850006 437.42667282 191.0345459 432.05883789 C186.50799553 427.51248342 181.9793527 422.96823253 177.44796753 418.42669678 C175.33668607 416.30898423 173.22846523 414.1882578 171.12036133 412.06738281 C162.7699997 403.68405851 162.7699997 403.68405851 153.9654541 395.78417969 C151.38037037 393.54603573 149.05313261 391.10762044 146.68457031 388.64111328 C145.68124822 387.6105963 144.67732555 386.58066376 143.67285156 385.55126953 C142.12426648 383.95910418 140.58001809 382.36346266 139.04541016 380.7578125 C137.5405534 379.18668335 136.02052449 377.63168649 134.49707031 376.07861328 C133.15950684 374.69222656 133.15950684 374.69222656 131.79492188 373.27783203 C129.59370323 371.16061159 129.59370323 371.16061159 127.26123047 371.45922852 C125.31656352 372.41062479 123.53685645 373.40566972 121.73925781 374.61376953 C121.05750488 375.06582764 120.37575195 375.51788574 119.67333984 375.98364258 C118.95001465 376.46873291 118.22668945 376.95382324 117.48144531 377.45361328 C79.58853352 402.31152449 32.02095065 417.46134171 -13.64355469 412.39111328 C-15.22257568 412.22264893 -15.22257568 412.22264893 -16.83349609 412.05078125 C-50.43262966 408.29837481 -83.67306221 397.8668636 -111.64355469 378.39111328 C-112.1867334 378.02018555 -112.72991211 377.64925781 -113.28955078 377.26708984 C-120.37077908 372.42399019 -127.00526482 367.40621443 -133.28027344 361.53173828 C-135.66290792 359.37358341 -138.14231276 357.45368783 -140.70605469 355.51611328 C-146.25121162 351.12655671 -150.32069916 345.94907039 -154.64355469 340.39111328 C-155.58755884 339.25244161 -156.53566524 338.11716155 -157.48730469 336.98486328 C-182.17289406 307.38623954 -195.66382335 271.9269949 -202.10058594 234.24267578 C-202.49690258 231.45773618 -202.49690258 231.45773618 -203.64355469 229.39111328 C-203.76251973 228.05417767 -203.82316231 226.71177498 -203.85229492 225.36987305 C-203.87131866 224.5352655 -203.89034241 223.70065796 -203.90994263 222.84075928 C-203.92387054 221.93054016 -203.93779846 221.02032104 -203.95214844 220.08251953 C-203.96736542 219.13693176 -203.9825824 218.19134399 -203.9982605 217.21710205 C-204.26052016 197.16621444 -204.16449006 178.46784844 -198.42089844 159.08984375 C-197.68847565 156.54706689 -197.08041924 154.01136672 -196.51855469 151.42626953 C-189.14586597 118.29205474 -169.84602083 90.05583135 -147.91870117 64.89086914 C-146.77003318 63.5398702 -145.67747234 62.14164678 -144.59277344 60.73876953 C-142.52075302 58.24320987 -140.36587138 56.34945793 -137.83105469 54.32861328 C-136.86296875 53.55517578 -135.89488281 52.78173828 -134.89746094 51.98486328 C-134.3742627 51.56978516 -133.85106445 51.15470703 -133.31201172 50.72705078 C-131.54174088 49.30959072 -129.79307523 47.8681742 -128.04589844 46.42236328 C-120.82927097 40.48540658 -113.57306305 35.06172119 -105.43359375 30.41699219 C-103.47854195 29.29654379 -101.54260691 28.14605628 -99.60449219 26.99658203 C-80.13678841 15.62355301 -60.18213531 8.84232058 -38.15722656 4.1484375 C-35.83820807 3.64860458 -33.52630816 3.1143539 -31.22363281 2.54394531 C-20.79605802 0.11802605 -10.66656169 -0.0685331 0 0 Z M-94.03417969 85.05078125 C-95.75541519 86.4842738 -97.49632808 87.89184109 -99.23730469 89.30126953 C-106.63876585 95.3782587 -112.87013422 101.70409206 -118.64355469 109.39111328 C-119.37960938 110.31279297 -120.11566406 111.23447266 -120.87402344 112.18408203 C-137.97359607 133.99265918 -148.38772252 159.96698848 -151.64355469 187.39111328 C-151.83949219 188.60283203 -152.03542969 189.81455078 -152.23730469 191.06298828 C-153.65573321 200.05881131 -153.68423342 208.36392308 -152.64355469 217.39111328 C-152.54913086 218.24189453 -152.45470703 219.09267578 -152.35742188 219.96923828 C-148.52681311 253.55525695 -135.99275751 285.35884385 -112.65136719 310.20751953 C-110.64355469 312.39111328 -110.64355469 312.39111328 -108.69433594 314.90673828 C-104.96757914 319.42143795 -100.21752888 322.77341077 -95.64355469 326.39111328 C-94.66128906 327.20064453 -93.67902344 328.01017578 -92.66699219 328.84423828 C-64.97515023 351.1379237 -24.96695194 365.5927029 10.79394531 361.76611328 C13.21112045 361.45592881 15.61869689 361.11193536 18.02685547 360.73828125 C20.3147233 360.39733092 22.59925143 360.13758574 24.89941406 359.89501953 C55.07978628 356.38447222 84.16799523 341.98651377 106.25878906 321.33251953 C108.35644531 319.39111328 108.35644531 319.39111328 111.41894531 317.01611328 C115.97479239 312.94493079 119.59697782 308.19175999 123.35644531 303.39111328 C124.1028125 302.46041016 124.84917969 301.52970703 125.61816406 300.57080078 C134.92871646 288.6441944 141.92899713 275.49643126 147.35644531 261.39111328 C147.61022949 260.75608887 147.86401367 260.12106445 148.12548828 259.46679688 C153.61325221 245.55563772 155.64536024 231.18636382 157.35644531 216.39111328 C157.48204834 215.41368164 157.60765137 214.43625 157.73706055 213.42919922 C158.64071647 205.24499069 157.89731721 197.52841797 156.79394531 189.39111328 C156.65915268 188.37547806 156.65915268 188.37547806 156.52163696 187.33932495 C152.67884955 158.77484322 141.66156943 131.80205962 123.35644531 109.39111328 C122.62119629 108.4876416 122.62119629 108.4876416 121.87109375 107.56591797 C115.01733636 99.20881022 108.0481293 91.89119787 99.35644531 85.39111328 C98.43605469 84.65634766 97.51566406 83.92158203 96.56738281 83.16455078 C83.69962816 73.07151411 69.59298543 66.12860005 54.35644531 60.39111328 C53.13441406 59.91673828 51.91238281 59.44236328 50.65332031 58.95361328 C41.17705648 55.50769916 31.78642426 53.9397806 21.81152344 52.71289062 C19.53780673 52.4148836 17.28765004 52.05128118 15.02832031 51.66064453 C-22.19422838 45.687824 -65.49182337 61.2744939 -94.03417969 85.05078125 Z " fill="#FEFEFE" transform="translate(305.6435546875,101.60888671875)"/>
</svg>
