<?xml version="1.0" encoding="UTF-8"?>
<svg version="1.1" xmlns="http://www.w3.org/2000/svg" width="512" height="512">
<path d="M0 0 C6.81888066 3.94589073 10.47859222 8.20483814 13.9140625 15.32421875 C14.25638916 16.02178284 14.59871582 16.71934692 14.95141602 17.43804932 C19.22752101 26.22215168 23.2315574 35.13205636 27.234375 44.04296875 C28.06852506 45.89395225 28.9028379 47.7448624 29.73730469 49.59570312 C39.09662766 70.37261783 48.35877798 91.19291598 57.52734375 112.0546875 C58.22948288 113.65104576 58.93163118 115.24739999 59.63378906 116.84375 C60.96811699 119.87762368 62.29905741 122.91295204 63.62792969 125.94921875 C64.22451592 127.30733272 64.82119053 128.66540788 65.41796875 130.0234375 C65.93931396 131.21348389 66.46065918 132.40353027 66.99780273 133.62963867 C67.98757569 136.16069409 67.98757569 136.16069409 69.234375 137.29296875 C70.88707759 137.58897494 72.55045002 137.82562515 74.21591187 138.03842163 C75.2952298 138.17850143 76.37454773 138.31858124 77.48657227 138.46290588 C78.6812915 138.61356003 79.87601074 138.76421417 81.10693359 138.91943359 C83.02657814 139.16680824 84.94622249 139.41418445 86.86585927 139.66161942 C88.93682835 139.92775598 91.00805422 140.1918087 93.07935715 140.45533371 C97.4013738 141.00548039 101.72244077 141.56284093 106.04336548 142.12149048 C118.33360216 143.70931713 130.62517395 145.2866812 142.91748047 146.85839844 C149.7009933 147.72581687 156.48375584 148.59888949 163.26578772 149.47781336 C167.55125987 150.03284135 171.83754552 150.58090036 176.12459064 151.12363791 C179.4398319 151.54540778 182.75373097 151.9773807 186.06787109 152.40771484 C187.24234802 152.55432053 188.41682495 152.70092621 189.62689209 152.85197449 C202.7313489 154.57616986 213.47818189 156.85672966 222.109375 167.54296875 C226.75086495 174.67383912 228.20479377 183.57536626 226.80078125 191.84765625 C224.0379884 204.23732359 215.50720496 211.24307724 206.234375 219.29296875 C205.53054688 219.91042969 204.82671875 220.52789062 204.1015625 221.1640625 C202.82394658 222.28391613 201.54402548 223.40114574 200.26171875 224.515625 C197.89948327 226.58656362 195.56641647 228.68809723 193.234375 230.79296875 C190.25374779 233.48280306 187.26192267 236.15607239 184.234375 238.79296875 C179.51736216 242.90377914 174.87798611 247.0996472 170.234375 251.29296875 C164.95451924 256.0608385 159.66145694 260.80809093 154.296875 265.48046875 C151.92473071 267.56508039 149.57881435 269.67725519 147.234375 271.79296875 C144.25374779 274.48280306 141.26192267 277.15607239 138.234375 279.79296875 C133.51897449 283.90456798 128.83844201 288.0569139 124.234375 292.29296875 C123.51592061 292.88558722 122.79746622 293.4782057 122.05724049 294.08878231 C119.98187312 296.13862715 119.98187312 296.13862715 120.16105938 298.80030918 C120.36255502 299.74837405 120.56405066 300.69643892 120.77165222 301.67323303 C121.10200974 303.31101715 121.10200974 303.31101715 121.43904114 304.98188782 C121.70432114 306.17517197 121.96960114 307.36845612 122.24291992 308.59790039 C122.50407593 309.85853302 122.76523193 311.11916565 123.03430176 312.41799927 C123.75178464 315.87954808 124.49749745 319.33448088 125.24795318 322.78900838 C126.02952905 326.41174449 126.78389173 330.04013085 127.54084778 333.66807556 C128.9809562 340.55066931 130.44353039 347.42827329 131.91508704 354.3042044 C134.54332341 366.58917922 137.12978118 378.88300247 139.71371537 391.17735952 C140.62020736 395.48630005 141.53515105 399.79333203 142.45757425 404.09888947 C142.89423976 406.14046447 143.32812113 408.18260932 143.76092529 410.2250061 C144.28634952 412.70284342 144.81634272 415.17971872 145.35206604 417.65534973 C150.19729078 440.63898532 150.19729078 440.63898532 144.171875 451.35546875 C139.41190643 458.37607137 133.2277147 463.46287166 125.234375 466.29296875 C112.32430738 468.22356889 103.1336457 464.97973226 92.234375 458.29296875 C91.26862549 457.70169189 90.30287598 457.11041504 89.30786133 456.5012207 C86.51138687 454.78300609 83.7180837 453.05975402 80.92547607 451.33526611 C76.10344415 448.36324319 71.26219632 445.42256938 66.421875 442.48046875 C65.83365967 442.12291504 65.24544434 441.76536133 64.6394043 441.39697266 C54.21009909 435.0614782 43.72690589 428.81961079 33.22576904 422.60409546 C20.0441321 414.80017646 6.94052997 406.87200446 -6.13549805 398.89257812 C-7.00343994 398.36470703 -7.87138184 397.83683594 -8.765625 397.29296875 C-10.0182312 396.38514648 -10.0182312 396.38514648 -11.29614258 395.45898438 C-13.70168223 394.00584168 -13.70168223 394.00584168 -16.20166016 394.89160156 C-17.04776855 395.35405273 -17.89387695 395.81650391 -18.765625 396.29296875 C-20.18367432 397.06785645 -20.18367432 397.06785645 -21.63037109 397.85839844 C-22.67273926 398.47102539 -23.71510742 399.08365234 -24.7890625 399.71484375 C-25.36283127 400.0510675 -25.93660004 400.38729126 -26.52775574 400.73370361 C-28.40093847 401.83305501 -30.2709008 402.937747 -32.140625 404.04296875 C-33.45430079 404.81648254 -34.76802203 405.58991913 -36.08178711 406.36328125 C-46.71308773 412.63151194 -57.26651535 419.02378161 -67.79003906 425.47119141 C-83.12683792 434.8610169 -98.50601548 444.18176709 -113.94876099 453.39639282 C-115.35431497 454.23573668 -116.7590175 455.07650824 -118.16281128 455.91879272 C-120.12813638 457.0973149 -122.09679205 458.27007002 -124.06640625 459.44140625 C-125.19216064 460.11349121 -126.31791504 460.78557617 -127.4777832 461.47802734 C-136.71635094 466.57786491 -144.62095333 468.34268303 -155.0625 466.140625 C-164.21501479 463.27054449 -171.01012575 456.16101743 -175.640625 447.98046875 C-178.38301726 438.99151635 -177.74597803 430.8702827 -175.80078125 421.80078125 C-175.57599091 420.69262558 -175.35120056 419.58446991 -175.11959839 418.44273376 C-174.62791647 416.03111102 -174.1289501 413.62096439 -173.62350464 411.21218872 C-172.8140615 407.35088126 -172.02608402 403.48549027 -171.24243164 399.61889648 C-168.39645417 385.63036092 -165.42582037 371.67020663 -162.3874054 357.72229004 C-161.04200504 351.5432358 -159.71473528 345.36031603 -158.3906889 339.17665482 C-157.27514688 333.97741103 -156.13214365 328.78514388 -154.9692688 323.59629345 C-154.24611717 320.34231404 -153.54692098 317.08351875 -152.85391617 313.82299995 C-152.52448747 312.29803365 -152.18490773 310.77522105 -151.83468246 309.25489616 C-151.3550475 307.1669617 -150.91168919 305.07434662 -150.47631836 302.97680664 C-150.21717148 301.80098526 -149.9580246 300.62516388 -149.69102478 299.41371155 C-149.44701662 296.08321623 -149.44701662 296.08321623 -152.10760498 293.48408508 C-152.98475159 292.76101669 -153.86189819 292.0379483 -154.765625 291.29296875 C-155.66535034 290.43082764 -155.66535034 290.43082764 -156.58325195 289.55126953 C-158.41364679 287.83883526 -160.24425464 286.12668224 -162.078125 284.41796875 C-162.74674561 283.79446533 -163.41536621 283.17096191 -164.10424805 282.52856445 C-167.97436527 278.92986906 -171.87405649 275.37854944 -175.87890625 271.9296875 C-178.20221287 269.91423103 -180.48310965 267.85448413 -182.765625 265.79296875 C-185.74625221 263.10313444 -188.73807733 260.42986511 -191.765625 257.79296875 C-197.35542489 252.92153672 -202.84097398 247.93401725 -208.34375 242.96484375 C-212.76683901 238.97592298 -217.21177505 235.01728968 -221.703125 231.10546875 C-224.07526929 229.02085711 -226.42118565 226.90868231 -228.765625 224.79296875 C-231.79015956 222.06441311 -234.82430619 219.34949461 -237.890625 216.66796875 C-238.52871094 216.1059375 -239.16679687 215.54390625 -239.82421875 214.96484375 C-241.1486453 213.82429131 -242.49645853 212.71047945 -243.86328125 211.62109375 C-251.27070378 205.58439053 -255.10090477 198.67593731 -256.765625 189.29296875 C-257.58567503 180.43642839 -254.62030866 172.4568804 -249.484375 165.33203125 C-240.78828457 155.01530578 -228.39061535 153.99146252 -215.6784668 152.58227539 C-213.74456977 152.35668305 -211.81067481 152.13107232 -209.87686121 151.90476596 C-207.82170136 151.66534856 -205.76614641 151.42957089 -203.71051598 151.19423103 C-199.40865419 150.69948247 -195.10973341 150.18186393 -190.81123352 149.65879822 C-189.71810027 149.52589554 -189.71810027 149.52589554 -188.60288352 149.39030796 C-187.11422523 149.20922475 -185.62557606 149.0280666 -184.13693583 148.84683502 C-174.14686926 147.63102227 -164.15601899 146.42809926 -154.15600586 145.29663086 C-147.38433941 144.53026866 -140.61861962 143.72470308 -133.85706645 142.87357992 C-130.28706443 142.4257635 -126.71719842 141.99807322 -123.13925743 141.61836433 C-119.15256588 141.19488764 -115.18143988 140.68533671 -111.20581055 140.16821289 C-110.02906769 140.05710678 -108.85232483 139.94600067 -107.6399231 139.83152771 C-104.2861457 139.35232115 -101.77172933 138.86360153 -98.765625 137.29296875 C-95.96271158 133.55266488 -94.35038308 129.66483926 -92.765625 125.29296875 C-92.15148686 123.93256862 -91.52660576 122.57690415 -90.88549805 121.22900391 C-90.35480713 120.02550293 -89.82411621 118.82200195 -89.27734375 117.58203125 C-88.82716385 116.56490051 -88.82716385 116.56490051 -88.3678894 115.52722168 C-87.72685721 114.07812417 -87.0870863 112.62846813 -86.44851685 111.17828369 C-85.06106271 108.02768192 -83.66699937 104.88001731 -82.27336121 101.73214722 C-81.54080997 100.07743482 -80.80856382 98.42258733 -80.07661438 96.76760864 C-75.49094166 86.40226001 -70.85976856 76.05724685 -66.21826172 65.71679688 C-62.884173 58.28545096 -59.56340237 50.84912615 -56.29200745 43.3899231 C-54.76167584 39.90250144 -53.22385957 36.41840298 -51.68551636 32.93450928 C-50.95678589 31.27847347 -50.23168718 29.62083396 -49.51052856 27.96148682 C-40.40686106 7.0209899 -40.40686106 7.0209899 -32.265625 1.91796875 C-31.5540625 1.45648437 -30.8425 0.995 -30.109375 0.51953125 C-20.85094352 -4.32571456 -9.44093497 -4.51992475 0 0 Z M-15.765625 30.29296875 C-16.43428589 31.82606689 -16.43428589 31.82606689 -17.11645508 33.39013672 C-26.08948197 53.95059185 -35.154922 74.46370489 -44.44406128 94.88345337 C-48.95656993 104.80621368 -53.42457777 114.74548539 -57.7890625 124.734375 C-58.1988031 125.67179535 -58.6085437 126.6092157 -59.03070068 127.57504272 C-60.99211767 132.06701301 -62.94668894 136.56182927 -64.89257812 141.06054688 C-66.81264228 145.48872279 -68.77444688 149.89637453 -70.765625 154.29296875 C-71.20551758 155.28280762 -71.64541016 156.27264648 -72.09863281 157.29248047 C-74.7813915 162.77953595 -77.98025517 165.24167839 -83.765625 167.29296875 C-88.21754884 168.26674378 -92.6962555 168.82180421 -97.21826172 169.36767578 C-98.56609807 169.54108191 -99.91376605 169.71580093 -101.26127625 169.89172363 C-104.14723816 170.26571241 -107.03414972 170.63059334 -109.92217636 170.98828506 C-114.48720286 171.55383199 -119.04937028 172.14046724 -123.61135864 172.72994995 C-131.64138005 173.76484413 -139.67357612 174.78196917 -147.70635986 175.79516602 C-159.82124896 177.32343284 -171.93430068 178.8660585 -184.04529583 180.42487991 C-188.58307575 181.00826723 -193.12190195 181.58242397 -197.66177058 182.14931893 C-200.47810786 182.50256943 -203.29352995 182.86273434 -206.10875893 183.22470093 C-208.04225652 183.47104986 -209.97684823 183.70876287 -211.91145325 183.94625854 C-213.0553804 184.09468201 -214.19930756 184.24310547 -215.37789917 184.39602661 C-216.37595015 184.52172594 -217.37400112 184.64742527 -218.40229607 184.77693367 C-220.9410952 185.1084478 -220.9410952 185.1084478 -222.765625 187.29296875 C-212.34741329 197.12718941 -212.34741329 197.12718941 -201.65234375 206.65625 C-199.32903713 208.67170647 -197.04814035 210.73145337 -194.765625 212.79296875 C-191.80692749 215.46345219 -188.83636028 218.11594933 -185.828125 220.73046875 C-181.63398135 224.38233928 -177.53468208 228.13563059 -173.42578125 231.8828125 C-170.57806705 234.46290011 -167.69318482 236.99498731 -164.79296875 239.515625 C-162.43073327 241.58656362 -160.09766647 243.68809723 -157.765625 245.79296875 C-154.78499779 248.48280306 -151.79317267 251.15607239 -148.765625 253.79296875 C-145.73807733 256.42986511 -142.74625221 259.10313444 -139.765625 261.79296875 C-136.71911401 264.54089367 -133.66389847 267.27668658 -130.578125 269.98046875 C-129.62292969 270.81964844 -129.62292969 270.81964844 -128.6484375 271.67578125 C-127.39134025 272.75552868 -126.11483674 273.81307663 -124.8203125 274.84765625 C-120.97660331 277.95157204 -118.37402944 280.46775544 -116.765625 285.29296875 C-116.31008517 293.04703423 -117.71757957 300.07985232 -119.3359375 307.64379883 C-119.61257951 308.96850525 -119.88841571 310.29338017 -120.16351318 311.6184082 C-120.7541424 314.4546424 -121.35037403 317.28961742 -121.95111084 320.1237278 C-122.90110296 324.6057277 -123.83832255 329.090341 -124.77392578 333.57536316 C-126.25454476 340.66556497 -127.74360956 347.75396167 -129.23633766 354.84162301 C-131.91199149 367.54667664 -134.57596766 380.25417624 -137.23270226 392.96319884 C-138.16501961 397.42126802 -139.10194245 401.87833722 -140.04263306 406.33464682 C-140.62628295 409.10292446 -141.20672274 411.87186842 -141.78638458 414.64098358 C-142.18442182 416.53722828 -142.58650854 418.43262154 -142.9887085 420.32798767 C-143.34210297 422.02059219 -143.34210297 422.02059219 -143.70263672 423.74739075 C-143.90911835 424.72755063 -144.11559998 425.70771051 -144.32833862 426.71757221 C-144.87722361 429.51485219 -144.87722361 429.51485219 -144.765625 433.29296875 C-140.90422278 431.8589103 -137.46776715 430.0614995 -133.91796875 427.9765625 C-133.35805237 427.64863205 -132.79813599 427.3207016 -132.22125244 426.98283386 C-130.37963895 425.90246921 -128.54128211 424.81670226 -126.703125 423.73046875 C-125.39953229 422.96331629 -124.09590209 422.19622753 -122.79223633 421.42919922 C-112.97584892 415.64306687 -103.22892585 409.74692895 -93.50170898 403.81225586 C-83.29948762 397.59200235 -73.02974669 391.48885897 -62.73876953 385.41674805 C-56.06087408 381.47120366 -49.41776614 377.48061906 -42.83203125 373.3828125 C-41.5554115 372.59233007 -40.27872006 371.80196342 -39.00195312 371.01171875 C-36.62055219 369.53720577 -34.25010461 368.04697905 -31.88476562 366.546875 C-18.98016358 358.55053329 -18.98016358 358.55053329 -11.65478516 359.59350586 C-5.20188188 361.39761371 0.41896541 365.16837347 6.0480957 368.69702148 C9.12078713 370.62265485 12.21263706 372.51725706 15.30078125 374.41796875 C15.94713531 374.81705444 16.59348938 375.21614014 17.25942993 375.62731934 C23.86430881 379.69947427 30.53624198 383.65546268 37.21707153 387.60134888 C47.97142533 393.95393882 58.69074073 400.35995524 69.359375 406.85546875 C83.58208134 415.50967184 83.58208134 415.50967184 97.82659912 424.12789917 C99.17413046 424.94165758 100.52070115 425.75700903 101.86627197 426.57400513 C103.72869638 427.70451929 105.59435984 428.82948551 107.4609375 429.953125 C108.52908691 430.59902588 109.59723633 431.24492676 110.69775391 431.91040039 C113.04556838 433.45249336 113.04556838 433.45249336 115.234375 433.29296875 C114.55780743 425.88826337 113.18960031 418.74881688 111.64233398 411.48046875 C111.2378762 409.55433207 110.83342046 407.62819496 110.42904198 405.70204163 C109.99702276 403.64803737 109.56295649 401.59447496 109.12835503 399.54101562 C108.21966328 395.24593566 107.31853699 390.94928975 106.41871643 386.65234375 C103.86007245 374.43946033 101.29195912 362.22858156 98.71508789 350.01953125 C97.28926508 343.26374746 95.86996377 336.50662586 94.45759445 329.74801636 C93.56592556 325.48302006 92.66628543 321.21981123 91.76056087 316.95777893 C91.06544007 313.67518954 90.38216581 310.3901545 89.69702148 307.10546875 C89.44612259 305.93636963 89.19522369 304.76727051 88.9367218 303.56274414 C85.46913388 286.76981065 85.46913388 286.76981065 89.98632812 279.87890625 C92.06861786 277.23286671 94.44700792 274.98568552 96.984375 272.79296875 C97.51659668 272.31939941 98.04881836 271.84583008 98.59716797 271.35791016 C100.13480159 269.99334755 101.6827695 268.64159956 103.234375 267.29296875 C103.96398437 266.65101563 104.69359375 266.0090625 105.4453125 265.34765625 C106.70772835 264.23982193 107.97329436 263.13556566 109.2421875 262.03515625 C111.59458135 259.97796476 113.91472466 257.8869996 116.234375 255.79296875 C119.85113845 252.52906027 123.49827108 249.30505926 127.171875 246.10546875 C129.54401929 244.02085711 131.88993565 241.90868231 134.234375 239.79296875 C137.85113845 236.52906027 141.49827108 233.30505926 145.171875 230.10546875 C148.4095083 227.26027585 151.6012379 224.36443039 154.80078125 221.4765625 C156.90948646 219.5844819 159.03357301 217.71391117 161.171875 215.85546875 C164.39997012 213.0447435 167.57175943 210.17716975 170.734375 207.29296875 C174.53390358 203.82838484 178.36163218 200.4045958 182.2421875 197.03125 C185.93069951 193.81284246 189.57987031 190.54987686 193.234375 187.29296875 C190.70063107 184.75922482 189.37099535 184.83989968 185.84664917 184.39602661 C184.13075844 184.17339142 184.13075844 184.17339142 182.38020325 183.94625854 C181.11891098 183.79141998 179.85761871 183.63658142 178.55810547 183.47705078 C177.22095512 183.30668307 175.88390575 183.13552126 174.54695129 182.96362305 C171.66374454 182.59441843 168.7799447 182.23041275 165.89559555 181.87024307 C161.33002479 181.29963864 156.76635187 180.71477705 152.20291138 180.12741089 C140.04219232 178.56440312 127.87922922 177.01917297 115.71485913 175.4848479 C107.72957532 174.4776082 99.7454558 173.46200447 91.76325715 172.43057525 C87.23257208 171.84581644 82.70047457 171.27433031 78.16685176 170.71282601 C75.33655703 170.35918383 72.50794474 169.99328392 69.67964745 169.6240387 C67.75491382 169.37641174 65.82832913 169.1433059 63.90171814 168.91073608 C57.21892799 168.02382141 51.97681028 166.90041852 46.234375 163.29296875 C44.53043608 160.82650598 43.41870496 158.90550102 42.265625 156.21484375 C41.94098267 155.51429871 41.61634033 154.81375366 41.28186035 154.09197998 C40.24262987 151.83550557 39.23889474 149.56507376 38.234375 147.29296875 C37.55078268 145.80023631 36.8645802 144.30869645 36.17578125 142.81835938 C33.99310699 138.07562738 31.86211159 133.31054045 29.734375 128.54296875 C28.94921776 126.79049976 28.1638125 125.03814188 27.37817383 123.28588867 C20.88766855 108.7988036 14.44528659 94.29022524 8.00390625 79.78125 C6.74759372 76.951735 5.49109747 74.1223017 4.234375 71.29296875 C3.92675232 70.60039978 3.61912964 69.90783081 3.30218506 69.1942749 C1.51722767 65.17703217 -0.27090006 61.16122544 -2.06332397 57.14730835 C-2.8543905 55.37418595 -3.64271552 53.59984121 -4.4309082 51.82543945 C-7.6850174 44.54686715 -11.14261139 37.39503517 -14.765625 30.29296875 C-15.095625 30.29296875 -15.425625 30.29296875 -15.765625 30.29296875 Z " fill="#A9A9A9" transform="translate(270.765625,27.70703125)"/>
</svg>
