<?xml version="1.0" encoding="UTF-8"?>
<svg version="1.1" xmlns="http://www.w3.org/2000/svg" width="512" height="512">
<path d="M0 0 C9.13150923 5.08383817 16.49620185 13.72315889 23.82234192 21.05690002 C25.19581481 22.42591623 25.19581481 22.42591623 26.59703463 23.82258934 C29.10956072 26.3271424 31.61903361 28.83473427 34.12794769 31.34290493 C36.84529414 34.05838395 39.5654808 36.77101559 42.2852478 39.48406982 C48.21524061 45.40055337 54.1415199 51.32074701 60.06696916 57.24178052 C63.7701709 60.94221023 67.47410536 64.64190593 71.17816734 68.34147453 C81.44606112 78.59719099 91.71301872 88.8538426 101.97652149 99.11395359 C102.63168978 99.76890232 103.28685807 100.42385104 103.96187995 101.0986467 C104.94686261 102.08330194 104.94686261 102.08330194 105.9517439 103.0878492 C107.28219946 104.4178613 108.61265657 105.74787186 109.94311523 107.07788086 C110.60305576 107.73759996 111.26299629 108.39731905 111.94293501 109.07702964 C122.65172556 119.78186664 133.3672613 130.47992454 144.08569709 141.1751032 C155.10590491 152.17159262 166.12047375 163.17370397 177.12941188 174.18147606 C183.30454253 180.35569083 189.48205877 186.52747568 195.66581154 192.69305611 C200.92653841 197.93837624 206.1820883 203.18881527 211.43098853 208.4459712 C214.10733268 211.12621824 216.78602421 213.80400091 219.47133827 216.4752636 C222.38494357 219.3737619 225.28674183 222.28380428 228.18757629 225.19508362 C229.03387236 226.03332328 229.88016842 226.87156294 230.75210983 227.7352038 C238.55217183 235.60111534 244.07631483 242.99800042 244.5 254.4375 C244.03930699 269.68643859 232.66631497 278.23167095 222.51000977 288.39389038 C221.56800238 289.3399259 220.62620155 290.28616713 219.68458652 291.23259318 C217.12494967 293.80404776 214.56228913 296.37246933 211.99903917 298.94032168 C209.22428098 301.72109177 206.45231931 304.50464755 203.67990112 307.28775024 C197.00408821 313.9879413 190.32345519 320.68331576 183.6419158 327.37779564 C181.75336171 329.27006917 179.86493433 331.16246905 177.97655106 333.05491304 C166.23105789 344.82562527 154.48397284 356.59474629 142.73210144 368.35909081 C140.01832143 371.07580004 137.3045577 373.79252554 134.59082031 376.50927734 C133.57920552 377.52201121 133.57920552 377.52201121 132.54715407 378.55520435 C121.6041708 389.51086198 110.67152197 400.47677327 99.74302256 411.44687693 C88.50728236 422.7250386 77.26213495 433.99375161 66.00777721 445.2533356 C59.69506348 451.56946065 53.38656995 457.88967901 47.08865356 464.22056198 C41.7306769 469.60654151 36.36427291 474.98394069 30.98668122 480.35033886 C28.24499652 483.08683992 25.50749692 485.82720554 22.78081894 488.57866669 C19.82234476 491.56380572 16.84477 494.52913967 13.86499023 497.49301147 C13.01020867 498.36167512 12.15542711 499.23033877 11.27474308 500.12532556 C5.28043209 506.04106872 -0.20221124 509.92530562 -8.65625 511.09375 C-22.62887238 510.97432588 -28.96064405 507.17679346 -38.8125 497.5625 C-39.92756042 496.51995025 -41.04348802 495.47832745 -42.16015625 494.4375 C-50.7026288 486.34475785 -57.74332292 478.27169614 -58.125 465.9375 C-57.92061105 452.03905146 -48.08560791 443.67740282 -38.87147522 434.5012207 C-38.10186995 433.73076101 -37.33226469 432.96030132 -36.53933805 432.16649437 C-33.97919322 429.60471224 -31.41550886 427.04650294 -28.85180664 424.48828125 C-27.00821814 422.64497502 -25.16485021 420.80144817 -23.32168579 418.9577179 C-19.36300703 414.99851664 -15.40251217 411.04113976 -11.44075203 407.08502197 C-5.71282577 401.36524812 0.01231312 395.64269087 5.73679144 389.9194665 C15.02610255 380.63234004 24.31764121 371.34744554 33.6105957 362.06396484 C42.63390769 353.04984216 51.65616113 344.03466212 60.67700195 335.01806641 C61.51209562 334.18336683 61.51209562 334.18336683 62.36405986 333.33180463 C65.15720397 330.53996562 67.95032739 327.7481059 70.74344051 324.95623589 C93.88825185 301.82177889 117.03668448 278.69094859 140.1875 255.5625 C138.83506616 252.54412461 137.32912622 250.45783827 134.98807049 248.13094139 C134.32532673 247.46729903 133.66258296 246.80365666 132.97975606 246.11990392 C132.24971216 245.39909631 131.51966827 244.6782887 130.76750183 243.93563843 C129.99344586 243.16340144 129.21938989 242.39116445 128.42187768 241.59552634 C125.81873812 239.00082153 123.20853752 236.41333587 120.59838867 233.82568359 C118.73384525 231.96988708 116.86977678 230.11361328 115.00614929 228.25689697 C110.98756535 224.2543242 106.96561631 220.25515903 102.94164085 216.25800705 C96.57755083 209.93584931 90.22326442 203.60388883 83.87043762 197.27041626 C81.69587636 195.10273507 79.52123922 192.93513004 77.34657001 190.76755714 C76.80308068 190.22583946 76.25959135 189.68412178 75.69963264 189.12598842 C69.51308163 182.95993222 63.32420657 176.79621074 57.13452148 170.63330078 C56.56874723 170.06996909 56.00297298 169.50663739 55.42005406 168.92623504 C46.25840738 159.804565 37.09084636 150.6888558 27.92196544 141.57445841 C18.50313003 132.21111109 9.09397935 122.83810296 -0.30713671 113.45696509 C-6.10263588 107.67452151 -11.90598145 101.9001844 -17.71975841 96.13611694 C-21.70706505 92.18160072 -25.68517591 88.21798672 -29.65627984 84.24720065 C-31.94524377 81.95900105 -34.23938636 79.67646297 -36.54206085 77.40205002 C-39.04364806 74.92992491 -41.52922574 72.44270839 -44.0115509 69.95126343 C-45.0965785 68.8901285 -45.0965785 68.8901285 -46.20352584 67.80755651 C-53.11287817 60.8083365 -57.28717628 53.2603774 -58.0625 43.375 C-57.4269983 33.68359904 -54.26796472 27.96996886 -47.41308594 21.17041016 C-45.49403574 19.24257846 -43.62858146 17.26766932 -41.7578125 15.29296875 C-40.27755348 13.75635469 -38.79577039 12.22120742 -37.3125 10.6875 C-36.26328369 9.58039673 -36.26328369 9.58039673 -35.19287109 8.45092773 C-25.69016743 -1.19434964 -13.2297515 -5.0992115 0 0 Z " fill="#A9A9A9" transform="translate(162.8125,1.4375)"/>
</svg>
