<?xml version="1.0" encoding="UTF-8"?>
<svg version="1.1" xmlns="http://www.w3.org/2000/svg" width="717" height="717">
<path d="M0 0 C0.79245117 0.00161133 1.58490234 0.00322266 2.40136719 0.00488281 C8.66450249 0.13573898 13.70234307 1.22651992 19.1875 4.375 C20.1775 4.931875 21.1675 5.48875 22.1875 6.0625 C33.17941278 14.53543276 42.77401006 24.78126761 52.578125 34.5625 C53.39994011 35.38148773 54.22175522 36.20047546 55.06847382 37.04428101 C59.40934754 41.37025101 63.74740511 45.69902088 68.08300781 50.03027344 C72.54356892 54.48533271 77.01334824 58.93102238 81.48532486 63.37461853 C84.94258735 66.81321541 88.39308297 70.25854277 91.84178925 73.70571899 C93.48663354 75.34755008 95.13396256 76.98689599 96.78388214 78.62362671 C99.09260282 80.91518916 101.39155887 83.21614633 103.68847656 85.51953125 C104.36185059 86.18369049 105.03522461 86.84784973 105.72900391 87.53213501 C115.33645569 97.22407713 121.52968975 107.49628371 121.6875 121.3125 C121.44598654 140.74135946 109.40855338 151.45398647 96.46733093 164.3625946 C95.06144062 165.77222518 93.65598221 167.18228662 92.25091678 168.5927394 C88.40259293 172.45326143 84.5480793 176.30755017 80.69247162 180.16079581 C76.52997661 184.32288186 72.37321661 188.49068913 68.21566772 192.65771484 C60.07555388 200.81442079 51.92990952 208.96558173 43.78205379 217.11455353 C37.15948814 223.73803944 30.53852608 230.36312425 23.91868019 236.98932838 C22.01090814 238.89889559 20.10312832 240.80845504 18.19534618 242.71801215 C17.72103032 243.19277011 17.24671446 243.66752806 16.75802539 244.15667262 C3.42430372 257.50269525 -9.91161717 270.84651704 -23.25193501 284.18594646 C-24.00574658 284.93971131 -24.00574658 284.93971131 -24.77478668 285.70870372 C-27.32170277 288.25545361 -29.8686348 290.80218756 -32.41557036 293.34891798 C-33.17427647 294.10756426 -33.17427647 294.10756426 -33.94830997 294.88153672 C-34.97116712 295.904313 -35.99402563 296.92708791 -37.0168855 297.94986147 C-52.93597293 313.86772299 -68.8469142 329.7936881 -84.75170898 345.72583008 C-102.63214462 363.63699742 -120.51933199 381.54138504 -138.41606969 399.43626434 C-140.32481395 401.34485934 -142.23353228 403.25348026 -144.14223289 405.16211891 C-144.61218748 405.63205018 -145.08214206 406.10198146 -145.56633769 406.58615307 C-152.65449952 413.67425721 -159.73727157 420.76771616 -166.81734657 427.86389732 C-174.86996369 435.93471583 -182.92946359 443.9985817 -190.99797741 452.05350932 C-195.11360665 456.16260458 -199.22595024 460.27485144 -203.32963753 464.39587593 C-207.08814779 468.1701015 -210.85581199 471.93493262 -214.63090219 475.69257233 C-215.99303337 477.05163037 -217.35181325 478.41405759 -218.70682434 479.78021463 C-235.44635275 496.64825565 -250.33355057 500.28054436 -273.44140625 503.29296875 C-275.44143497 503.55746852 -277.44142925 503.82222875 -279.44139099 504.0872345 C-283.62054014 504.6391343 -287.80037301 505.18546794 -291.98071289 505.72827148 C-297.28489822 506.41779633 -302.58658306 507.12481554 -307.88781834 507.83661938 C-312.01621437 508.38825248 -316.14605077 508.92845229 -320.27635002 509.46563148 C-322.22888168 509.72126716 -324.18091998 509.98070611 -326.13238716 510.24434471 C-335.86774554 511.55472966 -345.47892399 512.59413857 -355.31225586 512.62231445 C-356.08896165 512.62488093 -356.86566744 512.62744741 -357.66590977 512.63009167 C-368.08161108 512.50664797 -374.20313834 508.83051609 -381.61328125 501.74609375 C-388.45407739 494.37067056 -391.1899673 486.93533145 -391.0949707 476.84741211 C-391.09005521 476.01958945 -391.08513971 475.1917668 -391.08007526 474.3388586 C-390.91719327 464.40962409 -389.62075815 454.64477524 -388.29296875 444.81640625 C-388.03024806 442.80975962 -387.76841035 440.8029972 -387.50740051 438.79612732 C-386.96265639 434.62776794 -386.4097716 430.46060275 -385.8503418 426.29418945 C-385.13782202 420.98517652 -384.44245907 415.67409087 -383.7527113 410.36207676 C-383.21515702 406.23212167 -382.67039137 402.10314331 -382.12331581 397.97443962 C-381.8644322 396.01687778 -381.60729823 394.05908364 -381.35204124 392.10104561 C-378.19873937 368.01229225 -372.34918857 354.28082796 -355.0164032 337.07096863 C-353.6018364 335.65178721 -352.18814183 334.23173597 -350.77524024 332.81089669 C-346.90856601 328.92758366 -343.02958776 325.05677266 -339.14838564 321.18798697 C-334.95771577 317.00638742 -330.77859746 312.81326975 -326.59796143 308.62164307 C-318.88626596 300.89320529 -311.16551947 293.17388623 -303.43997069 285.4592982 C-296.30269604 278.3320996 -289.16916764 271.20117774 -282.03931618 264.06655312 C-281.56573166 263.59266305 -281.09214714 263.11877299 -280.60421157 262.63052263 C-278.68162311 260.70668874 -276.75904874 258.78284077 -274.83649759 256.8589696 C-256.81535572 238.82560199 -238.78258715 220.80390106 -220.74456266 202.78742225 C-204.72915929 186.79100325 -188.72413205 170.78427179 -172.7277832 154.76879883 C-154.74197284 136.76155763 -136.74970191 118.76081227 -118.74699622 100.7704609 C-116.8270285 98.85177599 -114.90707649 96.93307534 -112.98713112 95.01436806 C-112.51441024 94.54196348 -112.04168935 94.06955891 -111.5546436 93.58283905 C-104.42502093 86.45776089 -97.3003361 79.32777045 -90.17804527 72.195364 C-82.07804238 64.0841376 -73.97094081 55.98008733 -65.854683 47.88512471 C-61.71478615 43.75573285 -57.57813826 39.62322115 -53.4501133 35.48195839 C-49.6693967 31.68930146 -45.87953079 27.90604237 -42.08223341 24.12998871 C-40.71203861 22.76425288 -39.34518433 21.39515543 -37.98208531 20.02233746 C-26.72660551 8.69279741 -16.77736016 -0.03556032 0 0 Z M-2.91323853 58.23522949 C-3.77927704 59.10570923 -4.64531555 59.97618896 -5.53759766 60.87304688 C-6.01581467 61.35097183 -6.49403168 61.82889679 -6.98674011 62.32130432 C-8.57146524 63.90742648 -10.14898304 65.50052305 -11.7265625 67.09375 C-12.82186033 68.19277663 -13.91759959 69.29136349 -15.01376343 70.38952637 C-17.90173265 73.28514249 -20.78364654 76.18671395 -23.66436768 79.08953857 C-26.60336171 82.04896828 -29.54800503 85.00276481 -32.4921875 87.95703125 C-38.27118974 93.75750205 -44.04381125 99.56427222 -49.8125 105.375 C-45.96152009 109.97909633 -41.97322823 114.35667412 -37.71533203 118.58569336 C-37.13899521 119.16217621 -36.56265839 119.73865906 -35.96885681 120.33261108 C-34.08837265 122.21240595 -32.20438591 124.08864693 -30.3203125 125.96484375 C-29.00587426 127.27741431 -27.69165856 128.59020776 -26.37765503 129.9032135 C-22.93743488 133.33963602 -19.49422107 136.77304337 -16.050354 140.20581055 C-12.52913589 143.71675501 -9.01078651 147.2305717 -5.4921875 150.74414062 C1.39825268 157.62389212 8.29186205 164.50045855 15.1875 171.375 C21.23015914 166.37244121 26.74848043 160.94322676 32.27734375 155.3828125 C33.23118954 154.42709752 34.18525941 153.47160612 35.13954163 152.5163269 C37.62903194 150.02305084 40.11550224 147.52678475 42.60131836 145.02984619 C45.14707994 142.47378491 47.69573777 139.92061495 50.24414062 137.3671875 C55.22807069 132.37258981 60.20881048 127.37482201 65.1875 122.375 C63.54258462 118.16979193 60.44165446 115.34803415 57.30078125 112.22949219 C56.69898041 111.62418671 56.09717957 111.01888123 55.47714233 110.39523315 C53.4897587 108.39905788 51.4951617 106.41027397 49.5 104.421875 C48.11730135 103.03782932 46.73489973 101.65348685 45.3527832 100.26885986 C42.45750678 97.37063595 39.55864585 94.47605825 36.65722656 91.58398438 C32.93106991 87.86924327 29.21399113 84.14556823 25.49952698 80.41913986 C22.64821422 77.56061661 19.79217555 74.70685367 16.93466187 71.85453033 C15.56160476 70.48281086 14.19004133 69.10959462 12.81997681 67.73488617 C10.90950904 65.81936421 8.99279123 63.91032919 7.07421875 62.00292969 C6.5048056 61.42946808 5.93539246 60.85600647 5.34872437 60.26516724 C1.53073842 55.96265902 1.53073842 55.96265902 -2.91323853 58.23522949 Z M-90.81679535 146.1108532 C-92.0801659 147.36085021 -92.0801659 147.36085021 -93.36905909 148.6360997 C-94.2995877 149.56699704 -95.23011632 150.49789438 -96.18884277 151.45700073 C-97.18280519 152.44436884 -98.17719436 153.4313075 -99.17197561 154.41785061 C-101.91595938 157.14174341 -104.65357111 159.87196435 -107.39017367 162.60327005 C-110.33830718 165.54361223 -113.29210651 168.47825357 -116.24507141 171.41374207 C-123.38206652 178.51116139 -130.509322 185.6183233 -137.63544297 192.72665805 C-140.98976043 196.07221531 -144.34506383 199.41678347 -147.70024109 202.76147842 C-158.85113517 213.87833954 -169.99950559 224.9977223 -181.14063263 236.12437248 C-184.03367783 239.01359774 -186.92673337 241.90281264 -189.81982422 244.79199219 C-190.53890675 245.51010724 -191.25798929 246.2282223 -191.99886221 246.96809842 C-203.6460743 258.59871264 -215.31021731 270.21219029 -226.98156875 281.81857537 C-238.95892674 293.72980494 -250.92118573 305.65602903 -262.86872149 317.59717286 C-269.57920903 324.30332847 -276.29614162 331.00273937 -283.029953 337.68548203 C-288.7655205 343.37765238 -294.48726645 349.08327189 -300.19144332 354.80690591 C-303.10215012 357.72670798 -306.0189352 360.63966335 -308.95353127 363.53547096 C-311.64179862 366.18851099 -314.31082378 368.85946327 -316.96593696 371.54567124 C-318.38259686 372.96933758 -319.8189348 374.37333953 -321.25594091 375.77646625 C-326.74132466 381.37362122 -329.22849528 385.52632567 -329.8125 393.375 C-329.99209259 394.52494949 -330.17168518 395.67489899 -330.35671997 396.85969543 C-330.49439789 397.90606674 -330.63207581 398.95243805 -330.77392578 400.03051758 C-330.93394073 401.23488968 -331.09395569 402.43926178 -331.25881958 403.68013 C-331.50582108 405.58063362 -331.50582108 405.58063362 -331.7578125 407.51953125 C-331.93411417 408.86092233 -332.11062154 410.2022864 -332.287323 411.54362488 C-332.65418502 414.33438478 -333.01864945 417.12544404 -333.38134766 419.91674805 C-333.84530045 423.4858516 -334.31522647 427.05413896 -334.78691292 430.62222767 C-335.15128868 433.38347532 -335.51257146 436.14512088 -335.87292099 438.90689659 C-336.1282569 440.85969028 -336.38614212 442.81215009 -336.64407349 444.76460266 C-336.79778412 445.95321396 -336.95149475 447.14182526 -337.10986328 448.36645508 C-337.31399338 449.93004509 -337.31399338 449.93004509 -337.52224731 451.52522278 C-337.79134534 454.16729801 -337.86734279 456.72187055 -337.8125 459.375 C-325.25733518 458.50336714 -312.78465346 457.08149194 -300.29905224 455.52634239 C-296.78908718 455.08927439 -293.27855071 454.66405762 -289.76391602 454.26611328 C-286.32186534 453.87613956 -282.88450188 453.4570312 -279.44841957 453.01765823 C-277.52988784 452.77957036 -275.60782893 452.57046935 -273.68583679 452.3621521 C-272.50713516 452.20574249 -271.32843353 452.04933289 -270.11401367 451.88818359 C-269.08733078 451.76462494 -268.06064789 451.64106628 -267.00285339 451.51376343 C-258.67230169 448.54025973 -252.04881012 439.75156999 -245.92895508 433.61170959 C-244.95293557 432.63612696 -243.97669599 431.66076445 -243.00025749 430.68560117 C-240.33671799 428.02428365 -237.67628296 425.35988199 -235.01637244 422.69493806 C-232.14032302 419.81455114 -229.26136449 416.93707437 -226.38276672 414.05923462 C-221.40208112 409.07907217 -216.42322285 404.09708896 -211.44561768 399.11384773 C-204.24892303 391.90900974 -197.04945317 384.70695011 -189.84931326 377.50555532 C-178.16630132 365.82035732 -166.4855221 354.13293009 -154.80615234 342.4440918 C-143.4639028 331.09265662 -132.12059852 319.74227714 -120.77587891 308.39331055 C-120.07603673 307.69320565 -119.37619456 306.99310075 -118.65514505 306.27178056 C-115.14407061 302.75940103 -111.63297547 299.2470422 -108.12187004 295.73469365 C-79.01553758 266.61800244 -49.91283078 237.49768944 -20.8125 208.375 C-22.71422934 204.24178772 -25.50328284 201.40270536 -28.69921875 198.22949219 C-29.30101959 197.62418671 -29.90282043 197.01888123 -30.52285767 196.39523315 C-32.5102413 194.39905788 -34.5048383 192.41027397 -36.5 190.421875 C-37.88269865 189.03782932 -39.26510027 187.65348685 -40.6472168 186.26885986 C-43.54249322 183.37063595 -46.44135415 180.47605825 -49.34277344 177.58398438 C-53.06893009 173.86924327 -56.78600887 170.14556823 -60.50047302 166.41913986 C-63.35178578 163.56061661 -66.20782445 160.70685367 -69.06533813 157.85453033 C-70.43839524 156.48281086 -71.80995867 155.10959462 -73.18002319 153.73488617 C-75.09049096 151.81936421 -77.00720877 149.91032919 -78.92578125 148.00292969 C-79.4951944 147.42946808 -80.06460754 146.85600647 -80.65127563 146.26516724 C-85.30613147 141.6606468 -86.23866735 141.555151 -90.81679535 146.1108532 Z " fill="#546C83" transform="translate(492.8125,101.625)"/>
</svg>
