<?xml version="1.0" encoding="UTF-8"?>
<svg version="1.1" xmlns="http://www.w3.org/2000/svg" width="512" height="512">
<path d="M0 0 C4.07831543 3.09951972 6.71636941 5.67969034 7.49302626 10.80248523 C7.64689103 13.85966042 7.66566931 16.89315551 7.64398193 19.95419312 C7.65148319 21.12721564 7.65898444 22.30023816 7.666713 23.50880682 C7.68348183 26.75628694 7.68242645 30.0031949 7.67380548 33.25068879 C7.66885764 36.7557785 7.68694922 40.26075875 7.70222473 43.76580811 C7.72553328 49.8357024 7.73428544 55.90547724 7.73311615 61.97541428 C7.73144666 70.75146522 7.75178415 79.52735695 7.77747145 88.30336542 C7.81855185 102.54224237 7.84186521 116.78109067 7.85400391 131.02001953 C7.86583269 144.8507767 7.88602998 158.68147995 7.91748047 172.51220703 C7.92038462 173.79126362 7.92038462 173.79126362 7.92334744 175.09615974 C7.93311204 179.37398064 7.94304115 183.65180113 7.95305204 187.92962146 C8.03587321 223.41138983 8.08985954 258.89315359 8.125 294.375 C8.73496826 293.74932129 9.34493652 293.12364258 9.97338867 292.47900391 C12.25031663 290.1508045 14.53403638 287.8295429 16.82250977 285.51269531 C17.80964193 284.51052083 18.7940593 283.50566447 19.77563477 282.49804688 C21.19093722 281.04616033 22.6158767 279.60435111 24.04296875 278.1640625 C25.32337036 276.86009521 25.32337036 276.86009521 26.62963867 275.52978516 C31.29972521 271.49708935 35.63849659 270.91496197 41.625 271.06640625 C47.07803255 271.73951496 50.1257292 274.11950592 53.5625 278.4375 C55.87912656 283.09081049 56.10173941 288.32611909 55.125 293.375 C52.54872101 297.63035321 49.65168157 301.1006731 46.14453125 304.61425781 C45.66269379 305.09959991 45.18085632 305.58494202 44.68441772 306.08499146 C43.1070687 307.67106812 41.52260682 309.24980428 39.9375 310.828125 C38.8314949 311.93547889 37.7257867 313.0431294 36.62036133 314.15106201 C34.31036402 316.46399805 31.99681293 318.77330271 29.68066406 321.08007812 C26.71479314 324.03452851 23.75802786 326.99790369 20.80384827 329.96403885 C18.52550105 332.24961565 16.2424087 334.53040447 13.95785522 336.80977631 C12.8655626 337.90073687 11.77474791 338.99317929 10.68545532 340.08713531 C9.16358404 341.61409277 7.63543633 343.13448094 6.10546875 344.65332031 C5.23817139 345.51902649 4.37087402 346.38473267 3.47729492 347.27667236 C-0.53886596 350.85922543 -3.39711754 351.68189717 -8.75 351.75 C-9.75804687 351.77835937 -10.76609375 351.80671875 -11.8046875 351.8359375 C-17.81215691 350.93405278 -21.93824734 346.56426704 -26.11425781 342.41040039 C-26.59959991 341.93016922 -27.08494202 341.44993805 -27.58499146 340.95515442 C-29.17118741 339.38274164 -30.74996409 337.80313037 -32.328125 336.22265625 C-33.43555261 335.11912012 -34.54320191 334.01580642 -35.65106201 332.91270447 C-37.96414689 330.6070563 -40.27335093 328.2976038 -42.58007812 325.9855957 C-45.53283038 323.02703455 -48.49682717 320.0800298 -51.46403885 317.13597965 C-53.75124976 314.86351048 -56.03148569 312.58414154 -58.30977631 310.30273247 C-59.39985335 309.21316783 -60.4922876 308.12595611 -61.58713531 307.04118538 C-63.1164828 305.52420125 -64.63594957 303.99794555 -66.15332031 302.46899414 C-67.01902649 301.60391739 -67.88473267 300.73884064 -68.77667236 299.84754944 C-72.7469849 295.16915991 -73.33430185 290.83240264 -73.18359375 284.875 C-72.67225842 280.73253655 -71.4642128 278.69450359 -68.875 275.375 C-64.05438294 271.61491869 -60.45047864 270.93160376 -54.40234375 270.94140625 C-48.71437781 271.91723966 -44.86447805 275.01559705 -40.9140625 279.04296875 C-40.03105469 279.93564453 -39.14804688 280.82832031 -38.23828125 281.74804688 C-37.33464844 282.67681641 -36.43101563 283.60558594 -35.5 284.5625 C-34.56450532 285.5130624 -33.62831336 286.46293909 -32.69140625 287.41210938 C-30.41232996 289.72642911 -28.14056946 292.04746896 -25.875 294.375 C-25.87478263 293.77249072 -25.87456526 293.16998144 -25.87434131 292.5492143 C-25.86082642 256.84218824 -25.82135004 221.13528281 -25.74814438 185.428328 C-25.73937759 181.14126526 -25.73082779 176.85420212 -25.72241211 172.56713867 C-25.72073305 171.71365902 -25.71905398 170.86017937 -25.71732404 169.9808367 C-25.69065185 156.16012597 -25.6815588 142.33945671 -25.67895857 128.51872288 C-25.67589947 114.33810543 -25.65395783 100.15760793 -25.61447543 85.97704464 C-25.59070666 77.2263323 -25.58167886 68.47585937 -25.59148689 59.72511918 C-25.5968013 53.72497067 -25.5837797 47.72503676 -25.5563371 41.72494935 C-25.54104357 38.26274622 -25.53383705 34.80102334 -25.54840279 31.33880615 C-25.55998343 27.58353223 -25.5409658 23.82961581 -25.51423645 20.07444763 C-25.52490971 18.98202631 -25.53558297 17.88960499 -25.54657966 16.76407999 C-25.45609144 9.96203952 -24.4894419 6.44923584 -19.875 1.375 C-14.10974149 -2.78134916 -6.35182078 -3.26469928 0 0 Z " fill="#566D83" transform="translate(104.875,80.625)"/>
<path d="M0 0 C1.02994835 -0.00623996 2.0598967 -0.01247993 3.1210556 -0.01890898 C6.57117119 -0.03485976 10.02058233 -0.02222602 13.47070312 -0.00964355 C15.94458427 -0.01506372 18.41846219 -0.02218578 20.89233398 -0.03088379 C26.91349825 -0.0472373 32.93438621 -0.0448334 38.9555397 -0.03323323 C43.84952684 -0.02419539 48.74345808 -0.02297641 53.63745117 -0.02732849 C54.33429693 -0.02794142 55.03114268 -0.02855436 55.74910498 -0.02918586 C57.1647854 -0.03046478 58.58046581 -0.03176163 59.9961462 -0.03307623 C73.26737593 -0.04447923 86.53849509 -0.03137274 99.80970669 -0.00987476 C111.1941567 0.007996 122.57844356 0.00489182 133.96289062 -0.0135498 C147.18700089 -0.03496149 160.41101428 -0.04338062 173.63513947 -0.03110075 C175.04557799 -0.02982657 176.45601653 -0.02856909 177.86645508 -0.02732849 C178.90736746 -0.02640284 178.90736746 -0.02640284 179.96930838 -0.02545848 C184.85675986 -0.02200647 189.74414984 -0.02783071 194.6315918 -0.0372467 C201.21112032 -0.04964413 207.79038837 -0.04080294 214.36990356 -0.01766968 C216.78621915 -0.01237564 219.20256065 -0.01390816 221.61886597 -0.02272034 C224.91423114 -0.03363137 228.20860448 -0.01996465 231.50390625 0 C232.46285545 -0.00892289 233.42180466 -0.01784577 234.40981293 -0.02703905 C240.03725907 0.03920896 243.2967234 0.73385135 247.75195312 4.50793457 C251.38028976 8.32723629 252.06195771 11.39072463 252.25195312 16.50793457 C252.06195771 21.62514451 251.38028976 24.68863285 247.75195312 28.50793457 C242.42624692 33.01940976 238.16709005 33.07786912 231.50390625 33.01586914 C230.4739579 33.0221091 229.44400955 33.02834907 228.38285065 33.03477812 C224.93273506 33.0507289 221.48332392 33.03809516 218.03320312 33.0255127 C215.55932198 33.03093286 213.08544406 33.03805492 210.61157227 33.04675293 C204.590408 33.06310644 198.56952004 33.06070254 192.54836655 33.04910237 C187.65437941 33.04006453 182.76044817 33.03884555 177.86645508 33.04319763 C177.16960932 33.04381056 176.47276357 33.0444235 175.75480127 33.045055 C174.33912085 33.04633392 172.92344044 33.04763077 171.50776005 33.04894537 C158.23653032 33.06034837 144.96541116 33.04724188 131.69419956 33.0257439 C120.30974955 33.00787314 108.92546269 33.01097733 97.54101562 33.02941895 C84.31690536 33.05083063 71.09289197 33.05924976 57.86876678 33.04696989 C56.45832826 33.04569571 55.04788972 33.04443823 53.63745117 33.04319763 C52.59653879 33.04227198 52.59653879 33.04227198 51.53459787 33.04132763 C46.64714639 33.03787561 41.75975641 33.04369985 36.87231445 33.05311584 C30.29278593 33.06551327 23.71351788 33.05667208 17.13400269 33.03353882 C14.7176871 33.02824478 12.3013456 33.0297773 9.88504028 33.03858948 C6.58967511 33.04950051 3.29530177 33.03583379 0 33.01586914 C-0.9589492 33.02479203 -1.91789841 33.03371491 -2.90590668 33.04290819 C-8.53335282 32.97666018 -11.79281715 32.28201779 -16.24804688 28.50793457 C-19.87638351 24.68863285 -20.55805146 21.62514451 -20.74804688 16.50793457 C-20.55805146 11.39072463 -19.87638351 8.32723629 -16.24804688 4.50793457 C-10.92234067 -0.00354062 -6.6631838 -0.06199998 0 0 Z " fill="#556C83" transform="translate(228.248046875,383.4920654296875)"/>
<path d="M0 0 C1.25090675 -0.00935994 1.25090675 -0.00935994 2.52708435 -0.01890898 C5.31391906 -0.03482936 8.09987796 -0.0222386 10.88671875 -0.00964355 C12.88770049 -0.0150651 14.88867824 -0.02218794 16.88964844 -0.03088379 C22.3193745 -0.04911614 27.74879647 -0.04204986 33.17852783 -0.02936745 C38.86121438 -0.0192394 44.54387493 -0.02863259 50.2265625 -0.03491211 C59.76957879 -0.04218906 69.31247126 -0.03259948 78.85546875 -0.0135498 C89.88799463 0.00821896 100.92022482 0.00116763 111.95274353 -0.02085543 C121.42551708 -0.03900799 130.89820162 -0.04156843 140.37098694 -0.03110075 C146.02846117 -0.02486506 151.68579642 -0.02403236 157.34326172 -0.0372467 C162.66212809 -0.0488024 167.98061328 -0.04078433 173.29943848 -0.01766968 C175.25133633 -0.01238113 177.20326628 -0.01389885 179.15515137 -0.02272034 C181.82001297 -0.0336536 184.48365366 -0.01993932 187.1484375 0 C188.30671303 -0.01338433 188.30671303 -0.01338433 189.48838806 -0.02703905 C194.6676624 0.04811473 197.57125259 1.26427255 201.57421875 4.50793457 C205.20255538 8.32723629 205.88422333 11.39072463 206.07421875 16.50793457 C205.88422333 21.62514451 205.20255538 24.68863285 201.57421875 28.50793457 C196.83204604 32.35058647 193.08756051 33.08449805 187.1484375 33.01586914 C185.89753075 33.02522908 185.89753075 33.02522908 184.62135315 33.03477812 C181.83451844 33.0506985 179.04855954 33.03810774 176.26171875 33.0255127 C174.26073701 33.03093424 172.25975926 33.03805708 170.25878906 33.04675293 C164.829063 33.06498529 159.39964103 33.057919 153.96990967 33.04523659 C148.28722312 33.03510854 142.60456257 33.04450173 136.921875 33.05078125 C127.37885871 33.0580582 117.83596624 33.04846862 108.29296875 33.02941895 C97.26044287 33.00765018 86.22821268 33.01470151 75.19569397 33.03672457 C65.72292042 33.05487713 56.25023588 33.05743757 46.77745056 33.04696989 C41.11997633 33.0407342 35.46264108 33.0399015 29.80517578 33.05311584 C24.48630941 33.06467154 19.16782422 33.05665347 13.84899902 33.03353882 C11.89710117 33.02825027 9.94517122 33.02976799 7.99328613 33.03858948 C5.32842453 33.04952274 2.66478384 33.03580846 0 33.01586914 C-1.15827553 33.02925347 -1.15827553 33.02925347 -2.33995056 33.04290819 C-7.5192249 32.96775441 -10.42281509 31.75159659 -14.42578125 28.50793457 C-18.05411788 24.68863285 -18.73578583 21.62514451 -18.92578125 16.50793457 C-18.73578583 11.39072463 -18.05411788 8.32723629 -14.42578125 4.50793457 C-9.68360854 0.66528267 -5.93912301 -0.06862891 0 0 Z " fill="#556C83" transform="translate(226.42578125,287.4920654296875)"/>
<path d="M0 0 C1.31218506 -0.0112793 2.62437012 -0.02255859 3.97631836 -0.03417969 C5.41845926 -0.02640353 6.86059796 -0.01821092 8.30273438 -0.00964355 C9.83081732 -0.01506733 11.35889504 -0.02219143 12.88696289 -0.03088379 C17.02750517 -0.04908987 21.16764793 -0.042061 25.30819702 -0.02936745 C29.64557963 -0.01922564 33.98292852 -0.0286364 38.3203125 -0.03491211 C45.60357796 -0.04218508 52.88668107 -0.03261004 60.16992188 -0.0135498 C68.5849636 0.00821833 76.99961764 0.0011667 85.41464996 -0.02085543 C92.64541182 -0.03901944 99.87605711 -0.04156287 107.10683441 -0.03110075 C111.42293145 -0.0248713 115.73884638 -0.02401502 120.05493164 -0.0372467 C124.11312975 -0.04881923 128.17082905 -0.04075428 132.22897339 -0.01766968 C133.71645276 -0.01239002 135.20397427 -0.0138837 136.69143677 -0.02272034 C138.7252653 -0.03368693 140.75918579 -0.01748202 142.79296875 0 C143.93004272 0.0015081 145.0671167 0.0030162 146.23864746 0.00457001 C151.24800298 0.80306978 154.3417063 3.39764186 157.77148438 7.00793457 C160.16952013 12.17293466 160.15029973 16.90816337 159.39648438 22.50793457 C157.08483656 27.48686832 154.10408838 29.803177 149.39648438 32.50793457 C146.23864746 33.01129913 146.23864746 33.01129913 142.79296875 33.01586914 C140.82469116 33.03278809 140.82469116 33.03278809 138.81665039 33.05004883 C137.37450949 33.04227267 135.93237079 33.03408006 134.49023438 33.0255127 C132.96215143 33.03093648 131.43407371 33.03806057 129.90600586 33.04675293 C125.76546358 33.06495901 121.62532082 33.05793014 117.48477173 33.04523659 C113.14738912 33.03509478 108.81004023 33.04450554 104.47265625 33.05078125 C97.18939079 33.05805422 89.90628768 33.04847918 82.62304688 33.02941895 C74.20800515 33.00765081 65.79335111 33.01470244 57.37831879 33.03672457 C50.14755693 33.05488858 42.91691164 33.05743201 35.68613434 33.04696989 C31.3700373 33.04074044 27.05412237 33.03988416 22.73803711 33.05311584 C18.679839 33.06468837 14.6221397 33.05662342 10.56399536 33.03353882 C9.07651599 33.02825916 7.58899448 33.02975284 6.10153198 33.03858948 C4.06770345 33.04955607 2.03378296 33.03335116 0 33.01586914 C-1.13707397 33.01436104 -2.27414795 33.01285294 -3.44567871 33.01129913 C-8.45503423 32.21279936 -11.54873755 29.61822728 -14.97851562 26.00793457 C-17.37655138 20.84293448 -17.35733098 16.10770577 -16.60351562 10.50793457 C-13.2722258 3.3328488 -7.82264033 0.01037518 0 0 Z " fill="#556C83" transform="translate(224.603515625,191.4920654296875)"/>
<path d="M0 0 C1.33285034 -0.01051392 1.33285034 -0.01051392 2.69262695 -0.02124023 C5.6183229 -0.03878886 8.54304489 -0.02720857 11.46875 -0.01367188 C13.50846542 -0.01636769 15.54817959 -0.02025085 17.58789062 -0.02526855 C21.85819765 -0.03115936 26.1281695 -0.02261394 30.3984375 -0.00390625 C35.86619751 0.01888287 41.33317211 0.00575757 46.80090332 -0.01819611 C51.01145319 -0.03266525 55.22181752 -0.02804293 59.43237305 -0.01768494 C61.44816176 -0.01502075 63.46396743 -0.01827656 65.47973633 -0.02760315 C68.29944337 -0.03778699 71.11788682 -0.02224194 73.9375 0 C74.76677002 -0.00809692 75.59604004 -0.01619385 76.45043945 -0.02453613 C81.75936306 0.05286148 84.73551987 1.03808214 88.96875 4.51757812 C92.59708663 8.33687985 93.27875458 11.40036819 93.46875 16.51757812 C93.27875458 21.63478806 92.59708663 24.6982764 88.96875 28.51757812 C83.89454676 32.68831046 80.22694792 33.0965659 73.9375 33.03515625 C73.04893311 33.04216553 72.16036621 33.0491748 71.24487305 33.05639648 C68.3191771 33.07394511 65.39445511 33.06236482 62.46875 33.04882812 C60.42903458 33.05152394 58.38932041 33.0554071 56.34960938 33.0604248 C52.07930235 33.06631561 47.8093305 33.05777019 43.5390625 33.0390625 C38.07130249 33.01627338 32.60432789 33.02939868 27.13659668 33.05335236 C22.92604681 33.0678215 18.71568248 33.06319918 14.50512695 33.05284119 C12.48933824 33.050177 10.47353257 33.05343281 8.45776367 33.0627594 C5.63805663 33.07294324 2.81961318 33.05739819 0 33.03515625 C-0.82927002 33.04325317 -1.65854004 33.0513501 -2.51293945 33.05969238 C-7.82186306 32.98229477 -10.79801987 31.99707411 -15.03125 28.51757812 C-18.65958663 24.6982764 -19.34125458 21.63478806 -19.53125 16.51757812 C-19.34125458 11.40036819 -18.65958663 8.33687985 -15.03125 4.51757812 C-9.95704676 0.34684579 -6.28944792 -0.06140965 0 0 Z " fill="#556C83" transform="translate(227.03125,95.482421875)"/>
</svg>
