<?xml version="1.0" encoding="UTF-8"?>
<svg version="1.1" xmlns="http://www.w3.org/2000/svg" width="512" height="512">
<path d="M0 0 C168.96 0 337.92 0 512 0 C512 168.96 512 337.92 512 512 C343.04 512 174.08 512 0 512 C0 343.04 0 174.08 0 0 Z " fill="#396793" transform="translate(0,0)"/>
<path d="M0 0 C2.18058873 1.8501965 4.1086717 3.80007993 6.046875 5.90234375 C7.8768155 7.86769985 9.76191296 9.58283817 11.8125 11.3125 C15.71628676 14.66408117 19.31617139 18.28626618 22.92626953 21.94580078 C26.19290502 25.23966769 29.58179291 28.31117964 33.1015625 31.328125 C37.83901867 35.50020574 42.20634397 40.02198463 46.3125 44.8125 C49.22254199 48.20199971 52.32209162 51.36397686 55.5 54.5 C72.82481731 71.64232688 72.82481731 71.64232688 73 79 C71.71980419 84.55129158 69.5170792 88.40686882 65 92 C61.30222066 94.05432186 58.79672495 94.98551409 54.5625 95.0625 C45.46923366 92.3504732 38.93873502 84.15365844 32.5 77.5625 C27.07583727 72.03327817 21.6924107 66.55206986 15.77148438 61.55053711 C13.75509932 59.7856444 11.88745799 57.90125386 10 56 C9.25383013 79.9575723 8.82868597 103.89744968 8.72960854 127.86601472 C8.71087682 132.12006107 8.68668405 136.37407658 8.66296387 140.62809753 C8.59897828 152.2646306 8.54258481 163.90119745 8.48697662 175.53777313 C8.43567618 186.27169361 8.38258737 197.0055965 8.32245111 207.73947161 C8.29913061 211.93711948 8.27753121 216.13475964 8.26036072 220.33243752 C8.21806379 230.5557132 8.14066758 240.77758115 8 251 C7.98480316 252.23484005 7.96960632 253.4696801 7.95394897 254.74193954 C7.90323705 258.09160495 7.82419016 261.43908055 7.73242188 264.7878418 C7.71939278 265.73768102 7.70636368 266.68752024 7.69293976 267.66614246 C7.48491779 273.56944515 6.41259764 277.14300833 3 282 C-0.73244401 285.15620704 -4.74436529 287.15668664 -9.69921875 286.8125 C-14.99738789 285.41866178 -18.53414594 283.36026801 -22 279 C-26.90691965 269.1861607 -24.20931336 251.227852 -24.29711914 240.36523438 C-24.31660777 238.34319207 -24.33647026 236.32115333 -24.35667419 234.29911804 C-24.40997709 228.86018666 -24.45811062 223.42122085 -24.50525212 217.98223305 C-24.55558067 212.2794269 -24.61075211 206.57666756 -24.66539001 200.87390137 C-24.76791352 190.09738496 -24.86613845 179.32083391 -24.96278423 168.54426336 C-25.07310949 156.26598045 -25.18827979 143.98774444 -25.30383885 131.70950985 C-25.54124918 106.47305479 -25.77263431 81.23654741 -26 56 C-28.71883072 58.54931063 -31.43574798 61.10065182 -34.15234375 63.65234375 C-34.9165564 64.36886108 -35.68076904 65.08537842 -36.46813965 65.8236084 C-40.5663382 69.67496734 -44.61351745 73.55822437 -48.5625 77.5625 C-52.01095607 81.05803397 -55.56696641 84.34813221 -59.30859375 87.52734375 C-61.022349 88.98165975 -61.022349 88.98165975 -62.58984375 90.61328125 C-65.11765942 93.09908337 -67.56813124 93.97353292 -71.11328125 94.0390625 C-76.39071861 93.66653751 -79.88861254 92.52404639 -84 89 C-86.79615304 85.30508349 -88.31282409 81.58117271 -89 77 C-87.03846471 68.58130826 -80.7184969 63.16964503 -74.6875 57.4375 C-72.8349401 55.64690726 -70.98463667 53.85397669 -69.13671875 52.05859375 C-68.25105225 51.19919189 -67.36538574 50.33979004 -66.45288086 49.4543457 C-63.70737577 46.70720102 -61.16710678 43.83994029 -58.6472168 40.88745117 C-55.76934859 37.5898672 -52.66572575 34.52139101 -49.5625 31.4375 C-48.94568359 30.81681641 -48.32886719 30.19613281 -47.69335938 29.55664062 C-44.56245066 26.43224785 -41.37990557 23.42835186 -38.0234375 20.546875 C-35.22268916 18.13007008 -32.59901691 15.62399029 -30.03515625 12.95703125 C-29.05192383 11.93512695 -29.05192383 11.93512695 -28.04882812 10.89257812 C-26.72059794 9.50165861 -25.4002912 8.10313093 -24.08789062 6.69726562 C-17.07039888 -0.54059878 -9.59200691 -5.75520415 0 0 Z " fill="#FDFDFD" transform="translate(179,114)"/>
<path d="M0 0 C2.67185465 2.23563348 4.45234181 3.90468363 6 7 C6.2391941 10.10049758 6.41605643 13.17993326 6.54492188 16.28564453 C6.58681389 17.25979372 6.6287059 18.23394291 6.67186737 19.23761177 C7.15933306 31.61536255 7.20864698 43.99770231 7.27039146 56.38347387 C7.28909243 59.90753768 7.31334058 63.43156378 7.33703613 66.95559692 C7.39147884 75.17860233 7.43961212 83.40163847 7.48697662 91.62468719 C7.55484759 103.35213069 7.6266988 115.07954825 7.70429993 126.8069315 C7.71392147 128.26197801 7.72347364 129.71702498 7.73295593 131.17207241 C7.94402813 163.4515412 8.42962151 195.72503586 9 228 C9.46325684 227.53094238 9.92651367 227.06188477 10.40380859 226.57861328 C11.3292749 225.64637939 11.3292749 225.64637939 12.2734375 224.6953125 C12.88106934 224.08187988 13.48870117 223.46844727 14.11474609 222.83642578 C15.89502006 221.10226095 17.72650145 219.47774162 19.625 217.875 C24.04881963 214.07085939 28.10045315 209.92712784 32.19921875 205.78125 C35.80836733 202.1467444 39.4950369 198.67012174 43.4140625 195.3671875 C45.03856169 194.01051219 45.03856169 194.01051219 46.53515625 192.3984375 C48.79061002 190.24523096 50.99354092 189.70740214 54 189 C59.18333088 189.22536221 63.69550225 191.18112537 68 194 C71.2431797 197.7662732 72.10249177 202.0970931 72 207 C70.07355034 215.39381639 64.27214845 220.26629102 58.25 226 C56.29215704 227.89099605 54.34099762 229.78880355 52.390625 231.6875 C51.45742432 232.59443604 50.52422363 233.50137207 49.56274414 234.43579102 C46.77303539 237.22709434 44.18573454 240.13070572 41.62744141 243.13232422 C38.75829587 246.42499798 35.65899927 249.48529356 32.5625 252.5625 C31.94568359 253.18318359 31.32886719 253.80386719 30.69335938 254.44335938 C27.56245066 257.56775215 24.37990557 260.57164814 21.0234375 263.453125 C18.22268916 265.86992992 15.59901691 268.37600971 13.03515625 271.04296875 C12.05192383 272.06487305 12.05192383 272.06487305 11.04882812 273.10742188 C9.72059794 274.49834139 8.4002912 275.89686907 7.08789062 277.30273438 C2.68815607 281.84063527 -1.74483307 285.45269187 -8 287 C-14.72218014 286.37235118 -18.60451157 282.91604651 -23.046875 278.09765625 C-24.8768155 276.13230015 -26.76191296 274.41716183 -28.8125 272.6875 C-32.71628676 269.33591883 -36.31617139 265.71373382 -39.92626953 262.05419922 C-43.19290502 258.76033231 -46.58179291 255.68882036 -50.1015625 252.671875 C-54.83901867 248.49979426 -59.20634397 243.97801537 -63.3125 239.1875 C-66.22254199 235.79800029 -69.32209162 232.63602314 -72.5 229.5 C-76.87870539 225.16741757 -81.09852973 220.77081962 -85 216 C-85.804375 215.030625 -86.60875 214.06125 -87.4375 213.0625 C-89.55584045 208.91055272 -89.795137 205.57203777 -89 201 C-87.38449029 196.72219623 -85.04147047 193.25846879 -81 191 C-76.56139077 189.0701699 -73.66762872 188.66639179 -69 190 C-61.46774731 193.41027189 -56.23243683 199.46978242 -50.5625 205.3125 C-48.56773401 207.35414123 -46.56849686 209.39132342 -44.56640625 211.42578125 C-44.08563629 211.91523224 -43.60486633 212.40468323 -43.10952759 212.90896606 C-39.78422008 216.27096682 -36.35181358 219.44562885 -32.73413086 222.48901367 C-30.72729393 224.23761479 -28.87475742 226.11142035 -27 228 C-26.75506892 212.36376694 -26.51243378 196.72749973 -26.27205849 181.09119606 C-26.15600134 173.54513602 -26.0392326 165.99908818 -25.92086792 158.45306396 C-25.77852701 149.37238636 -25.63801567 140.29168192 -25.5 131.2109375 C-25.48854549 130.45735883 -25.47709097 129.70378016 -25.46528935 128.92736578 C-25.17308828 109.6448071 -24.92246517 90.36292008 -24.77482796 71.07860565 C-24.75044958 67.90999694 -24.72440568 64.74140618 -24.69786072 61.57281494 C-24.62687153 52.98212055 -24.56082288 44.3916719 -24.52967262 35.80072975 C-24.51454373 32.38722139 -24.48781946 28.97387523 -24.45799255 25.56046677 C-24.44713033 24.01154746 -24.44144055 22.4625812 -24.44151306 20.91362381 C-24.44129511 18.83025656 -24.42314201 16.74777871 -24.40063477 14.66455078 C-24.39556412 13.51270294 -24.39049347 12.3608551 -24.38526917 11.17410278 C-23.94375666 7.53663006 -22.88225873 5.12807141 -21 2 C-14.11963632 -3.23182396 -7.59848758 -4.09359962 0 0 Z " fill="#FDFDFE" transform="translate(350,114)"/>
</svg>
