<?xml version="1.0" encoding="UTF-8"?>
<svg version="1.1" xmlns="http://www.w3.org/2000/svg" width="512" height="512">
<path d="M0 0 C168.96 0 337.92 0 512 0 C512 168.96 512 337.92 512 512 C343.04 512 174.08 512 0 512 C0 343.04 0 174.08 0 0 Z " fill="#396793" transform="translate(0,0)"/>
<path d="M0 0 C3.76140901 3.14908661 5.49310261 5.6147237 6.07949829 10.54750061 C6.08758514 11.81452316 6.095672 13.08154572 6.10400391 14.38696289 C6.11691593 15.45401915 6.11691593 15.45401915 6.13008881 16.5426321 C6.15545192 18.93607481 6.15964407 21.32908986 6.1640625 23.72265625 C6.178149 25.4592801 6.19355808 27.19589363 6.21017456 28.93249512 C6.24347201 32.71631426 6.26727237 36.5000374 6.28393555 40.28396606 C6.31094321 46.4100672 6.35839678 52.53591314 6.40820312 58.66186523 C6.47915189 67.65083363 6.53999752 76.63982521 6.59472656 85.62890625 C6.68867993 100.96108007 6.80714481 116.29303134 6.9296875 131.625 C6.9349683 132.28655523 6.94024909 132.94811046 6.94568992 133.62971282 C6.99387103 139.66490284 7.04216379 145.70009195 7.09082317 151.73527813 C7.14482074 158.43847032 7.1980828 165.14166695 7.24954224 171.84487915 C7.55772092 211.98309448 7.9700108 252.11687208 8.6875 292.25 C11.0973156 290.0075413 13.50580302 287.76366095 15.9140625 285.51953125 C16.59283447 284.88793091 17.27160645 284.25633057 17.97094727 283.60559082 C21.38111526 280.42656795 24.75091518 277.21967624 28.0625 273.9375 C31.33247433 271.14174273 34.15398931 270.19524217 38.44921875 270.046875 C43.59446181 270.51380805 47.35052966 271.94821309 51.0625 275.5625 C53.88322781 280.22754984 55.45122093 284.45368149 54.53515625 289.9921875 C51.33066644 298.52764885 42.65408321 305.42094987 36.2578125 311.68359375 C33.45351394 314.48363045 30.87057061 317.41178701 28.29296875 320.41796875 C23.82263538 325.51915208 18.86326704 330.00780207 13.73046875 334.42578125 C11.59080196 336.33634414 9.5752612 338.33156815 7.5625 340.375 C-1.36812086 349.34037035 -1.36812086 349.34037035 -8.08984375 351.28125 C-14.37124716 351.19293501 -18.91910447 347.24348811 -23.1875 343.0625 C-24.32156165 341.98171529 -25.45567917 340.9009892 -26.58984375 339.8203125 C-27.18909668 339.24313477 -27.78834961 338.66595703 -28.40576172 338.07128906 C-30.39786042 336.16846495 -32.4157391 334.29670956 -34.44140625 332.4296875 C-43.26584854 324.27243705 -51.67297614 315.85840293 -59.74755859 306.95898438 C-61.25583964 305.31187559 -62.78808203 303.69176814 -64.33203125 302.078125 C-65.23308594 301.12421875 -66.13414063 300.1703125 -67.0625 299.1875 C-67.84109375 298.37152344 -68.6196875 297.55554688 -69.421875 296.71484375 C-72.31828818 292.93873484 -73.80413269 289.02393053 -73.1875 284.25 C-72.35190443 279.168413 -70.07703555 275.67143141 -66.0625 272.4375 C-60.87976248 270.19949971 -57.20043615 269.59966255 -51.921875 271.41796875 C-48.15225242 273.14432913 -45.43010315 275.56249236 -42.4375 278.4375 C-41.49132812 279.33855469 -40.54515625 280.23960937 -39.5703125 281.16796875 C-39.07064972 281.64634689 -38.57098694 282.12472504 -38.05618286 282.61759949 C-35.94057344 284.59819009 -33.77778982 286.52058787 -31.60888672 288.44262695 C-30.40001297 289.51466118 -30.40001297 289.51466118 -29.16671753 290.60835266 C-28.24887985 291.42096809 -28.24887985 291.42096809 -27.3125 292.25 C-26.58307137 251.44903382 -26.17241678 210.64737546 -25.85915881 169.84125328 C-25.80752806 163.13368108 -25.75365096 156.42612742 -25.69957864 149.71857452 C-25.65099135 143.68608326 -25.60283708 137.65358852 -25.5546875 131.62109375 C-25.54940167 130.95969234 -25.54411583 130.29829092 -25.53866982 129.61684704 C-25.41221608 113.78102665 -25.2947169 97.94521561 -25.19816971 82.10918331 C-25.1437277 73.26133838 -25.07961396 64.41360017 -25.00761032 55.56588078 C-24.95895615 49.51768736 -24.922663 43.46959563 -24.89596748 37.42126751 C-24.87663892 33.74172612 -24.8450979 30.06236827 -24.80987167 26.38294792 C-24.79620605 24.70003556 -24.78757494 23.01707331 -24.78445816 21.33410835 C-24.7795691 19.05588421 -24.75656398 16.77853454 -24.72900391 14.50048828 C-24.72091705 13.23568634 -24.7128302 11.9708844 -24.70449829 10.66775513 C-24.27252508 6.9014666 -23.27945934 4.47291072 -21.3125 1.25 C-14.3748612 -3.46956601 -7.36076497 -3.88870602 0 0 Z " fill="#FDFEFE" transform="translate(105.3125,81.75)"/>
<path d="M0 0 C2.26920937 0.02205702 4.53842698 0.04306368 6.80764771 0.06391907 C18.49926988 0.17193819 30.19070565 0.29347665 41.88206482 0.42695236 C43.67245745 0.44735489 45.46285253 0.4675438 47.25325012 0.48750687 C59.20057974 0.6210025 71.14676106 0.78564697 83.09255981 1.02033997 C85.02881226 1.05722931 85.02881226 1.05722931 87.00418091 1.09486389 C90.39904492 1.1677587 93.79233204 1.2622024 97.18630981 1.36799622 C98.61940491 1.39850319 98.61940491 1.39850319 100.08145142 1.42962646 C104.86770808 1.60962553 108.21632636 1.90591788 112.09255981 5.02033997 C115.00856243 8.80034335 116.8956131 13.22511557 117.09255981 18.02033997 C115.71792223 23.21151793 113.3280533 27.63194518 109.09255981 31.02033997 C106.85015176 32.14154399 105.49375356 32.2070145 103.00076294 32.31697083 C102.12440186 32.35601028 101.24804077 32.39504974 100.34512329 32.43527222 C98.87432312 32.49091591 98.87432312 32.49091591 97.37380981 32.54768372 C96.32398926 32.58900925 95.2741687 32.63033478 94.1925354 32.6729126 C77.66653238 33.27068632 61.12718502 33.39847763 44.59255981 33.58283997 C42.77586851 33.60354218 40.95917744 33.62426382 39.14248657 33.64500427 C27.55688046 33.77608891 15.97117182 33.89254303 4.38531494 33.99902344 C2.26941231 34.01869571 0.15351952 34.03916749 -1.96237183 34.06001282 C-33.69922715 34.36689874 -65.42120702 33.92651617 -97.15219116 33.32762146 C-101.43214399 33.24684557 -105.71213602 33.17192837 -109.99227905 33.10197449 C-115.05789798 33.01827407 -120.123015 32.91959296 -125.18812752 32.80952454 C-127.07856896 32.77065983 -128.96911824 32.73670288 -130.8597393 32.70787048 C-133.47077685 32.66700309 -136.08080534 32.60805104 -138.69137573 32.54450989 C-139.83707724 32.53263783 -139.83707724 32.53263783 -141.00592422 32.52052593 C-145.45957914 32.3887803 -148.35167354 31.74662916 -151.90744019 29.02033997 C-154.8234428 25.24033658 -156.71049347 20.81556436 -156.90744019 16.02033997 C-155.5328026 10.829162 -153.14293367 6.40873475 -148.90744019 3.02033997 C-145.79053845 1.4618891 -142.45811434 1.79003459 -139.0319519 1.72322083 C-138.21329525 1.70357615 -137.3946386 1.68393148 -136.55117416 1.66369152 C-133.81324537 1.59938543 -131.07521828 1.54215333 -128.33712769 1.48518372 C-126.40901055 1.44191851 -124.48089987 1.39836453 -122.55279541 1.35453796 C-117.37236062 1.23862717 -112.19180004 1.12996543 -107.01115417 1.02394485 C-103.77974668 0.95778482 -100.54836582 0.8904228 -97.31698608 0.82292175 C-64.87236796 0.14991849 -32.45216309 -0.31971207 0 0 Z " fill="#FDFDFD" transform="translate(363.9074401855469,382.9796600341797)"/>
<path d="M0 0 C4.59535033 0.10713843 9.19089076 0.19602013 13.78668594 0.28160572 C17.38824568 0.35180798 20.989429 0.43475812 24.59062958 0.52130699 C26.28895684 0.55994632 27.98739936 0.59384684 29.68592072 0.62272072 C32.02553456 0.66364664 34.36403023 0.72262936 36.703125 0.78613281 C37.72968201 0.79800629 37.72968201 0.79800629 38.77697754 0.81011963 C43.0368596 0.95010833 45.73280951 1.75121308 49.14746094 4.31030273 C52.06346355 8.09030612 53.95051422 12.51507834 54.14746094 17.31030273 C52.77282335 22.5014807 50.38295442 26.92190795 46.14746094 30.31030273 C43.22451331 31.77177655 40.25266986 31.53768897 37.04370117 31.60742188 C36.30947433 31.62707504 35.5752475 31.64672821 34.81877136 31.66697693 C32.36462932 31.73130113 29.91037969 31.78857391 27.45605469 31.84545898 C25.718667 31.88860095 23.98128611 31.93201738 22.24391174 31.97569275 C18.56754238 32.06699026 14.89110971 32.15479761 11.21459961 32.24023438 C6.63643054 32.34689653 2.05852616 32.46203086 -2.51936913 32.57978535 C-40.73999478 33.55579166 -78.91018187 33.50611216 -117.13232422 32.62060547 C-121.78821194 32.51350511 -126.44428712 32.42460837 -131.10061264 32.33899975 C-134.74849239 32.26879737 -138.39600051 32.1858461 -142.0435257 32.09929848 C-143.76418286 32.06065335 -145.48495397 32.02675422 -147.20580292 31.99788475 C-149.57654287 31.95696228 -151.94617869 31.89797822 -154.31640625 31.83447266 C-155.01012833 31.82655701 -155.7038504 31.81864136 -156.41859436 31.81048584 C-160.70250703 31.67154109 -163.42023396 30.88953707 -166.85253906 28.31030273 C-169.76854168 24.53029935 -171.65559235 20.10552713 -171.85253906 15.31030273 C-170.47790148 10.11912477 -168.08803254 5.69869752 -163.85253906 2.31030273 C-160.90634779 0.8372071 -157.89194558 1.08254833 -154.65698242 1.01318359 C-153.91300201 0.99353043 -153.16902161 0.97387726 -152.40249634 0.95362854 C-149.91588741 0.88930553 -147.42917221 0.83203457 -144.94238281 0.77514648 C-143.18257491 0.73200663 -141.42277377 0.68859018 -139.66297913 0.64491272 C-135.9395304 0.55361755 -132.21601926 0.46580773 -128.49243164 0.38037109 C-123.85373703 0.27366965 -119.21530167 0.15854914 -114.57687569 0.04082012 C-76.36799616 -0.92205523 -38.21007468 -0.89716757 0 0 Z " fill="#FDFEFE" transform="translate(378.8525390625,287.689697265625)"/>
<path d="M0 0 C3.51801088 0.11846185 7.03603333 0.21908933 10.5546875 0.31591797 C12.36724638 0.37802479 14.17975454 0.44164517 15.9921875 0.50732422 C16.75926025 0.52593506 17.52633301 0.5445459 18.31665039 0.5637207 C22.64115507 0.75455978 25.46424919 1.50757557 28.9296875 4.13232422 C31.84569011 7.91232761 33.73274078 12.33709983 33.9296875 17.13232422 C32.55504991 22.32350218 30.16518098 26.74392943 25.9296875 30.13232422 C22.84869672 31.67281961 19.57006862 31.48095868 16.1796875 31.63232422 C15.314646 31.67220459 14.44960449 31.71208496 13.55834961 31.75317383 C-26.06612112 33.46552776 -65.70288289 33.72061664 -105.34353638 32.43960571 C-107.81579536 32.36014538 -110.2881932 32.28488721 -112.76071167 32.21395874 C-116.21877924 32.11186724 -119.67560346 31.99039292 -123.1328125 31.86279297 C-124.16716934 31.83451416 -125.20152618 31.80623535 -126.26722717 31.77709961 C-135.11192328 31.40935961 -135.11192328 31.40935961 -139.0703125 28.13232422 C-141.98631511 24.35232083 -143.87336578 19.92754861 -144.0703125 15.13232422 C-142.69567491 9.94114625 -140.30580598 5.520719 -136.0703125 2.13232422 C-133.71142034 0.95287814 -132.14194371 0.94001626 -129.50854492 0.83520508 C-128.55107361 0.79525421 -127.59360229 0.75530334 -126.6071167 0.71414185 C-125.557276 0.67554047 -124.5074353 0.63693909 -123.42578125 0.59716797 C-122.33009827 0.55405487 -121.23441528 0.51094177 -120.10552979 0.46652222 C-116.48983872 0.3275791 -112.87391569 0.19757254 -109.2578125 0.06982422 C-108.0204837 0.02530121 -106.78315491 -0.0192218 -105.5083313 -0.06509399 C-70.32205706 -1.31018127 -35.1852019 -1.2060727 0 0 Z " fill="#FCFDFD" transform="translate(351.0703125,191.86767578125)"/>
<path d="M0 0 C1.31685791 0.06993164 2.63371582 0.13986328 3.99047852 0.21191406 C5.21307373 0.29280273 6.43566895 0.37369141 7.6953125 0.45703125 C9.30817139 0.55914917 9.30817139 0.55914917 10.95361328 0.66333008 C15.18768916 1.4230293 17.93627827 2.9706385 20.5625 6.375 C24.50249213 14.81784028 24.50249213 14.81784028 23.24609375 19.5625 C21.17230921 24.50705295 18.82756116 28.71121942 13.875 31.1875 C9.32833663 31.71094048 4.75440419 31.95899994 0.1875 32.25 C-0.50215851 32.29419067 -1.19181702 32.33838135 -1.90237427 32.38391113 C-23.20453538 33.71516225 -44.44740722 33.55849427 -65.75 32.375 C-66.78784134 32.32273254 -66.78784134 32.32273254 -67.84664917 32.26940918 C-69.80745115 32.16710698 -71.76707737 32.04298134 -73.7265625 31.91796875 C-75.40226318 31.81585083 -75.40226318 31.81585083 -77.11181641 31.71166992 C-81.40245237 30.96527587 -84.15260402 29.44801331 -86.8125 26 C-90.75249213 17.55715972 -90.75249213 17.55715972 -89.49609375 12.8125 C-87.42230921 7.86794705 -85.07756116 3.66378058 -80.125 1.1875 C-75.41121373 0.6634589 -70.67085976 0.41640856 -65.9375 0.125 C-65.22449738 0.08080933 -64.51149475 0.03661865 -63.77688599 -0.00891113 C-42.49897249 -1.29656118 -21.28067691 -1.22273491 0 0 Z " fill="#FCFCFD" transform="translate(297.125,95.8125)"/>
</svg>
