<?xml version="1.0" encoding="UTF-8"?>
<svg version="1.1" xmlns="http://www.w3.org/2000/svg" width="512" height="512">
<path d="M0 0 C4.47870656 2.15937638 7.18198188 4.92952939 10 9 C11.29659201 12.88977603 11.15349409 16.58212502 11.15821838 20.6368866 C11.16562535 21.97605313 11.16562535 21.97605313 11.17318195 23.34227353 C11.18858828 26.34561208 11.19692607 29.34892919 11.20532227 32.35229492 C11.21489832 34.5004953 11.22490824 36.64869378 11.23532104 38.79689026 C11.26240566 44.63948939 11.28339596 50.48209662 11.30332303 56.32472396 C11.32516066 62.42664687 11.35256021 68.5285447 11.37937927 74.63044739 C11.42933626 86.19010549 11.47426393 97.7497775 11.51740164 109.30946285 C11.56674834 122.46770252 11.62167598 135.62591702 11.67708123 148.78413236 C11.79094742 175.85606477 11.89777636 202.92802131 12 230 C12.43546646 229.55565109 12.87093292 229.11130219 13.31959534 228.65348816 C17.8662609 224.01812162 22.42710969 219.39706065 26.99633789 214.78393555 C28.69823831 213.06195752 30.3965266 211.3364015 32.09106445 209.60717773 C34.53169068 207.11786785 36.98514777 204.64184347 39.44140625 202.16796875 C40.19273331 201.39599655 40.94406036 200.62402435 41.71815491 199.82865906 C46.90590489 194.63873287 51.00217649 191.42833823 58.5 190.625 C64.04237722 191.21882613 68.19943079 192.75408384 71.875 197 C74.50452808 200.71227494 75.18257515 203.36086448 75.3125 207.8125 C75.36857422 209.05966797 75.36857422 209.05966797 75.42578125 210.33203125 C74.40352508 216.73754467 68.87547605 221.41282603 64.45898438 225.79980469 C63.81133621 226.45095749 63.16368805 227.10211029 62.49641418 227.772995 C60.36717565 229.91099317 58.23075611 232.04164289 56.09375 234.171875 C54.60660034 235.66037264 53.11974762 237.14916699 51.63317871 238.63824463 C48.5228537 241.75151281 45.40895343 244.86114818 42.29248047 247.96826172 C38.29754023 251.95178813 34.31167216 255.94425242 30.32842255 259.93946457 C27.26258061 263.01252989 24.19199563 266.08082027 21.11994934 269.14768219 C19.6480679 270.6182295 18.17767062 272.09026387 16.70878601 273.56380463 C14.65766124 275.62000452 12.60024139 277.66969083 10.54101562 279.71777344 C9.63226433 280.63259743 9.63226433 280.63259743 8.70515442 281.56590271 C8.14168808 282.1237294 7.57822174 282.68155609 6.99768066 283.25628662 C6.51248207 283.74073116 6.02728348 284.2251757 5.5273819 284.72430038 C1.9873536 287.68100214 -1.19419703 288.35836882 -5.75 288.5 C-7.22726562 288.57734375 -7.22726562 288.57734375 -8.734375 288.65625 C-15.9594338 287.20432431 -21.58708691 280.70854723 -26.64379883 275.61499023 C-27.56003525 274.70401077 -27.56003525 274.70401077 -28.49478149 273.77462769 C-30.48721545 271.79090697 -32.472349 269.80006759 -34.45703125 267.80859375 C-35.85059437 266.41637975 -37.2444541 265.0244626 -38.63859558 263.63282776 C-41.54739863 260.72696141 -44.45258337 257.81753851 -47.35522461 254.90551758 C-51.07179205 251.17752459 -54.7973101 247.45862596 -58.52556324 243.74232388 C-61.40050893 240.87460885 -64.27066976 238.002143 -67.13941002 235.12822151 C-68.5114441 233.75485594 -69.88495806 232.38296713 -71.25998878 231.01260185 C-73.17926996 229.09840916 -75.09200804 227.17790602 -77.00317383 225.25561523 C-77.56891617 224.69392136 -78.13465851 224.13222748 -78.71754456 223.55351257 C-83.29053901 218.93117369 -86.47030477 214.85909062 -87.0546875 208.11328125 C-86.93327898 203.42170922 -85.52833405 199.66170282 -82.34375 196.19921875 C-77.74405353 192.11601362 -74.49318216 190.92188352 -68.23046875 190.671875 C-60.87179203 191.75441238 -56.26191164 197.34681702 -51.3203125 202.38671875 C-50.50754852 203.20372757 -49.69478455 204.02073639 -48.85739136 204.86250305 C-46.27277875 207.46385727 -43.69881539 210.07546676 -41.125 212.6875 C-39.37048483 214.45706774 -37.61528402 216.22595596 -35.859375 217.99414062 C-31.56494053 222.32158451 -27.27919347 226.6574873 -23 231 C-22.99853344 229.87263144 -22.99706688 228.74526289 -22.99555588 227.58373165 C-22.95896924 200.15887023 -22.89953056 172.734131 -22.81609726 145.30937099 C-22.77627926 132.04698418 -22.74390075 118.78465695 -22.72900391 105.5222168 C-22.71600175 93.96336618 -22.68907369 82.40464649 -22.64538693 70.8458696 C-22.62273999 64.72494552 -22.60709127 58.60418312 -22.60811615 52.48321342 C-22.60886084 46.72201592 -22.59098656 40.96117627 -22.55883217 35.20007133 C-22.55031332 33.08574047 -22.54859665 30.97136957 -22.55419731 28.85702896 C-22.56082867 25.96887798 -22.5429368 23.08186846 -22.51898193 20.1938324 C-22.52674235 19.35821366 -22.53450277 18.52259493 -22.54249835 17.66165441 C-22.44179068 10.79727297 -20.51285798 6.45003653 -15.5 1.5625 C-10.3293922 -0.74580705 -5.57316335 -0.75788897 0 0 Z " fill="#556C83" transform="translate(347,112)"/>
<path d="M0 0 C0.98484375 -0.0515625 1.9696875 -0.103125 2.984375 -0.15625 C10.2094338 1.29567569 15.83708691 7.79145277 20.89379883 12.88500977 C21.50462311 13.49232941 22.11544739 14.09964905 22.74478149 14.72537231 C24.73721545 16.70909303 26.722349 18.69993241 28.70703125 20.69140625 C30.10059437 22.08362025 31.4944541 23.4755374 32.88859558 24.86717224 C35.79739863 27.77303859 38.70258337 30.68246149 41.60522461 33.59448242 C45.32179205 37.32247541 49.0473101 41.04137404 52.77556324 44.75767612 C55.65050893 47.62539115 58.52066976 50.497857 61.38941002 53.37177849 C62.7614441 54.74514406 64.13495806 56.11703287 65.50998878 57.48739815 C67.42926996 59.40159084 69.34200804 61.32209398 71.25317383 63.24438477 C71.81891617 63.80607864 72.38465851 64.36777252 72.96754456 64.94648743 C77.91329965 69.94560918 81.00706922 74.2120767 81.25 81.5 C80.22482391 87.74921167 77.91170433 91.50391763 72.96875 95.40625 C69.08539577 97.87747542 64.71439289 98.15675832 60.25 97.5 C54.06719899 95.12790158 50.11287147 90.74620475 45.5703125 86.11328125 C44.35116653 84.88776802 44.35116653 84.88776802 43.10739136 83.63749695 C40.52277875 81.03614273 37.94881539 78.42453324 35.375 75.8125 C33.62048483 74.04293226 31.86528402 72.27404404 30.109375 70.50585938 C25.81494053 66.17841549 21.52919347 61.8425127 17.25 57.5 C17.24945523 58.62644676 17.24891047 59.75289352 17.24834919 60.91347504 C17.23395398 88.32200584 17.19093812 115.73037783 17.11790943 143.13881683 C17.08325592 156.39334453 17.05790341 169.64776818 17.05444336 182.90234375 C17.05140399 194.45499542 17.03091693 206.00746181 16.98947543 217.5600419 C16.96814158 223.67712207 16.955547 229.79393881 16.96384621 235.91105652 C16.97138361 241.66985525 16.95557527 247.42812008 16.92193985 253.18682098 C16.91370298 255.29911984 16.91396083 257.41147175 16.92340279 259.52376556 C16.93503307 262.4117757 16.91589321 265.2980385 16.88923645 268.18591309 C16.89990971 269.01861898 16.91058297 269.85132487 16.92157966 270.70926428 C16.81788426 276.74546856 15.05514988 280.80726415 11.25 285.5 C6.75626102 289.1309411 2.71456192 289.00234094 -2.87109375 288.8515625 C-8.08975269 288.21427715 -10.65833185 285.70968633 -14.0625 281.9375 C-17.1878542 277.42309948 -16.90206109 273.14778895 -16.90821838 267.8631134 C-16.91562535 266.52394687 -16.91562535 266.52394687 -16.92318195 265.15772647 C-16.93858828 262.15438792 -16.94692607 259.15107081 -16.95532227 256.14770508 C-16.96489832 253.9995047 -16.97490824 251.85130622 -16.98532104 249.70310974 C-17.01240566 243.86051061 -17.03339596 238.01790338 -17.05332303 232.17527604 C-17.07516066 226.07335313 -17.10256021 219.9714553 -17.12937927 213.86955261 C-17.17933626 202.30989451 -17.22426393 190.7502225 -17.26740164 179.19053715 C-17.31674834 166.03229748 -17.37167598 152.87408298 -17.42708123 139.71586764 C-17.54094742 112.64393523 -17.64777636 85.57197869 -17.75 58.5 C-18.17293839 58.93182083 -18.59587677 59.36364166 -19.03163147 59.80854797 C-23.4485269 64.31416121 -27.87961711 68.80545366 -32.3190918 73.28881836 C-33.97249187 74.96229301 -35.62227894 76.63934556 -37.26831055 78.32006836 C-39.63943256 80.73988753 -42.02339079 83.14640256 -44.41015625 85.55078125 C-45.13960953 86.30087967 -45.86906281 87.05097809 -46.62062073 87.82380676 C-51.93321264 93.13869097 -56.0333916 96.08704351 -63.6875 96.9375 C-68.31001758 96.7220817 -72.04344477 95.25531539 -75.75 92.5 C-79.78488235 87.55726912 -80.2082428 83.53383848 -80.28125 77.24609375 C-79.03801935 70.81968827 -73.77948204 66.24029507 -69.30078125 61.79199219 C-68.66288666 61.15059296 -68.02499207 60.50919373 -67.36776733 59.84835815 C-65.27099326 57.74282587 -63.16704121 55.64464168 -61.0625 53.546875 C-59.5977706 52.08079759 -58.13333814 50.61442346 -56.66918945 49.14776611 C-53.60594263 46.08157631 -50.53912149 43.01901926 -47.46972656 39.95898438 C-43.53531998 36.03599192 -39.60998705 32.10406216 -35.68727112 28.169384 C-32.66775238 25.14264161 -29.64349051 22.12067473 -26.61776733 19.1001358 C-25.16821463 17.65191714 -23.72014582 16.20221165 -22.27359009 14.75099945 C-20.25359799 12.72593173 -18.22731164 10.70738009 -16.19921875 8.69042969 C-15.60273529 8.08989777 -15.00625183 7.48936584 -14.39169312 6.87063599 C-9.80046811 2.32606046 -6.63820232 0.20636898 0 0 Z " fill="#556C83" transform="translate(170.75,111.5)"/>
</svg>
