<?xml version="1.0" encoding="UTF-8"?>
<svg version="1.1" xmlns="http://www.w3.org/2000/svg" width="512" height="512">
<path d="M0 0 C4.65769384 2.16250071 7.96784142 5.24406854 10 10 C10.5886655 13.84679991 10.54660873 17.65573187 10.51898193 21.54122925 C10.52648319 22.71016822 10.53398444 23.87910719 10.541713 25.08346856 C10.55848144 28.31954776 10.55742661 31.55505277 10.54880548 34.7911458 C10.54385753 38.28396563 10.56194935 41.77667563 10.57722473 45.26945496 C10.60053301 51.31806842 10.60928545 57.366562 10.60811615 63.41521835 C10.60644664 72.16050044 10.62678431 80.90562276 10.65247145 89.65086223 C10.69355162 103.83982485 10.71686515 118.02875872 10.72900391 132.21777344 C10.74083273 146.00002811 10.76103011 159.78222866 10.79248047 173.56445312 C10.79538462 174.83902922 10.79538462 174.83902922 10.79834744 176.13935433 C10.80811204 180.40219116 10.81804115 184.66502758 10.82805204 188.92786384 C10.91087289 224.28521799 10.96485942 259.64256753 11 295 C11.60996826 294.37432129 12.21993652 293.74864258 12.84838867 293.10400391 C15.12531663 290.7758045 17.40903638 288.4545429 19.69750977 286.13769531 C20.68464193 285.13552083 21.6690593 284.13066447 22.65063477 283.12304688 C24.06593722 281.67116033 25.4908767 280.22935111 26.91796875 278.7890625 C28.19837036 277.48509521 28.19837036 277.48509521 29.50463867 276.15478516 C34.17472521 272.12208935 38.51349659 271.53996197 44.5 271.69140625 C48.64246345 272.20274158 50.68049641 273.4107872 54 276 C57.76008131 280.82061706 58.44339624 284.42452136 58.43359375 290.47265625 C57.42853304 296.33098307 54.14440391 300.23082125 50.04125977 304.33105469 C49.54981476 304.82615036 49.05836975 305.32124603 48.55203247 305.8313446 C46.93910888 307.45231953 45.31566037 309.06225999 43.69140625 310.671875 C42.56133254 311.80142958 41.43177804 312.93150383 40.30271912 314.06207275 C37.94112099 316.42358141 35.57446291 318.77985853 33.20385742 321.13232422 C30.16785695 324.14559953 27.1430957 327.16986449 24.12181187 330.19788742 C21.79304819 332.52999392 19.45932236 334.8570815 17.12397575 337.1825943 C16.00670458 338.29602155 14.89077238 339.4107941 13.77621651 340.52693939 C12.21839674 342.08513052 10.65423084 343.63665659 9.08813477 345.18652344 C8.2000563 346.06999451 7.31197784 346.95346558 6.39698792 347.8637085 C2.35354179 351.46738942 -0.48641924 352.30644299 -5.875 352.375 C-6.88304688 352.40335937 -7.89109375 352.43171875 -8.9296875 352.4609375 C-14.92246745 351.56125807 -19.04914583 347.20462928 -23.22338867 343.06713867 C-23.70712448 342.59012009 -24.19086029 342.1131015 -24.68925476 341.62162781 C-26.27076518 340.05895985 -27.84477402 338.48900517 -29.41796875 336.91796875 C-30.52307489 335.81929799 -31.62832737 334.72077441 -32.73371887 333.62239075 C-35.04275726 331.32528919 -37.34766357 329.02413037 -39.65014648 326.72045898 C-42.59214027 323.77826173 -45.54766866 320.85008052 -48.50690746 317.92524242 C-50.79152474 315.66292183 -53.0669337 313.39150852 -55.33989906 311.11748695 C-56.42547383 310.03426223 -57.51427012 308.95425555 -58.60640526 307.87764549 C-60.13560196 306.36817319 -61.65145516 304.84639292 -63.16479492 303.32104492 C-64.02828049 302.46040939 -64.89176605 301.59977386 -65.78141785 300.71305847 C-69.29996497 296.41029958 -71.59865957 291.75588804 -71.125 286.0625 C-70.31719777 280.24809934 -67.4426491 276.68841054 -63 273 C-58.26183563 270.42491067 -53.12758887 270.51299923 -48 272 C-41.7726474 275.52843241 -37.10313553 280.67440097 -32.125 285.75 C-31.24585938 286.63816406 -30.36671875 287.52632813 -29.4609375 288.44140625 C-27.30267481 290.62312832 -25.14923832 292.80939346 -23 295 C-22.99910437 294.09884045 -22.99910437 294.09884045 -22.99819064 293.17947567 C-22.96230489 257.58107502 -22.90567859 221.9827663 -22.82207905 186.38444494 C-22.81206146 182.11111468 -22.80221736 177.83778404 -22.79248047 173.56445312 C-22.7905391 172.71370178 -22.78859772 171.86295043 -22.78659752 170.98641874 C-22.75556753 157.20707489 -22.73859408 143.4277477 -22.72680578 129.6483755 C-22.71439939 115.51184381 -22.6869096 101.37539964 -22.64538693 87.23892319 C-22.62023681 78.5143454 -22.60688382 69.78991271 -22.60857043 61.06529815 C-22.60860016 55.08433618 -22.5939927 49.10352211 -22.56783572 43.12261777 C-22.55317265 39.67072778 -22.54500122 36.21914114 -22.55419731 32.76722527 C-22.56080321 29.02490014 -22.5429964 25.28346474 -22.51898193 21.54122925 C-22.52674235 20.44978603 -22.53450277 19.35834282 -22.54249835 18.23382556 C-22.47327537 12.15837157 -22.04902505 8.6272572 -18 4 C-12.72867143 -1.00776214 -6.89190982 -0.92775709 0 0 Z " fill="#556C83" transform="translate(102,80)"/>
<path d="M0 0 C1.02994835 -0.00623996 2.0598967 -0.01247993 3.1210556 -0.01890898 C6.57117119 -0.03485976 10.02058233 -0.02222602 13.47070312 -0.00964355 C15.94458427 -0.01506372 18.41846219 -0.02218578 20.89233398 -0.03088379 C26.91349825 -0.0472373 32.93438621 -0.0448334 38.9555397 -0.03323323 C43.84952684 -0.02419539 48.74345808 -0.02297641 53.63745117 -0.02732849 C54.33429693 -0.02794142 55.03114268 -0.02855436 55.74910498 -0.02918586 C57.1647854 -0.03046478 58.58046581 -0.03176163 59.9961462 -0.03307623 C73.26737593 -0.04447923 86.53849509 -0.03137274 99.80970669 -0.00987476 C111.1941567 0.007996 122.57844356 0.00489182 133.96289062 -0.0135498 C147.18700089 -0.03496149 160.41101428 -0.04338062 173.63513947 -0.03110075 C175.04557799 -0.02982657 176.45601653 -0.02856909 177.86645508 -0.02732849 C178.90736746 -0.02640284 178.90736746 -0.02640284 179.96930838 -0.02545848 C184.85675986 -0.02200647 189.74414984 -0.02783071 194.6315918 -0.0372467 C201.21112032 -0.04964413 207.79038837 -0.04080294 214.36990356 -0.01766968 C216.78621915 -0.01237564 219.20256065 -0.01390816 221.61886597 -0.02272034 C224.91423114 -0.03363137 228.20860448 -0.01996465 231.50390625 0 C232.46285545 -0.00892289 233.42180466 -0.01784577 234.40981293 -0.02703905 C240.03725907 0.03920896 243.2967234 0.73385135 247.75195312 4.50793457 C251.38028976 8.32723629 252.06195771 11.39072463 252.25195312 16.50793457 C252.06195771 21.62514451 251.38028976 24.68863285 247.75195312 28.50793457 C242.42624692 33.01940976 238.16709005 33.07786912 231.50390625 33.01586914 C230.4739579 33.0221091 229.44400955 33.02834907 228.38285065 33.03477812 C224.93273506 33.0507289 221.48332392 33.03809516 218.03320312 33.0255127 C215.55932198 33.03093286 213.08544406 33.03805492 210.61157227 33.04675293 C204.590408 33.06310644 198.56952004 33.06070254 192.54836655 33.04910237 C187.65437941 33.04006453 182.76044817 33.03884555 177.86645508 33.04319763 C177.16960932 33.04381056 176.47276357 33.0444235 175.75480127 33.045055 C174.33912085 33.04633392 172.92344044 33.04763077 171.50776005 33.04894537 C158.23653032 33.06034837 144.96541116 33.04724188 131.69419956 33.0257439 C120.30974955 33.00787314 108.92546269 33.01097733 97.54101562 33.02941895 C84.31690536 33.05083063 71.09289197 33.05924976 57.86876678 33.04696989 C56.45832826 33.04569571 55.04788972 33.04443823 53.63745117 33.04319763 C52.59653879 33.04227198 52.59653879 33.04227198 51.53459787 33.04132763 C46.64714639 33.03787561 41.75975641 33.04369985 36.87231445 33.05311584 C30.29278593 33.06551327 23.71351788 33.05667208 17.13400269 33.03353882 C14.7176871 33.02824478 12.3013456 33.0297773 9.88504028 33.03858948 C6.58967511 33.04950051 3.29530177 33.03583379 0 33.01586914 C-0.9589492 33.02479203 -1.91789841 33.03371491 -2.90590668 33.04290819 C-8.53335282 32.97666018 -11.79281715 32.28201779 -16.24804688 28.50793457 C-19.87638351 24.68863285 -20.55805146 21.62514451 -20.74804688 16.50793457 C-20.55805146 11.39072463 -19.87638351 8.32723629 -16.24804688 4.50793457 C-10.92234067 -0.00354062 -6.6631838 -0.06199998 0 0 Z " fill="#556C83" transform="translate(228.248046875,95.4920654296875)"/>
<path d="M0 0 C1.25090675 -0.00935994 1.25090675 -0.00935994 2.52708435 -0.01890898 C5.31391906 -0.03482936 8.09987796 -0.0222386 10.88671875 -0.00964355 C12.88770049 -0.0150651 14.88867824 -0.02218794 16.88964844 -0.03088379 C22.3193745 -0.04911614 27.74879647 -0.04204986 33.17852783 -0.02936745 C38.86121438 -0.0192394 44.54387493 -0.02863259 50.2265625 -0.03491211 C59.76957879 -0.04218906 69.31247126 -0.03259948 78.85546875 -0.0135498 C89.88799463 0.00821896 100.92022482 0.00116763 111.95274353 -0.02085543 C121.42551708 -0.03900799 130.89820162 -0.04156843 140.37098694 -0.03110075 C146.02846117 -0.02486506 151.68579642 -0.02403236 157.34326172 -0.0372467 C162.66212809 -0.0488024 167.98061328 -0.04078433 173.29943848 -0.01766968 C175.25133633 -0.01238113 177.20326628 -0.01389885 179.15515137 -0.02272034 C181.82001297 -0.0336536 184.48365366 -0.01993932 187.1484375 0 C188.30671303 -0.01338433 188.30671303 -0.01338433 189.48838806 -0.02703905 C194.6676624 0.04811473 197.57125259 1.26427255 201.57421875 4.50793457 C205.20255538 8.32723629 205.88422333 11.39072463 206.07421875 16.50793457 C205.88422333 21.62514451 205.20255538 24.68863285 201.57421875 28.50793457 C196.83204604 32.35058647 193.08756051 33.08449805 187.1484375 33.01586914 C185.89753075 33.02522908 185.89753075 33.02522908 184.62135315 33.03477812 C181.83451844 33.0506985 179.04855954 33.03810774 176.26171875 33.0255127 C174.26073701 33.03093424 172.25975926 33.03805708 170.25878906 33.04675293 C164.829063 33.06498529 159.39964103 33.057919 153.96990967 33.04523659 C148.28722312 33.03510854 142.60456257 33.04450173 136.921875 33.05078125 C127.37885871 33.0580582 117.83596624 33.04846862 108.29296875 33.02941895 C97.26044287 33.00765018 86.22821268 33.01470151 75.19569397 33.03672457 C65.72292042 33.05487713 56.25023588 33.05743757 46.77745056 33.04696989 C41.11997633 33.0407342 35.46264108 33.0399015 29.80517578 33.05311584 C24.48630941 33.06467154 19.16782422 33.05665347 13.84899902 33.03353882 C11.89710117 33.02825027 9.94517122 33.02976799 7.99328613 33.03858948 C5.32842453 33.04952274 2.66478384 33.03580846 0 33.01586914 C-1.15827553 33.02925347 -1.15827553 33.02925347 -2.33995056 33.04290819 C-7.5192249 32.96775441 -10.42281509 31.75159659 -14.42578125 28.50793457 C-18.05411788 24.68863285 -18.73578583 21.62514451 -18.92578125 16.50793457 C-18.73578583 11.39072463 -18.05411788 8.32723629 -14.42578125 4.50793457 C-9.68360854 0.66528267 -5.93912301 -0.06862891 0 0 Z " fill="#556C83" transform="translate(226.42578125,191.4920654296875)"/>
<path d="M0 0 C1.31218506 -0.0112793 2.62437012 -0.02255859 3.97631836 -0.03417969 C5.41845926 -0.02640353 6.86059796 -0.01821092 8.30273438 -0.00964355 C9.83081732 -0.01506733 11.35889504 -0.02219143 12.88696289 -0.03088379 C17.02750517 -0.04908987 21.16764793 -0.042061 25.30819702 -0.02936745 C29.64557963 -0.01922564 33.98292852 -0.0286364 38.3203125 -0.03491211 C45.60357796 -0.04218508 52.88668107 -0.03261004 60.16992188 -0.0135498 C68.5849636 0.00821833 76.99961764 0.0011667 85.41464996 -0.02085543 C92.64541182 -0.03901944 99.87605711 -0.04156287 107.10683441 -0.03110075 C111.42293145 -0.0248713 115.73884638 -0.02401502 120.05493164 -0.0372467 C124.11312975 -0.04881923 128.17082905 -0.04075428 132.22897339 -0.01766968 C133.71645276 -0.01239002 135.20397427 -0.0138837 136.69143677 -0.02272034 C138.7252653 -0.03368693 140.75918579 -0.01748202 142.79296875 0 C143.93004272 0.0015081 145.0671167 0.0030162 146.23864746 0.00457001 C151.24800298 0.80306978 154.3417063 3.39764186 157.77148438 7.00793457 C160.16952013 12.17293466 160.15029973 16.90816337 159.39648438 22.50793457 C157.08483656 27.48686832 154.10408838 29.803177 149.39648438 32.50793457 C146.23864746 33.01129913 146.23864746 33.01129913 142.79296875 33.01586914 C140.82469116 33.03278809 140.82469116 33.03278809 138.81665039 33.05004883 C137.37450949 33.04227267 135.93237079 33.03408006 134.49023438 33.0255127 C132.96215143 33.03093648 131.43407371 33.03806057 129.90600586 33.04675293 C125.76546358 33.06495901 121.62532082 33.05793014 117.48477173 33.04523659 C113.14738912 33.03509478 108.81004023 33.04450554 104.47265625 33.05078125 C97.18939079 33.05805422 89.90628768 33.04847918 82.62304688 33.02941895 C74.20800515 33.00765081 65.79335111 33.01470244 57.37831879 33.03672457 C50.14755693 33.05488858 42.91691164 33.05743201 35.68613434 33.04696989 C31.3700373 33.04074044 27.05412237 33.03988416 22.73803711 33.05311584 C18.679839 33.06468837 14.6221397 33.05662342 10.56399536 33.03353882 C9.07651599 33.02825916 7.58899448 33.02975284 6.10153198 33.03858948 C4.06770345 33.04955607 2.03378296 33.03335116 0 33.01586914 C-1.13707397 33.01436104 -2.27414795 33.01285294 -3.44567871 33.01129913 C-8.45503423 32.21279936 -11.54873755 29.61822728 -14.97851562 26.00793457 C-17.37655138 20.84293448 -17.35733098 16.10770577 -16.60351562 10.50793457 C-13.2722258 3.3328488 -7.82264033 0.01037518 0 0 Z " fill="#556C83" transform="translate(224.603515625,287.4920654296875)"/>
<path d="M0 0 C1.33285034 -0.01051392 1.33285034 -0.01051392 2.69262695 -0.02124023 C5.6183229 -0.03878886 8.54304489 -0.02720857 11.46875 -0.01367188 C13.50846542 -0.01636769 15.54817959 -0.02025085 17.58789062 -0.02526855 C21.85819765 -0.03115936 26.1281695 -0.02261394 30.3984375 -0.00390625 C35.86619751 0.01888287 41.33317211 0.00575757 46.80090332 -0.01819611 C51.01145319 -0.03266525 55.22181752 -0.02804293 59.43237305 -0.01768494 C61.44816176 -0.01502075 63.46396743 -0.01827656 65.47973633 -0.02760315 C68.29944337 -0.03778699 71.11788682 -0.02224194 73.9375 0 C74.76677002 -0.00809692 75.59604004 -0.01619385 76.45043945 -0.02453613 C81.75936306 0.05286148 84.73551987 1.03808214 88.96875 4.51757812 C92.59708663 8.33687985 93.27875458 11.40036819 93.46875 16.51757812 C93.27875458 21.63478806 92.59708663 24.6982764 88.96875 28.51757812 C83.89454676 32.68831046 80.22694792 33.0965659 73.9375 33.03515625 C73.04893311 33.04216553 72.16036621 33.0491748 71.24487305 33.05639648 C68.3191771 33.07394511 65.39445511 33.06236482 62.46875 33.04882812 C60.42903458 33.05152394 58.38932041 33.0554071 56.34960938 33.0604248 C52.07930235 33.06631561 47.8093305 33.05777019 43.5390625 33.0390625 C38.07130249 33.01627338 32.60432789 33.02939868 27.13659668 33.05335236 C22.92604681 33.0678215 18.71568248 33.06319918 14.50512695 33.05284119 C12.48933824 33.050177 10.47353257 33.05343281 8.45776367 33.0627594 C5.63805663 33.07294324 2.81961318 33.05739819 0 33.03515625 C-0.82927002 33.04325317 -1.65854004 33.0513501 -2.51293945 33.05969238 C-7.82186306 32.98229477 -10.79801987 31.99707411 -15.03125 28.51757812 C-18.65958663 24.6982764 -19.34125458 21.63478806 -19.53125 16.51757812 C-19.34125458 11.40036819 -18.65958663 8.33687985 -15.03125 4.51757812 C-9.95704676 0.34684579 -6.28944792 -0.06140965 0 0 Z " fill="#556C83" transform="translate(227.03125,383.482421875)"/>
</svg>
