<?xml version="1.0" encoding="UTF-8"?>
<svg version="1.1" xmlns="http://www.w3.org/2000/svg" width="512" height="512">
<path d="M0 0 C168.96 0 337.92 0 512 0 C512 168.96 512 337.92 512 512 C343.04 512 174.08 512 0 512 C0 343.04 0 174.08 0 0 Z " fill="#396793" transform="translate(0,0)"/>
<path d="M0 0 C2.67185465 2.23563348 4.45234181 3.90468363 6 7 C6.15582545 9.79918865 6.25270932 12.57642012 6.30651855 15.37806702 C6.33658981 16.6776584 6.33658981 16.6776584 6.36726856 18.00350416 C6.43201363 20.89295268 6.48891012 23.78248888 6.54492188 26.67211914 C6.56572028 27.67444521 6.58651869 28.67677128 6.60794735 29.70947087 C7.06567633 51.83897446 7.19865893 73.96743987 7.27039146 96.10100436 C7.28911083 101.5229225 7.31331412 106.94481632 7.33703613 112.36671448 C7.40107753 127.21298494 7.45727246 142.0592827 7.51302338 156.90558624 C7.56440251 170.57378861 7.6176277 184.24197741 7.67754889 197.91014534 C7.70079231 203.25613052 7.72239028 208.60211007 7.73963928 213.94811821 C7.82403957 239.97926813 8.17468539 265.98114948 9 292 C9.47449333 291.55082088 9.94898666 291.10164177 10.43785858 290.63885117 C11.06128395 290.04886463 11.68470932 289.4588781 12.32702637 288.85101318 C12.94460564 288.26648251 13.56218491 287.68195183 14.1984787 287.0797081 C31.23882154 270.98801963 31.23882154 270.98801963 37.0625 269.875 C42.92354586 270.06106495 47.12556012 271.17488749 51.375 275.3125 C54.19572781 279.97754984 55.76372093 284.20368149 54.84765625 289.7421875 C51.64316644 298.27764885 42.96658321 305.17094987 36.5703125 311.43359375 C33.76601394 314.23363045 31.18307061 317.16178701 28.60546875 320.16796875 C24.13513538 325.26915208 19.17576704 329.75780207 14.04296875 334.17578125 C11.90330196 336.08634414 9.8877612 338.08156815 7.875 340.125 C-1.05562086 349.09037035 -1.05562086 349.09037035 -7.77734375 351.03125 C-14.67553426 350.93426314 -19.32088735 346.28780311 -23.9375 341.75 C-25.25487343 340.48532813 -26.57259364 339.22101741 -27.890625 337.95703125 C-28.56544922 337.30428223 -29.24027344 336.6515332 -29.93554688 335.97900391 C-31.97155459 334.02726803 -34.03362671 332.10857143 -36.109375 330.19921875 C-43.95030999 322.97915321 -51.40272601 315.56846472 -58.51611328 307.63232422 C-60.11060422 305.87833172 -61.73651097 304.15806794 -63.37109375 302.44140625 C-63.92571289 301.85504395 -64.48033203 301.26868164 -65.05175781 300.66455078 C-66.1148949 299.54206843 -67.18300364 298.42426677 -68.25683594 297.31201172 C-72.6252718 292.66407877 -73.3918314 289.44759597 -73.2734375 283.08984375 C-72.70533254 278.74789872 -70.76350841 275.51349203 -67.45703125 272.67578125 C-62.94255386 269.73155686 -59.30757944 269.48636328 -54 270 C-49.25540863 271.35559753 -46.21944456 274.2720356 -42.75 277.625 C-41.68327049 278.63905151 -40.61553934 279.65205024 -39.546875 280.6640625 C-38.76494781 281.40700058 -38.76494781 281.40700058 -37.96722412 282.16494751 C-35.76857766 284.2158738 -33.52853693 286.21432444 -31.27832031 288.20849609 C-30.47501282 288.92089447 -29.67170532 289.63329285 -28.84405518 290.36727905 C-28.23551697 290.90607697 -27.62697876 291.44487488 -27 292 C-26.14180531 264.94457271 -25.81694387 237.90724176 -25.72960854 210.83927417 C-25.71096312 205.42059007 -25.68671926 200.0019309 -25.66296387 194.58326721 C-25.60371928 180.86802958 -25.55150365 167.15276854 -25.5 153.4375 C-25.44434548 138.63603939 -25.38721066 123.83459046 -25.32245111 109.03316647 C-25.29926971 103.69076639 -25.27767494 98.34837158 -25.26036072 93.00594902 C-25.21566676 79.33682885 -25.13690456 65.66852446 -25 52 C-24.99004375 50.96620665 -24.98008751 49.9324133 -24.96982956 48.86729288 C-24.90658309 42.53586926 -24.8243824 36.20511204 -24.71781063 29.87426579 C-24.68618594 27.88345911 -24.65939141 25.89256914 -24.63771152 23.90162933 C-24.6064566 21.15765383 -24.55662214 18.41462856 -24.50183105 15.67103577 C-24.49633082 14.8626852 -24.49083059 14.05433463 -24.48516369 13.2214886 C-24.37016512 8.65648748 -23.83736446 5.62949687 -21 2 C-18.6875 0.3125 -18.6875 0.3125 -16 -1 C-15.113125 -1.45375 -14.22625 -1.9075 -13.3125 -2.375 C-8.39493617 -3.30284223 -4.51025813 -2.04465035 0 0 Z " fill="#FDFDFE" transform="translate(105,82)"/>
<path d="M0 0 C2.26920937 0.02205702 4.53842698 0.04306368 6.80764771 0.06391907 C18.49926988 0.17193819 30.19070565 0.29347665 41.88206482 0.42695236 C43.67245745 0.44735489 45.46285253 0.4675438 47.25325012 0.48750687 C59.20057974 0.6210025 71.14676106 0.78564697 83.09255981 1.02033997 C85.02881226 1.05722931 85.02881226 1.05722931 87.00418091 1.09486389 C90.39904492 1.1677587 93.79233204 1.2622024 97.18630981 1.36799622 C98.61940491 1.39850319 98.61940491 1.39850319 100.08145142 1.42962646 C104.86770808 1.60962553 108.21632636 1.90591788 112.09255981 5.02033997 C115.00856243 8.80034335 116.8956131 13.22511557 117.09255981 18.02033997 C115.71792223 23.21151793 113.3280533 27.63194518 109.09255981 31.02033997 C106.85015176 32.14154399 105.49375356 32.2070145 103.00076294 32.31697083 C102.12440186 32.35601028 101.24804077 32.39504974 100.34512329 32.43527222 C98.87432312 32.49091591 98.87432312 32.49091591 97.37380981 32.54768372 C96.32398926 32.58900925 95.2741687 32.63033478 94.1925354 32.6729126 C77.66653238 33.27068632 61.12718502 33.39847763 44.59255981 33.58283997 C42.77586851 33.60354218 40.95917744 33.62426382 39.14248657 33.64500427 C27.55688046 33.77608891 15.97117182 33.89254303 4.38531494 33.99902344 C2.26941231 34.01869571 0.15351952 34.03916749 -1.96237183 34.06001282 C-33.69922715 34.36689874 -65.42120702 33.92651617 -97.15219116 33.32762146 C-101.43214399 33.24684557 -105.71213602 33.17192837 -109.99227905 33.10197449 C-115.05789798 33.01827407 -120.123015 32.91959296 -125.18812752 32.80952454 C-127.07856896 32.77065983 -128.96911824 32.73670288 -130.8597393 32.70787048 C-133.47077685 32.66700309 -136.08080534 32.60805104 -138.69137573 32.54450989 C-139.83707724 32.53263783 -139.83707724 32.53263783 -141.00592422 32.52052593 C-145.45957914 32.3887803 -148.35167354 31.74662916 -151.90744019 29.02033997 C-154.8234428 25.24033658 -156.71049347 20.81556436 -156.90744019 16.02033997 C-155.5328026 10.829162 -153.14293367 6.40873475 -148.90744019 3.02033997 C-145.79053845 1.4618891 -142.45811434 1.79003459 -139.0319519 1.72322083 C-138.21329525 1.70357615 -137.3946386 1.68393148 -136.55117416 1.66369152 C-133.81324537 1.59938543 -131.07521828 1.54215333 -128.33712769 1.48518372 C-126.40901055 1.44191851 -124.48089987 1.39836453 -122.55279541 1.35453796 C-117.37236062 1.23862717 -112.19180004 1.12996543 -107.01115417 1.02394485 C-103.77974668 0.95778482 -100.54836582 0.8904228 -97.31698608 0.82292175 C-64.87236796 0.14991849 -32.45216309 -0.31971207 0 0 Z " fill="#FDFDFD" transform="translate(363.9074401855469,94.97966003417969)"/>
<path d="M0 0 C4.59535033 0.10713843 9.19089076 0.19602013 13.78668594 0.28160572 C17.38824568 0.35180798 20.989429 0.43475812 24.59062958 0.52130699 C26.28895684 0.55994632 27.98739936 0.59384684 29.68592072 0.62272072 C32.02553456 0.66364664 34.36403023 0.72262936 36.703125 0.78613281 C37.72968201 0.79800629 37.72968201 0.79800629 38.77697754 0.81011963 C43.0368596 0.95010833 45.73280951 1.75121308 49.14746094 4.31030273 C52.06346355 8.09030612 53.95051422 12.51507834 54.14746094 17.31030273 C52.77282335 22.5014807 50.38295442 26.92190795 46.14746094 30.31030273 C43.22451331 31.77177655 40.25266986 31.53768897 37.04370117 31.60742188 C36.30947433 31.62707504 35.5752475 31.64672821 34.81877136 31.66697693 C32.36462932 31.73130113 29.91037969 31.78857391 27.45605469 31.84545898 C25.718667 31.88860095 23.98128611 31.93201738 22.24391174 31.97569275 C18.56754238 32.06699026 14.89110971 32.15479761 11.21459961 32.24023438 C6.63643054 32.34689653 2.05852616 32.46203086 -2.51936913 32.57978535 C-40.73999478 33.55579166 -78.91018187 33.50611216 -117.13232422 32.62060547 C-121.78821194 32.51350511 -126.44428712 32.42460837 -131.10061264 32.33899975 C-134.74849239 32.26879737 -138.39600051 32.1858461 -142.0435257 32.09929848 C-143.76418286 32.06065335 -145.48495397 32.02675422 -147.20580292 31.99788475 C-149.57654287 31.95696228 -151.94617869 31.89797822 -154.31640625 31.83447266 C-155.01012833 31.82655701 -155.7038504 31.81864136 -156.41859436 31.81048584 C-160.70250703 31.67154109 -163.42023396 30.88953707 -166.85253906 28.31030273 C-169.76854168 24.53029935 -171.65559235 20.10552713 -171.85253906 15.31030273 C-170.47790148 10.11912477 -168.08803254 5.69869752 -163.85253906 2.31030273 C-160.90634779 0.8372071 -157.89194558 1.08254833 -154.65698242 1.01318359 C-153.91300201 0.99353043 -153.16902161 0.97387726 -152.40249634 0.95362854 C-149.91588741 0.88930553 -147.42917221 0.83203457 -144.94238281 0.77514648 C-143.18257491 0.73200663 -141.42277377 0.68859018 -139.66297913 0.64491272 C-135.9395304 0.55361755 -132.21601926 0.46580773 -128.49243164 0.38037109 C-123.85373703 0.27366965 -119.21530167 0.15854914 -114.57687569 0.04082012 C-76.36799616 -0.92205523 -38.21007468 -0.89716757 0 0 Z " fill="#FDFEFE" transform="translate(378.8525390625,191.689697265625)"/>
<path d="M0 0 C3.51801088 0.11846185 7.03603333 0.21908933 10.5546875 0.31591797 C12.36724638 0.37802479 14.17975454 0.44164517 15.9921875 0.50732422 C16.75926025 0.52593506 17.52633301 0.5445459 18.31665039 0.5637207 C22.64115507 0.75455978 25.46424919 1.50757557 28.9296875 4.13232422 C31.84569011 7.91232761 33.73274078 12.33709983 33.9296875 17.13232422 C32.55504991 22.32350218 30.16518098 26.74392943 25.9296875 30.13232422 C22.84869672 31.67281961 19.57006862 31.48095868 16.1796875 31.63232422 C15.314646 31.67220459 14.44960449 31.71208496 13.55834961 31.75317383 C-26.06612112 33.46552776 -65.70288289 33.72061664 -105.34353638 32.43960571 C-107.81579536 32.36014538 -110.2881932 32.28488721 -112.76071167 32.21395874 C-116.21877924 32.11186724 -119.67560346 31.99039292 -123.1328125 31.86279297 C-124.16716934 31.83451416 -125.20152618 31.80623535 -126.26722717 31.77709961 C-135.11192328 31.40935961 -135.11192328 31.40935961 -139.0703125 28.13232422 C-141.98631511 24.35232083 -143.87336578 19.92754861 -144.0703125 15.13232422 C-142.69567491 9.94114625 -140.30580598 5.520719 -136.0703125 2.13232422 C-133.71142034 0.95287814 -132.14194371 0.94001626 -129.50854492 0.83520508 C-128.55107361 0.79525421 -127.59360229 0.75530334 -126.6071167 0.71414185 C-125.557276 0.67554047 -124.5074353 0.63693909 -123.42578125 0.59716797 C-122.33009827 0.55405487 -121.23441528 0.51094177 -120.10552979 0.46652222 C-116.48983872 0.3275791 -112.87391569 0.19757254 -109.2578125 0.06982422 C-108.0204837 0.02530121 -106.78315491 -0.0192218 -105.5083313 -0.06509399 C-70.32205706 -1.31018127 -35.1852019 -1.2060727 0 0 Z " fill="#FCFDFD" transform="translate(351.0703125,287.86767578125)"/>
<path d="M0 0 C1.31685791 0.06993164 2.63371582 0.13986328 3.99047852 0.21191406 C5.21307373 0.29280273 6.43566895 0.37369141 7.6953125 0.45703125 C9.30817139 0.55914917 9.30817139 0.55914917 10.95361328 0.66333008 C15.18768916 1.4230293 17.93627827 2.9706385 20.5625 6.375 C24.50249213 14.81784028 24.50249213 14.81784028 23.24609375 19.5625 C21.17230921 24.50705295 18.82756116 28.71121942 13.875 31.1875 C9.32833663 31.71094048 4.75440419 31.95899994 0.1875 32.25 C-0.50215851 32.29419067 -1.19181702 32.33838135 -1.90237427 32.38391113 C-23.20453538 33.71516225 -44.44740722 33.55849427 -65.75 32.375 C-66.78784134 32.32273254 -66.78784134 32.32273254 -67.84664917 32.26940918 C-69.80745115 32.16710698 -71.76707737 32.04298134 -73.7265625 31.91796875 C-75.40226318 31.81585083 -75.40226318 31.81585083 -77.11181641 31.71166992 C-81.40245237 30.96527587 -84.15260402 29.44801331 -86.8125 26 C-90.75249213 17.55715972 -90.75249213 17.55715972 -89.49609375 12.8125 C-87.42230921 7.86794705 -85.07756116 3.66378058 -80.125 1.1875 C-75.41121373 0.6634589 -70.67085976 0.41640856 -65.9375 0.125 C-65.22449738 0.08080933 -64.51149475 0.03661865 -63.77688599 -0.00891113 C-42.49897249 -1.29656118 -21.28067691 -1.22273491 0 0 Z " fill="#FCFCFD" transform="translate(297.125,383.8125)"/>
</svg>
